<mxfile host="app.diagrams.net" modified="2024-06-11T13:42:08.326Z" agent="Mozilla/5.0 (Windows NT 10.0; Win64; x64) AppleWebKit/537.36 (KHTML, like Gecko) Chrome/125.0.0.0 Safari/537.36" etag="mSemuFHJW1ZH4AIPGpjq" version="24.4.6" type="github">
  <diagram name="Page-1" id="822b0af5-4adb-64df-f703-e8dfc1f81529">
    <mxGraphModel dx="1024" dy="524" grid="1" gridSize="10" guides="1" tooltips="1" connect="1" arrows="1" fold="1" page="1" pageScale="1" pageWidth="1169" pageHeight="827" background="none" math="0" shadow="0">
      <root>
        <mxCell id="0" />
        <mxCell id="1" parent="0" />
        <mxCell id="-GH2pdDdH-t2QKyGOY7W-2" value="BOX" style="shape=image;verticalLabelPosition=bottom;labelBackgroundColor=default;verticalAlign=top;aspect=fixed;imageAspect=0;image=data:image/png,iVBORw0KGgoAAAANSUhEUgAAAGoAAACkCAIAAADwoSwEAAAgAElEQVR4Aey9Z1iTW9r3/ewyd5l7ZrurbistvZKEEkjovYTee+9dkN57RwWkCIIoTRFEpKMgNfRqpQYIoYndr++7rguyGXXfz96jM5+edZxHjnBRJD/+Z10rl//n/f9bn0Hg/3zG9/6/b33/ufjewev9+3fv37979/7tIQNXDhv0qX+4cviz/+zzt+/ev3n3/u37A4Oev3sPfpP9f+vdu8N/57dv3719++4fr72HL7598/bwV/6R55+BDwL39u3bN2/e7v/2EKA30Ot5A/328PU3796/fvvu9Zt3r968BXz5LxV6kfvEoYvgZR9cBD/nPWTg29+/evv+5Zv3L169337+amvn5eb2C97WHm/zOZe3u87b4W3vrW/urqxvPllYefxs8cn80uzDJzNzj6amZ8YnJsahNTY2NjIyMjw8MjEx9fjx05WVVS6Xt729+/r127dv37958+4N9Eu/fQt08P7d+3d/AOafxger7S30F9yX3sHf+TBE+I9/+AqM9QP1vX0PtPP6LSD78tWbvRevdp7vbe3sbm7tcHlbK2u8Jc7GwvL60/mVR0+X5h4vzDx8Nj45NzI+wx6dYo9MskenRsdnxibn5p4sjM886mePNrV21NbVV9bcKC4tS8/Iio2LDwwMdHd3t7W1NTY21tHR0dTQUlPTUFfX1NZmGRgYOTo4hYVFPHjQt7Pz/M1rAAxQe/f+7dv3L1+++r8K8E/j++RPPAyF77+v3rx99frty9dvXr568+LV672Xr/ZevNrc3uFtbm3wNtc3eKvr3JXVteWV1cWl5fmFpafPFh49fjIz93ASSGZqfHJmfOrh6MQMe2Syf2j0QT+7+8HgvZ6Bru7+jnu9HV0Purr7+waHR8amJ6YfjU0/ZI9N3esdrK27XVBcmp6ZExoR7X82yMXVzdjYRFVVlU6nE4lEBAKBEEEKCggdO3b8hx9++vHHn4/+cuz48ZPnz18EGnzzbm/v5fv371+/fvvmDfDxT77Ywxf/SXzv3r178+bN69evX716tffixebWNm9rm7cJ2xaPB2x9g7fO5a1xN1bXuZy1dc7q2gpnbWmZs7i0Mr+49HR+4dGTp3MPH8/MPZyemZuamQXUJqdGxyaGR8fYw6P9Q8PdvYP3ewa67ve1dz1obb/f3Np1t7XrTnNH4932O3fbW9rvdz8YZA9PjE3OjU3Nscem7vcN1d5qLCguTcvIDg6NMLe01tM3UFZWlpKSIpPJGAxGUFDo9OkzIiJIFBINHlEYJAL1yy/HPD28OJy19+/ewwJ8+fL1q1dvDmP6ved/Dt/bt29fvny5t7f3/Pnz7e3tzc1NHrwAuH1qG7xN2BYWgabmFxafzi88eTb/5On846fPZmYfTk3PTk4BfY2OQ6RGRtnDI2w2sCH28BB7eHCIPTjEZo+MAy4Ts6MTMyNj08MH3jo8Ng177vDY9PjU3MzDZw+fLE4/fMoen+7q6a+5UV94+cr53PyE5NT4xOTwyCg/Pz8nJydTU1MtLS05OTksFkcmiTIZMkymrJycgoqyqry8oiiZEh+XwNvg7WN69/71KxDTf48a//qfw/fq1autrS0+tY2NjQ0ud32du7C0DGxxeX5xaX5x6dnC4rOFRVhoC0vgIrgyD2xxeQU2+Pr8wv4XP51fAPZs4clTCPSTZ7OPnk7OPJ6cfjQ+9XBscm50YnZ0fAawG54YggyOfSPjM6MTs+zRyfu9Q/VNrcWlVzNzLiSlpodHxrh5eDk6OVtZWRsZGWlqajKZTBKJjMXgxMQk9HT13d09fX38nJ1cTE3NZZiyVpbWT548e/ni9d7eS9iF+Yz+lyd/Gt/m5uYWtOAnO2DtPt97sbv3Yvf5i53nezu7e9s7z7d2drd2dsGT7V3e1vYGb5PL423weCDYcVaXV1aXVjhLy5wliOaTZ/MPHz+Ze/R49uEj4Muzc9PAl+cgakB67JHJoeGJQfZ4/+BIT9/Qg3523+DIwNDoIHt8iD0+NDzR089u63pQe6sxr/ByUmp6ZEx8QFCIu6eXs4urra0tLD0IHwmJRIkII6hUMWNjU18fP29vX2cnF2NjU10dvanJ6XdQ2n318jVc2Rzkxt8NggAf/4sOP+Ej51+EPXd7e/vFixevX7+GXfjVq1cvXr58CWWG5y9e7jwH7Da3dza3tje3d7a2dze3trk8HmdtfYWzts+Os7q0zFlYXH62sAjL7RHEDo6DM7MPp2dmoVA4B3Q3MQsUNzIxwB7rHxzpGxh+0M9+0M/uHWD3Dgz3Dgz3DY70DY5097FbOrurbtSfzyuMiU86FxoRGBzq7gnUZ2lpaWBgoKGhwWAwREVFkUiUsDAChUTTJaUcHZz8/AKcnFz09Q0NDY1nZuZeglcG8sa7d6B8eQOttwcLRsEn8/49VDbzAR1+An8R/wr8E16+fLm9vf0SWnt7ey+gtbv7HMqqL3f3XkDS24Xw7WzvPOdtbnH5CWSNu7yyyvdxyJ0Xnj6bf/ps/tHjp3MPH83OPZqenZuanp2Ymh6fBJl3bGJ2ZBxID9Zdbz+7p4/d0zvU0zfU08d+0Adx7Gc/GGD39LNbu3qqbzZcvFQUE5909lyoj3+gp5ePk7OLlZUVjI/JZIqKUhAIpKCgsIgIkkymmBiburl52Ns76ukZGBgYzUzPvXjx6vWrN3Al+PYtSI9vQFm7v/4Evg/AQeXxm5cvXz5//vz169dw6tjb29vd3eVtbu777O7z7d3n2zu7W9vANrd2oBzC4/E2QSLm8pYh3S2tcED4W1rhh7/HT57OHuADWWVyanxicnR8CtLd5BB7vH9oFOgOYnevZ+B+z8D9B4P3Hwx29w7tW99QU1vX1ararAv50XGJgcFh/oHnvLx97B0c9fX1lZSU6HQ6iUTCYDACAoInT54+fVoAiUSrq2k4OTq7urobGZlA+GZfvHj16gvig7HDf4Q3bwC+bWjt7e29efNmb29vc3Pz5ctXL1+Dyg447+4eqOx4Wxs8HheydS6o70Dhsra+xt1YWoHcdn4RrlqmZ+cmp2cmJqdBIh6bGB4ZG2IP9w8M9fYPdHX3trTdu9vaeedue8Od1rqGuzfrm+obWzrv9Xbe7+u839fV3d/V3X+vu/9ez0Bnd399U2vJ1cr0rAsR0XH+gcFePv4sHV15BUVRCgWFQgkLCwsKCp45c+b06TMnT5w+derMqVNnJCToRobG5uaWLJbO/++/M9Oze3svAb5Xb95Cdd9nqe8DdnC8297e3tjYGB8fHx4enpubm5mZmZ6eeQrF/qmZ2dGxiUE2u7dvoPtBb1t7Z3NLW0PjndqbdbU36m7faerould6pfxSYdGlwqL8SwV5+QW5efkX8/Izs3LS0jPS0zOgx8z0DGDJqelxiWnxSWnxSemJyemJKRnJqZkX8oraOnvaO3vau3o6uh503IOtt62r59adlrJr1Zk5uSHhUU6uHiZmllSaOJ5ARCCQwsLCCAQCiUSCqlkYISgghECABCIhTtfXM9DV0VNVVdfXN5yG8MFFHyibQRsH1oHvglb5g275d1PHx+xeQ2tra6u6uppCofz1r3+Vk5MLDAxMSkrKzcu/cDEv5/xFGERKanpSSuqF3LzM7JyUtPTEpJTklNTM7JzcvEu5eZcu5uXn5l/Kv1R4qbCooKi4sOhyaVl5ecW1q9euX6usul5VXVldU1VTW1lde63qRmVNXXVtfW1dY119U/3t5ttNba3t9/eto7sNts6eptbOmw1NVyqqM3Jyg0LCzK1sVdS1KDRxInBYLBqNxmAwaDQagogSFhLBYnA4HEFRQcnJ0dnBwQmoT89genr2+fMXL1++fvkSTiBvvww+GBysvs3NzadPn7ZCa3BwcHR0dHZ27tGTZ0+ezj+bX1pYWlleWeOsclfXNlZW1xdBhl1ZXOasrK5zVrnLK2vwlWfzS4+fzM8+fDw1MzcBSujp0bFJ9vDYwCD7Qe/AvfsPOjrvt7Xfa27tamruuH2n9dbt5hu37tTevH2z/k5z2z3YWtrvt7Tfb+3obu3obmhqrbpRX1h6NTUjOyAoxMzSRkVdkyEjSxMTJxKJWCwWg8HAjxgMVkhIGNIiSl5BycvLx98/0MjQVE/PaHp6DsL3ClQSr2F04PEPqY//RfD38dX3+vVrfqexu7u7tbU1OTlZUlKSl5dXXFxcX1/feKepuaXjbnPHnaa2240t9fVNdbfu1NU1Xrtee+1azdWK6rLyytIr1y6XXC2+XJ5/qTg3r+jCxYKc8/lZ2RczMi+kZ5xPSk6Pi0+JjUuOiU2KjkmIioqPjIwLi4gNDo06ey7c72yIb8A5X/9z/mdD4hLT7jR3fGyNzR01NxsKSsqT0jL9zgaZWdqoa7EkpRiiFCoWi0NBC41Go1AoJBqJwqCQaBQShZaRVXBydvfzCzY0sjQytpyYnNt78fr53ou9Fy+ev9h79frVa4gijILvtodd+Dfn/T18oLJ78QJOsltbWzwer6WlxcTERF5e3tHRMS4u7uLFvCtXrl25cr2srLKsvLK8vKr8anX51WrwIWRXyiqvlF2HrbT0WklpRUlpBUyzqLisqLjscsk/XCksvFJQUFpQdKWguCy/sLSguKzwcnl+YemlwtKyiqrGu+0f2+27bVW19ZeKrySmpvsGAHxqmtq/jw+JRCMRKBRTRt7Ryd3H95yBoYWhEcD3fO/V7vO95y/2dl/svnwNfJhP8M/hgzUIS+/Fixe7u7s7OztbW1sbGxuzs7MdHR2tLS3T09OPHj3q7x8cG58ZG5sZBTY9Ojo9Mjo9MjI1ODQ2ODg6MDDSPzDc18fu7WU/6B3qeTDY3TNw735/Z9eDtvbultau5ubOO03tjY2tDbdb6huab9Xfrbt152Zd4426xura+srqmzfqGm/cunP1Ws2Vq1VVtbcaGls+sPo7LXW3m6/V3MwrLIlPTvfxDzS1sFbT+N/wIVBIESRKmiln7+Dq7R2op29mYGAxNj6z+/zl9u7u7t7uzvOdFy9BFQPjg10YJviH1McfqMC13s7ODjwj2NjYaG1tdXR01NPTS01NLSkpyczMLoUEVVKyr6ni4vKiojJYX4WFV/IvlRw47KXsnLys7NzMzIvpGRfS0nNS07JSUjMTk9LjE9Li4lOB/8YkRUUnRkYlRETFh4RFnwuNio5NiolPCQqOCAgKS0zJuNVw9wOra7hbe6ux/Hrthfzi2MRUL98AE3MrVQ2tT6oPBTkvwIdASknL2No5e3oF6Oqa6uubjY5Nb+/sbe3sbO/ubO1u7b14/gpafAEennLCbcXvOi88jIKjHl96PGiNjo4WFxeXlJTU1dXV1NQ03W2+391/735/172+zs4HHR09be3dbW33m1u6mls67zZ3NN3tAPq609rY2HoLRMamm3V3btxsrK1tqK2tr6m9db2ytuJa7dWKGuDy5ZVXrlwvLb1WXHI199Lli3lFhZfLi0uvXsgrOp9beLm04satOx9b1Y36kquV2bkF0fHJXj7+xmaWv48PhcKiECiksAiCLsW0tnF09/BjsYx1dU2HRybhDn1ze2tze/P53nPQjkIC/Jjg/wXfq1evXr58+eLFi+fPn8PS489ahoaGcnNzs7Ozy8rKmpqaOrvudfcM3O/u77rX29HR09p2D6bW0npv31q6WgBKYK1t91vb7sF5puF2M0B5s7Gu7k5d3Z2bdXdqb9yurW2oqb1VXXOr9kZD7c3bVbW3qmrqKqtvll+rKa+ovl59s/bm7Y+s4Vr1zeIrFZnn8yJjEz29/YxMLVTUNT+pPjQGhcaiESikkIiIJJ1hZe3g6uqjrW3I0jFmD0/wtnZ4m5u8rU3eFm/3+S6M72MX5sfB31UfP2PA+GB28KiqsrKSBC1dXV0nJ6eoqJjklIyU1MyU1MzUtKy0tOy09Jy09JzEpPSExPT4hNTY2OSo6ITIyPiIiLgI6DE8Ii4sPCY0NDo4JCo4JDIoKPxsYNjZs6H+ASG+fud8fIO8fQJ9fAO9fQM9vQPcPH3dPHzcvfy8fM6GR8bVAMH+g1XX1ldU1RaWXs3IyY2MTfDw8v2D+CQkpS0t7V1cvLS0DQA+9jg08QXseJu8nV0Q/vgC5BckH8Y+/tDlcLyD8cHpAk64a2trXC53a2treXn50aNHc3NzDx8+fPz48ZMnzx49Xnj4aH5m5snE5Nzo2DSbPTHEHhsYHO3rH37wYKjrXm9b+/3mls6mpvbm5s6mu+23G1tu3WqqrW2orLp57Xpt+dWqK2XXL5dUFBWX5V+6fPFi4fkLl7Jy8tKzLqZl5CSnZsYnpkXFJkVEJyQkp1+rrP3AKipry65V5xdfSc08HxoR4+LuqWtgLK+kQhWTIJFFsTgcv+hDo9FINEi7KAwajcXSpZimZtbOzl7q6ro6OsZD7LE1Lg/Mfbc2t3Y2t3egLAJNRkAnDBWA796945co7969A+r73/FtQovH462trS0vL8/Pzzc3N/v5+dnZ2QUHB6emphYXl1RX36yurqupuVVTe6umtr4WsoaG5oaG5nroseF2MzDw4V1g9ZDBzxvu/vbZ+ru3bjUBR77ZWAOl3evVN65X3bhefeNaFWSVtVevf8JKK6ryikpT0nNCIqKd3f4oPkk6w8TUytHJU01Nh8WC8K1DA44t3ub25tbOFkjC/xw+OGnA2XZzc3NjY2N1dZXD4ayvr7e0tLi7u5uZmXl5eUVGRubnFxQWll4qKM2/dDk3r/gC0A6oitPSslPTspJTMqDECmXV2CTgxVHAi8PCYoJDooLOhQcGhQUGhp0NDAs4G+rvH+zrF+Ttc9bLO8DL+6yXb+C++Zz18gUfhobHlFVUfWBXKqoul127eKk4KT3rXBhoeIH6FD+tPqhmhtSHwUrSGcYmlg4OHqqqLBbLaHBodHVtA/jtJo8HNm8+Gx/stjwej8vlcjichYWFZ9B68uTJysrKwsLCzMzM3NyjmdknU9OPJybmRkeB5w4OjfYPjIAqr2ew615fe0d3c0vXnab2242toKC7cbumBmTb8qvVcDdSVFxWWHjl0qWSi7lFOefzM7MupqefBz6blB6XkBodlxwRnRAWERsSHh0Tn1JSdu0Du1x2reByeXZuQXxKemBIuKOLm46+oZyi8iedF41BozAoFHjESkhKGxqZ29m5Katoa7MMBwZHOGDvl7fB2+BBAvzn1Qfn3P1tjQ3e+vr6ysrK8vLywsLC06dPORzO4uLiwsLC0tLSDJhxPpqaejQ59XBicm58YhZU0eMz7OEJNhimgyC4Xzn3saEcPXDvfl9XV29HZ097ezcUFrug4gbu+aCyGXLe61U3Kq7XlldUl5RdLy65Wni5rKC4rKjk6seWW1CScT4vJjE14FyovZMrS89QVuF38GHRaBwajcWg0BhxCSkDQzMbWxclJS0tbYP+fvYKZ319Y4PL427wNja3eJ+FD4xCeTxoO4i7vr6+fLDm5+cXFhbm5uaePHmysLAwPjE5NX3Abnx2dGx6ZHRqeGRq6KDr6OsH/UZ3z2B390AnTO2gvmm629F0tx2uYPabjRu3QckCBb7yazVlFdVlV6tKyytLyq5dvgKKwUtFVz628/lFaZkXouKS/QND7BxdWLoGsgpKn1QfBovB4DAwPjFxur6+ibW1k6KipqaWfl8/e5kD8uP6BpfL4/I2Pw/fzs4O7LZcLndtbW1pCUhvcXHxydOnc3Nzjx8/efjw0fjE5OTUzMzs46npx5NTD8cnZkdGp4dHJiHpTQyxx6H8y+55MAgVhn1d93o7ux60d3S3tILqr/FO223QroGUUnerCfh17a3KqhsgHVdUQ9SuX75yrQhIr7wAApdfWPKB5RWW5OQWpGTkRMYm+p4NtnVw/t/w4Q7jk9TTN7ayclBQUNfU1OvtYy+vrK6tc9e4638CH5yMD1ctB5sYQH1caK2urS0uQZs784sPHz+defh49tHTmYdPJqbnRiemR8dnRsZnwFYs2A8bGxgahbd1evuHe3qH4K3ujq4H7Z09re33wQy5pevO3fbbd1rrbzffarh789adG3WNtTcaqmvrr1fduFZZe/VaTdnVqpKyfXbQ7KAk79Lli/nF53MLP7bsi5eS0jJDImM9ffwtrO00tHUYsvJ4IglPIKLRYFRFIpGwWCwKhcLj8XgCHofHIZBIMlmUxdKxsrKVlZVnsfT6+weXl1dWV9e4G1zuBhdOHc+fP3/xAlR/hxsPuHbZL1z+IL6FpeWn84uPny3OPno6Pfd4+uGTqbknY9MPh8enwabEPjtoX2JwuLcfbOX09LHvPxjs6u7r6HrQ1tnT2nG/ua3rbksnmOI1tdU3ttTVN928dae2rrH2ZkN17a3K6psVlbWwz5aWVwJvLa0ovFx+qag079Ll3PziC3mFORcufWDZFy9lXshPSM0IDo929/I1t7JV12IxZORp4lDdh91fCASCP3ZGoVAIBIJCoejq6tra2srKyuro6PT39y8vL6+ursLxant7e2dn5/nz53t7e38a397e3mHnXV1dW1hcfvJs4eGT+em5x5MzDydnH0/MPh6ZnIX3/KF92LH+odFeeE8HAgfY3QfsWju6W9r2x5+Nd9shds119U1AdDdv1wDd/cbuChTsgM9eLi8sLrtUCNhdyCvKuViQc+FSZk7ex5aedTEuOT0wNNLV0weaVrGkIXxAfRgwWcZgMCgUCoPBIKEF6mckkkKhsFgsMzMzaWnpD/Ctr69vbW19AXzr0OKsri4sLj1+Oj/76MnkzMOxqZmxqblRcLJkeoA9Djts3+DIg36wkXh//yxPX+e93vbOnpb2+/yzKQ13WusbW2CHBeBq66sgcNeqbsC6u1JeWQKliMLLZZeKruQXlMAOm30hP+t8XkZ2bnrm+Y8tJT07Oj4l4Fy4s7uXibmVmqa2NFOOKiaBxeHBVJ5AgGelsP8ikUj4QyqVqq2tbWhoSKfTdXR0+vr6lpaWOBwOFxyd+Gx829vbPB4oWdbX1zmc1fmFpUdPnk3NPhqbnBkZnxqZmBkenxkcmegbGukbBDvWPX0Hh6CgnTAQ6Tq6AbuW/d0y4K0Nd/dFd6OhqvbW9eqb16puXL0OOezVqtKy67C3FhRfyS8shScuORcLss7nZ2RfTM+8kJaRk5Ke9bElpmaExyT4BoY4unrC4xYppixNXBJPIJJIJAKBACOD5/X7Y2ckkkajgXLZyEhSUpLFYvHxwS95c3Pzs9QHb6qtQWuFw5lfAEljYnpuZHyKPTrBHptkj072s8fALjW0AwtE190PFAdliX1vbelsvNvWwAcHbVkA0dXUAcVB4GBvLSkDdcm+tx6I7jd2GedT07OT07KSUjI+sMSUjNjEtNDIWC//IHtnd2heoEVnyIpSaBgcHmYnJCREJpNp0BIVFcXj8SgUikqlamlp6evri4uLs1is3t7excXFlZWV9fX1tbW1z8IHb4RvbGzw8T2bX5x79GRscoY9OjE0PDY0MjE4DKTX3QftVQOH7e+8D9hBWaL7bmtXU0sHvEt763YzSK8wO6C7uuuw6OCyDsqwv2WJAihL5IIsAekuNx2wy0lOy0xKyUhITv/YouNTgsOjvXwD7ZzcDE3MVdQ16QxZqpgEnkDE4XCnTp06ceIEjUaTlpZmMpmSkpIkEomPz8DA4LPwwSODt2/fwiPSD3Y2uFzu6urq0vIyrD6Ab2S8f2gY+OzQSM8A+37vIHxqsfNeb9tBpGtq6YQO4rU13Pkt0tVCDltZs++wZRXAW0GkK60oulxeAGUJKL0Wnb9YkA0cNjc960JaxvkUSHQJyenxSWmx8SkfWExCSmRsYmBopIdPgI2Di76RqaKKuoQUU4ohgycQ8QQCHo8/c+YMCoUiEoEvYzAYUL7g8aKiohoaGrq6unAKHhgYWFxc5HA48GwJVt/u7i5cu/Cnfp+euHyADx5V8bvdxSVwUu/Rk2djk9OD7NHeAXCy5MEAu7tv6N6Dgc77fR3AZ0FZd5Al2hqb2uA9xpv1TQfptR4KdrUV12vLoKoYbiRgdnCwuwCJLvt8fibIEhC79Oyk1MyEpPT4xLTYhNTo2KQPLCouKTw6/mxIhJuXn7W9k56hiaKKmjidQSJTxCUkhYWFjx8/LiIigkKh0Gi0iIjIyZMnBQQEhISESCQSi8UyNjam0Wh6enqDg4MwPrh22dra2t4GM6vD+MAG8MH6h4HVH8H38PHT4bHJ/qHhnr5B4LN9Q/d6Bzu7welP4LDQAVBYdPsl8e1mwK7uIMPW1FVAJTHcUUDtBFSaFO0nCphdVg6cYS+kpuekwOyS0+MSUmPikqPjkiOjEz6wiJiE0MhYv6BQV08fK1tHXQNjBWVVcTpDlCqGweLU1NTMzMxMTEz09fVNTEysrKwcHBzMzc0pFAoej1dUVFRXVyeRSP8OfHOPnrBHxnsH2Pcf9N970N/1YKCju68NLusO2ME1HQh29U0g2EHsKg8SRVlFFShNyuAMC5UmhSVwhoXZZebAU9LzKenZyamZiSkZsMNGxSZFxiRGRMWHRsR+bEFhUd7+55zcvCys7Vl6hvJKqmKS0iSSqLiEZExMbGVlZWpqqqWl5blz57Kzs2tqasrLy3V1deGQp6urS6VS/x34Zh8+HmSP9vQNdN5/0HG/F7C796ClAzhsE8iw4CzPrdvgLA8AB+rh+mqoOoFqOtD8l1wBnX9RSTkoTQpKcvOLL+aBSPdblsj8LcMmJKXHJQLRRcUkhkfFh0XGhoTHnAuN+tj8g8I8fQLsnd1NLW1ZugZyiipiklJiEvQzAoJp6elxcXEEAuH48eNHjx41NTXNz8+vqKhQU1PD4XDq6uoaGhpkMvnfgW/m4aO+Qfa9nr72ru42YA9aOrrvtsHHtdv22QHFgV4C1MM1N+EMC0e6g7kT1IQVlABwcHrNyQORDozmz6ekZyWlZiQmQ5EuPgV4K8QuNCI2OCzqXEhkYEj2kRAAACAASURBVHDERxbuExDs5uVr6+hqbG6traMnq6BMk5AiiVKFhEVSUlLi4uJkZGQoFIqwsDCTyQwMDCwrKzMwMMDhcMrKylpaWv8m9c3MPeodYHd197Z23GvpuN/S2X23/d6dlo7Gu7+XJUBl91uWKK0AZV3RlTxQ1u2nVyjSwSUxcFiQJeAMm5ASfchhg8Oig0IiA8+FBwSFfWxe/kEuHj7WDi5GZpZarH18ZArt5KnT8fHxCQkJysrKDAbj9OnTx44dExUVdXNzU1NTg51XQ0Pj3xT7ZuYe9fQNtHXeb2nvAqJr6Wxs6Whoaqu/3VwHDU5qb96urq2vhLYWr16vKb8GjgZAkQ6aOBWX5ReAwUku5LBwes3IugiVddkpqVlJB6IDWSImMTIqPjwyLjQ8Jjg0Kig4IjAoLCAQ7Mb5B4T4BQTvm3+wn3+wt2+Qi5u3lY2zgZGZhpaWjJwMTYJKJOPRWFRsfHxicrI2i6WirogjIn46+t3RX7/XZmnIycsymUxLSyttLW0MGqWvzxoc6l1emV/hLK+ur69zNze3dra3d75k5p2Ze3T/Qd/d1o7mts47LR31Ta0NTa23GqGSGHJYfud/9XrtlasgS0CR7irchOXBwS734IhQVm56xoX09POpadnJKZnwWYNYCFxUdEJEZHx4eGxYWEwI2BKJgDZDQvwDgn39zgHzDfLxDfLxCQRbmj6BPt5Brs7eVhZO+npG6uqqTFlJqgSRKIpG45Ex8YmxCYkq6qoMeUlB1NGjJ/+uoCIZGRPC0mURCCQ1VXUtDU0cFmVooD3E7l5ZfbbMWVzlcte4O7zNvS+Mb3r2YVd3b1NL+93Wjtt32241ttTfabnZAEoTeFoHSuKDiVMJXBKXXIVP+uTCE6fc/Y2krOzcjP1zGtnwdlJCQlpsXAosuojIuLDw2NCw6JCQqHPBEYGBYUBxABzYAobsLNhL8gqAzN/Ly8/Zyd3C3EZX10BNTY0pI0UTI5NIRGERZEx0cnBwNIOhhCeSzwidUdVQzshKu15ZaaBvKk6VUVbQkpdRRSPRBgY6g+yeQ/i2eFu7Xxjf1OzDjnvdt5taGu+21t9pudHQBLFrrIbOAlyvvgl62IpqqIcFuxNFYFR3EOlyC3MuFmTn5Gdl54HNoIzzaWnZKSmZyckZCYnwAZd9duEQuGAIXNC58LNnQ/38g8GuuQ/g5enlB5uHp5+Hp6+7h6+7h7eHh5e9g4OpqamOjq6qijqDIU2jUcXFpIQEMPEx6VERKQy62vFfRVBIgp2tQ8nl0uLCMmUFFhnPUJHXU1PSx2FIBgb6g0O9K6vzy5zFNe762sYm74s779TMXGvHvfrGuw13mutuQ6K71Vh9ox4eN8GHoErKrl8urSguuVoAFcMgS0CRLgtqJDIyL2RkXkhPz4EiXQZ0DCHtkMPub2CeOxcRCB09CIDOHUDg/D09/dw9fN3cvWFzdfOCzcXV09nVxdrWytBYV5ulraykzpBmUqlieDRV+Aw+JSmjsuJGctx5X8+w+Kj0okslN2tvll+uNNG3I6ClpcU15KRZIkIEA32jwaGBldXFZc7SGnd9fYO3CZqOLxr7Jqdnm9s66hoa6xru1N66XXWjvvpmw/Wam2DidNCEFZXsNxKgGM4vPlwMp0PgYNGBLJGQFheXEhObFBWVEBEZB0QXGn0uOJIPzs8f9tazXl7+Hh6+bm7eLq5eLi5ezi6ezs7AnJw9nJw8HJ3d7R2dLKzN9Iy0NLU0lRQ1pKUYNApNjMwkYigGetq2VhYmuqY6anosVV2WupqyvLQiU5ZGkiSiJVQVDNSUjESEiPr6JoNDQyury8ucZYCP+y/ANzE109TSfuNWw4362zU3G67X1lXW3rpWfQPuJfhZAsyHC0ouHCrr4Jpu/0Tax1kCPvISFh0MsQP75QHBfv7nDhz2gJ2Ll5OzJ+Dl5O7o6O7g6ObgAMze0c3G3tnEwlTHUE1dU11RXkuazqCJUohoCkYYJXD6v5BC3wmf/AktcAIjcFLo5N+Ez/w3WvgXPEqEhCXJMlSUFXQQIgDfwBB7hcNZ5nDW1je465tbm18u8y5B7xmdmJppvNtae7O+9iaYEl+tqq2ovlF+veaTWQJEuguXDo6qQE1YWlZSMnzoYN9h+ScOQkKjDtiFANGBU0JAdLDDuroCxTk6eTg4uts7uNrZw+ZiZw/M1s7VysbNyNyMZaCkpqGmIKtNl6RTyQQKnkJEC4iL/VVe9gd56RNKDCFNeZyG0mllhV9UFYWo5OOiJBFZprSsjKKgENLAyGSAzV5a4YC9ynXexvr2Ju/zUge8Rw6NmjlLy8sLi0vjUzMNd5qram9W1d6sqKotrai6UlF9uexacSnIEvB+GJg45Raev1gAdiSgqQk0qgNjzkSo848FDgvOXIH0GhYDwIVEgmAHpVcot4JDGp6efm7u3q6QtzoBcG6Amp2LtY3TR+ZiaeVpYGKupS+voqYqy9CWFBcTJSHJODwW8X1UtHRennb+edO8TMu8dNvL+eapSYrnc0yNDLBk0s9S0nhpGckzQmeMTE0Gh4cXlldWONz1ta2Ntd3Njd2dz4l9n8A3OX3rdtP16trrNZDoyq+XlF8vKgWbYfzqBOzpQGPO9KyLkM/mpKRlJaZk7E+coPOj0dGJEZHxYeGA3bngiKCgcFASnwWlibdPIJRe/d09fOBI5+QM2Nnbu9raOdvYOllZOXxgllbOZhaeesZmGnpMJVUVWWmWpBiNQhIRI5LQQv99pVz7+nVNL1cBZ6szjuaCWSly5zNly0otrS2xFMr30gyMFJN2WuiUoZnJwDB7YXkZHDRY422sbW/ydr4wvrGJqRu3bldUVldU1pRerSwqvVpUWnEJOsANl8Tncwuzoc2wjOzctIMRMRBdIhhzgub/4KBfKDgiFAkfEQo4C+phPjsPT183d8DOyRmEOQcHNzs7FxtbZ2trRysrB3MLuw/MzMLJ2NSDZWiiqiupqKIkI6UrSaNRSMISJBJK4OuqGtW8PJKC9LfyEt+qSv3F1+14Ya5Mz71AJwccHv8fsvJYGXmJk4InDMxMBkbY8ytLKxwOd31jYx2ckvzC+EbHJ2tu3CqrqLxScb34SkV+8ZVLxWW5BZcv5heBDAv2dPJAEwaNOcG+RCqYrcclpsXEg6lJJHTSJxRyWLgYhsH5+oH+wcv7rKcXEJ2r20Gkc4BEZ+tsbeNkaeVgYWlnbmFramb9gZmY2esbu2rp6ynrUOSU5JmS+hI0cQoRSUEScQL/WVmpeO0q3dXmiJnWX2WI3zBI3zhYHLlSYGpmiMBj/qagQFFUljsjLGRgZgbhW1hZXeJyV3jc1U3exs7njEs/dt6RsYnKmhuXr1y9fOVqwWUIXMHlC/lgBxaI7iDSpaRnJR+eD8clRUYnhENv1QgBJ0qB6OBiGEoR+94KiQ6UJkB0ju4H3upsZe0IgzMztzExtTY2sfzAjExsWQYO6rraCiy8jKIsQ9JAgkqnEjGSOAlJwq9Xy2UqrkhGBiB9bYX1ZL6TIX0jTfrG24lkzMJIiJ6mUXBkUerx04L6Zhb9QH3zK2vPuBvzvI2FTd7qF8Y3PDp+raq2qKSsqKQsv6jkQn7R+fyibGgjkc8O3gyDs0QMPHGC2IWEx4CT8sERfHY+vkBxINKBetjHzR1i5+QBvBWKdNY2TlbWDhaW9rDoTEysjIwtDY3MPzB9IyttPWsVHTU5FoqpwJAWN5CgSNEIeIqQuAT2VE2V2vUrMgFOgvasE1piRyQQ38iJfhvurWzKoooRRaQkJOlSSqcEMfqm1gAf5+nK+mPuxmMe7+Hm5hI4ZP9FhvXLyysLi0vDo+MVlTUFl0sLikvzCi+fzyvMySuEdq8vZGSdT8vITknPTEpJT0hOi09KjYlLio5NjIpJCI+KDQ2PDg6NBO9SDgo9GxjiH3DO1y/Q2yfAC3RgoOtydfdycfV0cnZ3cHS1s3e2tXOytnGwtLKzsLQ1t7AxNbMyNrEwMjY3NDLTNzD5wHQNTTX1jVRYSorqeKa8lCRdS4IiQ8OKUVAyJMGjNy6r1hbIuun/ZCZ/RI30rYncf2ZHUAdag9xsKATEcYYkQ0JS5dgJEUMzq6HhcZB51+bXNp5xec94mxz4fO7n7nWAY7krK4tLy8Oj4+XXqvIKinMvFV28VAzYXbwE9vwzstLSM1LSwDsBE5KS4+ITY+MTIqNjI6NjwiOiQsMizoWEBZ0LCQwK9g8I9PM/6+MX4OXj6+nl7e7h5eru6eLm7uzi5uTs6uDobOfgaGNnb21rZ2FlbWpuYWJqbmxiZmhkom9orKdvqKtvoKOr/4Gx9HVV9dVVNGXV5GkyspJUJlOMLE9DK6AEpfGnf27L06pPldYh/kWL+K2exF+yAk6xbysPd+nam30nRjjGkGTQaEpHfxUwt7YaHX28OL+9vLq2vL6yvsXjbvK+MD726PiVq9cv5hdezC88n1eYffFSxvm81Izs1PSM1LT05JS0xKSU+ITEmLj46Ji4iMjoiMjo0PCI4FDA7mzQuYDAIF//AB9ff28fPy8vb3dPL1d3D2dXNycXV0dnFwcnZzt7R1s7B2sbOytrW3MLq312xib6hkaAnR5gx9LR+8C0dfVVdfRVVDU1mPJMhiyFIUsjy1PRciKCokThv7cXyLfn05M9BCKdT6QHYxouSY7d1ZzuM7Y2+m+cyBGGJJMmpnT019MW1mZjow+X5rdXOOsra5z1za2Nzc0v0/Py1cceGSspqzifm59zMT/7Yn4G2Na5kJSWkZySlpS8r7uY2Pio6NjIqJiw8MjQsIjgkNDAc8EBgUH+AWd9/QO8fXy9vH32dQdEB4GDRGdr72Bja29lbWthaQ3YmZkbGZtCujM6AKerzdL52DRZhqpaNqqKphp0LaaUiqi0ApUkK4qmY7AkpMBXLUW0R20akx3mQy3G7C6z6U6Lvhsag20GDuY/krC/MugyJLLML8eOW1gbjY/OLM/zOOAdoasb4B3dW18a3/BoUUlZZs7FzJyL6dkX0zLPp6TnxCenxScmxyUkxsYlRMfERkRFh0dEhYVHBoeEnQsGDhtwFojO29fPy8fXw8vL3cPLzd3T2dXN0dnF3tGJ761W1raWVjbmFpamZuYmpoAdLDodPX2WDgCnpc3S1GJpaGl/YOpaLBVtPWVlNTWGNIMhTmJSREVFSVgijkQg4r5tKpKYbtbtqDapu6JbU6LTVW1clSXVcE3d1uyoKOEMU1qOTGEePXHMwkZvfHRiZZ4LbtbD4YCz4V8c3xB7JL/wcnpmTnpmTlpmTlJ6VmJqZkxCcmx8QkxsHIh0kVGh4REhoWHnQkJhb/UPCPQ9iHQeXgCci5u7k4sr7KogzNnYWVrbWFgBxZmaWxibmhmZHBadHoulq8UC1NQ1tdQ0NNU1tT4wNU0tZW1NZRU5NQZFWoZAlEGTKGgiDimMFUSivm4tl63NEVWlfask/q0a8y9pQZTyNLm2m+Y2ZqfQIr9KSjBFaYxfjv9oYcuaGB1ZnQfvOuaucLY2dqDQ9yUGVnznHWQP514qSk3PSk3PSk7PSkjJiEtOj4pLjIo5YAd5a1BwSOA5fpbw52cJWHSAnaOznb2Dta2d1QE4M3NLE7P9LGFgaKxvABx2X3QQOzV1TVU1jU+aipq2srqRsryWKp0hJU0lMgkkCpaAQyJIwkjs1/XF4lU5RBP1/9RS+A+m2LduRscKYuW7bjs722FxaEE6XU5cSv7oyR8sbTUnx9ir8ysby8sbK5xt7s7WxvZndR3wuxLgg81w5h0YYl/ML0xJz0hOz0hKy4xLTo9NSouIiY+IiomIjAYOGxoG2AUFnw085+d/1tfPH/isl48HlCVc3TwcnV0cnVxgh7WysQWiswSig7OEkbGpgaGRngHIEixdPb7DqmtoqappqKiqq6iqf0xQRY2lrGamLKerKiEnRZcgSJOIZDwOixImCJ8481V7lWJTmYybxS8mrCOiuK+Jx782lf/P5AgxA50TaKSgKIVOk5Q9dvJ7K1v1ybGhNYBvibfC2V7f3dr4Yz3vJw/nwm8ch8+48NU3MMS+kFeQmJIel5gCDubEJUXGJYVFxoaGR4aEhQeHhMFZwi/grJ9/gJc3yBL7DusKHNbRyQXOD9Y2tpbWNjA4UzMLuDQxgEoTfqTT1GKpawBvVVXTUFZVU1JWVVRS+c2UVZSUVZWUVZVVVJVUNGUUdGSkVBWokhLiFLwUkSRKxGNxZLo4mXqksVSh9aqGvyPG2RzNUvpFBvuNAu4bN6tjNuZIHEZElEIXpUkfPXHE1lF7cnSIu7i6sby0tbbO42zt8J7v7oADLv/M4dzfw3c+91J8cmpsQnJUXFJEbGJETEJIRDTMLig45GzQOTjYefv6eXp5wxkWDnaOTi4Ojk42tvYwOwtL632HNTUzhEsTIDr9fdGxWBqa2mrqwFtVVNWVVFQVlVUUlJQVFJWAKSkrwgYgqigoqzIVVZgMhjyNJC6Bx0lhiWQCAUMkiUliMH9vuKTSfJnlY0W0ZqHlKEcUCN96Gv6UlybjYI3EogQoFDpJVPLnX4/YOupMjrK5i2vc5eWt9XXe6uaXx9c/yM46nwvYxSZExMSHRsWFRcWdC4sMCgbVCXDYgLM+fiDYeXn7uHt6uXlAieKgHra1c7CytoHSqxVgB2cJiJ2uvgGkO+CwIL1qaqtpaKqoqQPdqagqKinLKyrJKSjCJq+gJK8ITEFRWUFJWV5ZgaFCZ8iS5CRExOjCOGkEkYwjoEkIjKiIwN+bC/XqsrQtFM9oSpyQIfzgrn+qsZg12uNlb3kGjzopRZchkCR++OWIjaP+xOjo+iKXu7yyuc7dWONtb+5+YfX1DQylZ52PjI0HfVhkTHB4dHB49NngMKisC9yvTryAw7p7erm4ufOrk4NiGDismbnlvsMeiA4GBzKsNpRhNTRV1Q8cFhKdvIKSrLyCrJyCjJy8rJyCrLyCnLwCH6WsorK0oqq0tKwclSYmJoqTJJOIFCJSVARFQAn9patMtS6LZqXyX/py/2Gq/l/FiRKDt0yGOqysjX8SJZymkMWwOPFffj1q42A8PjqxushbW1nlgbPNvK2tXXB3sy/ovL39g6npWWGRMSHhUUGhkYEhEWdDIvwCg339z/r4+nt5gz7MzcPT1d3DxdUd8tb9JuxwMQyLzsDIGKQIWHRQaaKpzdLQ1FJV1wCiU1ED3qqoLK+gJCevCMDJyjFkZBlMWaasnAwweYBSHqCUkVOTljOUlmDJkZTEKLJ4GoOEpxNFqAgERujkV/fKJcYaGDfyRWuLqfXXpHrr1CZbDcd7zCz0/0dOCq3HMmAwNY+dOGVjbz42OsNZ3OasgPd1rIKtIujmcF8Q34O+gaTU9JDwyKDQ8LPB4f7nwvyDwrz9A0F6hbOEh6cLnCWcQXqFE4XVQZYwMTMHNZ2xyT47UA+Dsg6Ag8q6fdEBb1WBvRWiI8+UlZNmykgxmNIMJoAoI8uUkYM4AogMOSW6vCZdSklGVIpGlcCJiZPwYkQRMg6PR5356n45daFLae6+3ki7JrtdbbxVo6WU2n1bycnyiBwdoSyvLC6ucuz4GWt767GRhyuLuyuc9TUel7OxwYN6ji+pvp7e/sTktODQ8MDg0ICgEL/AYL/AYC/fgEN9mMd+H+bkbGsHNWFQdQJFOnOQYY1N+GWdjq4eCzRhINKBJKuuCbIElGEh3SnKAWUBdgymrDSDKSXNkJJmSDNlGJAxAUTAkSGnQFdQkZKWkaFQaTQKTlyUiBclIog4ApaE/fr+VfGhGrG6fGpO1OmcOIHmMumSROGmallr4+9wIj+Q8GQsjv7Dz8es7S3HRmdXlnZWOKtrvPWVz8cHj0vhug9+O2VvX19CYlJwcMjZwCA//4CAs4Fe3j4gSxw4rJOzq72jk629g62dg6UV6CXMLEA9DAo6I2N9QyNdXX0dSHHa2ixNTW11dU11dU1VVXVlZVUlJRVFRWUFBSV54K3yTBlZaQZDGlpSUtJShxd8lcFgQoshIyfJVJSgScmSqBQyCStOwuEJeBQOgUf+8ONXrRWyRXFI1I9fURBfy1K/jfSiVuTotDY4OdnjSXgUgSCGwlKO/PQ3O2fdycnhlcWVVXDKgLPO29rc/rzY9wl8vb0JCQnnzp07e/asr6+vv7+/F7RAsAP9vxtoxRwcoerEDnT+UEl8MHECUxOYHUtbR0uLpaGhpa6uqaaqoaKipqwE8AF2copysvKyMvJMpswBu31y9IMFf8yAFpPJZDBl6QwFSSpdlkShkPbx4dA4BBFzRuirlgqlxssqtjonWfInxQlH9OSOxfszm+q8bCxJaPDGIiaBJH7kp/+yd9aemhziLC6ucebXuSvcfwW+Bw8exMbGBgYG+vn5eXt7+/j4eHh4uLt77E/roInT/tQE0h3UTuyXdSBL6OoDb9VmwezU1DRUVdVVVNSA7hSUFOQV5eUUZGXlZWTkmExZBoPJF9wBN7qkpCT/uZSUFEyQwZShgzNV4rIkUYBPTBSHI+GRRCEMCoP5pqGIcbtALtABb60joiT5Ex35jRLp2xBvjJHuGRIOQ8SLozCiR374q4OT7vTEMGdheY2zAOHb/PLq6+npiYoC96L18fHx9PT08vJydXV1AT0sGJxA1QnUh1nAZR2UKKAMe6iX0D4Q3QE42GHlFOR+AycjLc2UlpLmk5L8aMGfkpKSkpaWlmIwJJjS4jSqDIkkSiJhaRQchowXIYmKiVPJ37VdkW8ukg11QrsYC2kyvpPDfqNJ+TbSV9hc/ziNgKaS6Hic+I8/HHF0NJweH19dWF3lLK0D5+VtgncEfkbh8rHzdnd3h4eHe3t7e3p6urm5ubu7Ozk5OTo62dqB+fB+H2ZmsV8PG4EsoWdgCNhBNZ2mFgh2sOiU4Uh3oDhZGTkgOgYAJ0Vn0OnSdLoUnQ7kJikpKfHRgq/T6XQpKSk6Q0pMRpJGIzNJRICPSsOhqXhhCp5IwYh83VWu0FbE8Db+2VrziAL5WxOZ/8gIEO64oW9r+Av61M80ggQJK/XDke8dHUxnxqY48xurnJW1Dc765sYmGBj8s++o3N3d/Rjf/fv3Q0NDvby83N3dnZ2dXV1d7e3t7cDQCR7VQTNOaNwEpddDZR2o6bTVNUCWUFFWA+zgFAEpToYpC3mrjLQUk06XlpSUkpCgS0j8Rk1cXFzs0BIXF5eQkOATlJSWFGOK0WgkBolAJhKxFBoORcML0pBIAkbw665SmdpUrJ7YX1RI38rivolzO9F1VXXyvo2Tyc9EwaNUDJWIlPz5yM9O9hYzo7Or8zwI38raJpe3s/Xl8QUHB3t4eLi6ujo5OTk7O9va2trY/jY4+S1LwCWxLph0wtM6NQ1NNXUN0OEf6I7vrUyGDAPWnRQDZicuLikhvo/vA3YwRj5BOp0uISUhJkOj0QgMEh7CJ4ZHihEExdBIEgn5l44i+p1sgo/+/3gbHQlzOn3rAmPqrsFYh7GDwRFx9EkKUhQvLH7s+1+d7axnRh+uzm+ucjhrGytrW/8CfN3d3cHBwZDDOtrZ2dnb21tbW1vCEyeoJAb1sL4htCMBOjC4HgYFHdRIKCmrKkApQg5KEfuKk4YUJyElKUGXEJcUF5cUE5OADCgOfhPf4UcKhUKj0cTFxWGnFhcXp4pTRaVEyaJYKQKWRCBiKeIElARJSFxECIs58/W9EumHd7T7qo17a20GG12mmq2GbmjM9lja6P6dIvKrBE6ciJD85cjRfxO+c+fO2UPLxsbG1tbWysrK3OK3YKdvYARnCdBLHO784SZMSVlOTgFmB0c6BkgRvynuEDsJGk2M+qnFxychISEuLk6j0URpFDJdlEzG0fFYEp6AFRXDo8RJwmJYDFHk5FedJfT5DoPxJseRu24Pbjn21xrVZJBbK5UsWX8jCx8jCBHwIuK//virk53VzOjcv9x5z549awstKysra2trCwsLUzMzI6gP47ODx5xQI3HQwEJNGOj8ZeVBacKEsoQUQwqkCGkJCbo4X3c0CRpNHBiV9jE9CgXsY1CpVDExMQkJCVieZCqFLEkjk4l0HJ6EJ2AoVDyaQhAhnzojgDjz1UCt0mCNQpo/ItRFwN/+9LV0masp1DsVatZ6P1JQp8loKlaY9tP3PzrZm82MzaweSh1fPvbdu3fPz8/PClpmZmbm5uYmJibG/zA4gaYmmmBfAjgsNOZUUFSWU4DbfnkmUxZEOmmmlBRIr8BhJejAVWnAaFRxyMSoFDEKhUr5aImKipLJZL4AxcSAQkWpVLKEBJlEpmPBzR/QFFEsmoQXIQggBBFCX7eXS11JEFImfyuF/UaG9E2w/ZmyFOZgq5OzpSABcUaMRMehxb4/8p2jg9H0+MTqwvoqZxnqOnhQ5v2ihUtXV5e3t7c5tIyNjU1MTAwNDfUNDPhjTk1tMCKGpyaKymA4DM+aDuYlUF0Cg4PSK+ytkNbEaFQxKoUGG0WUKioKhPbBIpPJJBIJFiAcECkUClmUKkqTEiVQ6RgSEYdHUUgYDB6LwKDAe8i/7qqSbbos4WJ0xFjjO3mJb7Xpf/E0PlZyXt3eEo1DCOHQFDSG8uPP3zk46U9PjKwurKxxFte5HC7vX1A2d3Z2enp6mkDL0NDQyMhIX19fV1cX3tPZZwfP1lVUwawJEt3+vESaSZeGCjpJkCX2wQFkYtQDcBQKDQJHFRWlkslAaB8s+MZ3sABh1wZ7kmSqKJVJxovR0QAfkkIA9xlGIoniOCzx69br0s3ljAAnQUczQWXmd3T0N/KEbzzsBYz1hUk4HBpFFkLgv//prw7OrKlJNmdx6aDr+Bf0vJ2dne7u7kbQ0oeWjo4ONDUBm7AaWtoHUxMwWIeHcdC8REZKmkmXYkjSpSQPs6OJUyFegBpkokB0MDsKmSwKw/rkI4VCoVKBd0N6pJIpMmS8uCSaeL43zQAAIABJREFURMDhkKIEcI9DpDDoQmjfNJSJ1xVL+jgIWhsJMsX/TkN+baFxLD1RzdKcKCgggESShVHEIz/9p72L1tTUwMrS/Orqs4Oe9/kX7jo6OjpcXV2Bw+rr6+np6UBLW1tbQ1NTXV1DTU1dBRqsKygoyisogGkSUwYaNIEWQlKSLi4hKSYmTqOJQVmVBuUBgOmQQWojkUn79iE6IrRg/4UDI4lEIpJIBKooloQmkQSxeAyWKIZF43EIBBYphBf55s511o1iFVvWj8ZKR+WJ/+1ocORqrtS9u462ZoKI038jE3EoFP677/9m52w2McVeXnnK4TzjrnN43K3PHdZ/3HV0dHQ4OzsbGBjo6urq6emxoKWpqammpqaqqqqioqKkpKSgoCAvLy8nJwf389LSoHXl12g0Gsin8CuH88CHhH7nYxgckUgkEAgkEgn2X+C5JBKBRMTRiAiyEIryKwqPJWBl8CgSAYEgCggST/+locr8fKI4A/ONhMDXcohvYn1/bb/F7Gu1tTM6gRX4VhQnhBLBHPn+R1snh7Hp4cXVxyucZ9w1zuba5g7v8/Y6PsbX3t7u5OQEg9PR0dHS0mKxWOrq6jA7ZWVlRUVFeXl5WWjxx00wO7hb+Ex2h/Hx6ROIongyE0mgokgYFJZGwCjikCQ88gxW4Afkqa9qq1VrKxlJEWeyE0iV+er3bpuNPfC4d8ffwZRMQhwlojFIBOn7H48d4Hu0wnnCXVveXOftbO581lbRx/ja2tocHBx0dHS0oaWurq6pqamqqqqsrMzXnawseKcikwnGTXzdwQUazA5OpnAOhaXGV9YHTz74LAFaeDyeSCSSyeRD+Mh4Eh2JJ6OIGBRGFI+RwyKJWKQASuAHEvbr4mKltjbTxjrDa5dZ51MUkiOkogLoHjaSDMoZrKAwHiUqJET+7vtjtk6OY9PsxdWHK6uPuWtLW+sbO2Bi9UULl9bWVhsbGxDsNDQ0NTVVVFTU1dWVlJQUFRUVFBTk5ORgdgxoSgy39Pzils+ODK3DaGAuHzzCd72AgfI/hYcW/Cn+HwBPwuCpwijSryjSzyicMA5HQyNxaAQSK4JECf5IJn2DFvn61E9fCf3yFeLoX5G/foU88RX69A/I0wI4ESoeLS0gQP2f7yB8M+zF1Tk+vl3evwCflZWVhoaGGrSUlJRUVFQUDoIdzA4M4CDdwU0VXNnC3QKsF/7Lhj2Rj+bjJ59kB99UCQ5/IG8QiXgSGk8RQJGOoknHUDgRHI6GQpKQIgSkEJ6EwxPxR0n4X/GIUyQEhiBIQJ0+hRM+iUdg8CgKDiWFQUsjUBJHfjxu62Q/Ns1eWn3I4TzZWFveWuPtgnvnflH1tbS0WFhYqKurq6ioqKqqKioqKisrw6I7zA7WnTg0ZYJzxQfg4JcN84IF9fEjgUA4zJf/BXx8fP3iiVgiGYnGC6JxIig0AYehIxFiIkIUDFJMWBCHQAghRIRRwli0kChaUBwpRMShSSiEKBIhhkRJIdCSAgjS/3z/o62zzdg0e5nziMN5urHK2V7b2v3iqaO1tdXCwgKOdEpKSvLy8goKCvxgB+uOn2ThshbWHV9xnwSH+9Ti8zr8BIfDYbFYPB4Ps4N/Gg6PxRMwGCwGjSGiUGQ0moZAkEQQeDQGI4Q8gyYICKOPC6OOi6BOCSFOCyOEEUiMkAgWgSKhcFQklnRaBPG3H/7u4GYzPj20uPKIs7LAW+Nure1+7iGNT6YOCwsLBWjB1clh0fETBay7T6YIAnRPH5gIHxr2Ty44e/D/EjBTDIaIRtHQKAoSRUIgseC/g8EcO4M6Ioj9SRD3vSDu7yKkI4L4v4vgTgijRAQQwkIopAgWhcAhhTACP/z6d2cP6/HpoYWlR5yVZd7a5tba3g5v7ws7b1tbm7m5udzBkoEWg8E4nGThIRKNRjucIvgvlS+lf5odfAslfmLB4/E4PBJLOInBC2AwODQGjcSIIFDgf9NBE86cFjkmIIJBYElCaLQQGiGMEUFghYTRpwWQJ4XQp0VwAki8gDDm5I/H/ubsYTMxzV5YfMpZ5vDWtjbXn29/5gmrj9XX2tpqamoKU5ORkWFA62N2cJLl+9cXZIfFYjHQ7Qzh4pkIaRmLE8ESjwKCGCwag0RiBCF8SDRB8MSZkydP0ISFZBEIKQRSQlCYJIIWEcEcF0QeE0YfR+BOonCnEegTPx/9u4u73eTU6OLiPGeZs7HO43G3t8D957506jAyMoKpwaKTkpKCgx1/eMlPsnx8cAYAMjm0+P6K+ZMLDW6XjuUnFshz0YAghoBFSKORVCQKi0ASEAg8Eit08rTAqWNSSEFlqqiGlJQmiUxHY9FI1ClhxHEE6iQacwaDEUQhBX755Xs3V+epiYnFBXADOnDvXB53c4v3z9+/75NbRS0tLQYGBlIHCw524tA6XKDw3ZZfecDcsFgs/wmM70+iw6ChBWcP+K8C4cNgcSgsWhQjIo9GiqOAAnEIJAaNP3lG6MSZ45JIQRkaRY4hLUciETBoBAohhBA+g0IIYlHCOBTw9WM/HXV39pgan1lcWFpZWVrnrXA3l3nb3C+8VdTc3Kyvr08/WBLQgruxwwUKrDs+O1h3MC/o1cJPgRtioP/ACobyxx9hfHAWAu6MRWLwghgsHoNkoNEkFOY0Ei2ARJ8Uwf738dP/cfIYSvAUDokQwGCPCyO/QyPPYIQxSEEERhiFR2AICDxWCPfrD6c8nXynxx4uLiwvcxbXeYvrW095O5wvj09XV5e/1Q9nWP7sCC7u4EgHqlloHZbbx1r748gOfyXsvHDZCG7rikVhcCIYLBaNoqDROBRaAIkSRKJOCyKOnBH6XvAMQkQIjUIJIpC/ItFHMShhtAgaKYREC6OwCAwWgcWIYH/96aSHi/f0xNzS4vIKZ2l9Y5m7ucTbXv/C+O7evaujowPjk5SUFBMTo4BTJWD+wa/s+LXux7D+rNbgO+7B4A7/NLhyPuS8/yBkJBKJgJagkCAGgxYUFBQQEIDu3CeMRCJh5cO/CfhKEYSwsPDRo0c9PTynp6eXl5bh/9aAu8H9rJtv/l7sg+/0CbsqlUql0cDY7nCW4CeKwy+Y//z/q+5aY6M6z/T+zCbYcz9nzv1+zlw84xuYOIBJaK4F0zTNppe0StLtNtqG4oam6VZbtCJaRUI0VX40qhqqqlWLVFBIq1YC4tvYnvH9fr9fxmNjA8ZcQ//uzvfE384akrAY0PaNNLHGM3j8+Hnf53nf7zvnyyXR5369Qfhwg1JN0+gRgdZaAF/TNA0SDMN873vfGxgYwJ1zs/dgOntv4Hv22WdLSkow8EDaYuhGc7agoAAJSyHL/eJzIct9wQbhsyxL0zSQURRFCpZhGLqua5qmrx2+GAwG7wd8p06d2rt3L/DCek1hYSEkguYsLXa5QNzZ1xuELxQKmaapqirP86IoPkLCMAxJklRVBSVBR5Zl7xN8lZWVIFpRURHSFpWIFvLc4nJnqNF3bRC+aDQaCoU4jmNZ1nGcZ5555pFHHsENnEtKSioqKjBn27Fjh67r9wO+06dP7927NxaLhUKhgoICSG32HvrE/VNTgmy1bxUUmtv5YoPwGYYRCoVEEqZpbt2avQ2sqqq4hS798KZp3qfad+bMmWeffTYajaL04iSCeDyOhAV8VF5vhV723rW3HxuET5blcDisKAoIGA6HLcvSSSBz8QktywoGg6+9llVeKh1LS0t3X3nPnDlTWVkZjUbxI1mWFUXRsiz8niFyW318MofcU58+T+9zfvvYfcYr19vmNW3CW6hxgTLoui6KIsdxsizjxsOGYeAz2+TcBNyZeP/+/X19fdPT05lMBrJ79+E7ffr07t27Q+SwVvwlWZb1er24EzL9WDgPF9ihUaPI5hLqMwD67G/dJnyUYvioiqJIkqRpGv2clmUZhqFpWjAYvB/wgX22bSuKwrIsz/NKdqXZEgSBISEIgq7rufCBGYDjrmCHkQEtuJjB5P4Uyj6cZ5ybrfAu62BVVZVl2fsB3+nTp/fs2QMqaZomyzLDMIFAQCaBHOE4LtcZ5CYUvXX3Z5Prc797B+yjpk/XdcMwgCBl5X2CD+wzTVOSpGAwKIqiLMuqqvp8PoZhJElCLjAM8+CDDzIMIwiCqqrwCig0nwvN7bzgNuGjMOGcGI2EoiiqqlLDDAt9/5J37969oVBIVdUACZ7nUUpYlnW73QzDwM3Lsuz1ev1+P+RF0zTbtsPh7DHhG4/bhA9CIcuyJEnID1mWBUEQRVFVVXxs2Gae5+9H8p45c2b37t1owk3TdByH4zi3281xHCjGcVxeXp7L5RIEwbZtWZb9fr/L5fJ4PBzHoSzeG/gcjL5sx7Ys2zQt07ScUJh8nS25hmmyLPvAPz7g9Xp4npPlbKI42ePuQiE7JPJi1f4f9PX1T0/PZDKZxbPZq2Kyp3ze8VlFtxwZ1NTUVFZWaprm9/u9Xq+maY7jKIriJSEIgmEYIKaLBMdxSBme530+n8fj0fXs2MOyLMg3qjuyjPpEKA/1jzfDfRP7sjbJcUzbNrNiatm6YeuGY9kRxyngBSUUKlBUTdX0eDzu83kCjM+2zC8+/XTlFysff/RxRwsFffzr+98Y6B2amc7e/XD+7MLZ88tL5JDUO78k8Oa1jurq6srKSkgHz/P5+fkej0ciIctyIBDweDw8z2uaJoqiIAg+n8/tdgeDQYDIcRzewvM8TR84RCCIZgaTEtD5ZuxupbyOEzIBn/kJfI5uhOLxzQWxYlHSLScsSDIn8Jqhef1uXmAURXIsS5NUW7N1QRcC4oHv/ygL39TcfIbAd+EewFdbW7t3715FUQKBAMuyqqoKgoDcZFkWxspHApjiGYZhvF4vwzCyLGuaJggCyBsMBhVFoS4MfLRtm/rwW2J3+/AZZkTTHY4XDcsSZMnH+r2Mh5dYw1J0QzENw9LMiBWxFGsdfJl7xL7a2lokL8/zfhKwKTzPw8FwHAfeMQzjcrn8fj8ctSiKgUDA5XIFAgEItCRJFET4R6xAYkxCW5dbIvgpyWvZtpXDPsd2opphcaKomrpiqpIhSoagWpJmy4atWpZhm5Zj2I7mSEH5wPdJ8hL23Sv4EonEl7/8ZVmWFUXRdR0Vze/3MwyTSz1RFDVNgx31er2BQEAURbxAEATkOM3oYDDIkAAZHceJRCJo8m6J3a3YF3Ic23GyxdO07LXaZ1uhiGoakiYrlqI6surIWlhWbFEyed1RdFNxbMs27YJQTBW1A9//IU3eewUfpCP3uD1RFL1eL2QBVQ+YBgIBwAGUPR6P1+vlOM40Tcix2+0GE9EkCILgdrtdLlcwGNR1/bP7k5vYFwo5dvY/y/kEPtPSTEs1TcXUzahlRHW9QNGiohLhRYsVraARUXmZzXLPtnTFYH3BHPgWM2cXl+6FdIB9aCocx9F1XZZloMnzPH5/juNUVZVl2e12+3y+YDAImyoIgsfjcblcKJq6rkNb8vPz8RpFUXiex2sCgQAWKG5JwFvAZzshHFxsOYZlAzs9ZMuWKtlSQPGxhleN8ZEyfctjhU9+6bE9zz9tFeiqIRmmbhlWMMAd2E/Zt5hZPLu0QeOyurp67ty5paUlHNu4uLg4NTXV39//6quvBgIBy7JQ9UOhkCAIkiRh/B0MBmFZfD5fNBqVJMnlcuXl5QUCAQzagDKeQf8E8cnPz2dZ1jTNUCikKIrb7c7Pz0fWo9VD0wKzSVfaMBDNGh07a99w8DiBz1QtIxSPSrb89X/+6vd+9C9vvLVv/8HvVv3Hd//jnX/7t/88UPXv++y4IRuCosuGbjB+9vX9PxzqH5mZSmcWzs4vLGbPKN/IGZUrKysXLlygIGYymdHR0ZGRkd///vfFxcXBYJBlWYiAYRioa2CloigMw+Tn5z/wwAMcx9m2rWmaz+dzuVw+n0/XdUmSGIbx+Xwsy8qyDKsILfJ6vUGi4Pg3qeWGCY9Go+hbboIvFLLDISvsmCHrE/aZqqX7hQBvcm++deC5l/fsfemJx//p4ce+snnnl8qefmHXq29824pr0eJQYWnctEyf1//6/gOAb+GuwHfx4sWVtZifn5+YmJiZmRkbG/vzn/9cUVGBHITgSpKkKIooiuAgqhtaYPg+nudN01QUxUMCfR7GRPDbwWAQTRXLsiAvy7K6rqM79Pl8Dz744KZNm3iehxlcB1/IDoWtSDi7ozRsm45p2rqZhS9cHBZD/Ks//LYcZwoqtJ1fKd7+5Xj5nnjJFwq++doL8fLwjifKy7ZtjhXGBEEg8A3PTqUXMmczmcWl7O3nNrbH5cKFC2ezR3UvZ+9hNZddAO3r6zt+/HhlZSWsnMvloikGOYbdQ3OmaRoOtwFqYCtaY5fLhbPTNE0DZF6vV5IklFE0gugFsaYDrH0+XyAQgPJiaQXJuwZf1DEjlhkyTVvLwqcpIYXRva9UvaiXBEuetL/48rYdX4lt3RMreyb+UtXX1ZigRiRR4yRVZFjmB1WvD/YDvqVM5iw5MGED8IF5586dy2Qyy8vL09PTJ06cOPD6gV27dpmm6fP5/H6/2+32er0ul4thGI7jBBJoyG3bxhew1rB4Pp9PEAQQLRgMYqYAYwhDA3cN34ORInwPzvjDdPNT4IuGrQLHjFpmKFv7LEOxVSOm8w7z7de/YW3lY7uUXV8vefrlst2vPPpP/1q57+B3zWKZNxnVkayQwQbZuwwfbgF28eLFdDq9sLCA3S22bXMcFwgEfD6f1+vNy8vzer35+fler9fj8aCcYaQB8yzLMvQBGs3zPLKVYRg4QTzj8/nQxqHzg2Rj2CWKYjAYDAQCGH+hy75V8v4PfFn2EfhEm5cL+H0Hv/P8vz7zzR9WfutHe7755he//oPKylee2PGlLWohL0d4yRI0S2GCd5t9ly9fXlxcvHDhwrlz5+bn5999911sJYhGoxgK+P3+vLw8lmUDgQAsS35+PvQBQypUQ/S2yEpVVdFs5Ofnu91uNBu0Wfb7/aIoYgDHcRysIrykqqocx4Gtn86+bPLanyRvln2iIygxftdzjzy8OxZ/XA3tZO0Kv/Ewq28RmJBLKxS0AlG2BdVSAmwA7JvJ1r6lhQwV3jvd33fp0qXl5WV4l6WlpaNHj+7YsWPr1q2FhYWWZcmyHAwGkbzoIlDyYTjy8vLcbrcgCDwJOBvMKTHswnCfDgQNsuDg8/nwRiw/aZrm9Xo3bdoEY4jWmBqX9cN6O+TYYdtyMK0yTEM3dd3WNEcxI6oaEqWsWw6IdkC2OTUkyZaoh1TNVlVD0QyNYZmqqh8MDmQ3qC0sLGYyC8vLyxs9XHt5efk8idnZ2V/+8pd79uzZvXt3RUVFYWGh4ziBQIDjOEVRMDLw+/3QWeDocrlQtoLBIOCjqoLFVkmSUAfwN0Dyot6ByyzLAjKQ3ePxYCrxKU1b1l9j3EDn8nQjy81fYGsLmK7rOsuyVVVVAwMD09PTCwsLKPcbgu/atWsrKyuLi4uzs7Orq6uDg4NvvvnmbnIVVnl5eSSSPbFa1/VgMGgYBk1ht9vNksgj4Xa7MXDmeR7CAoeIwgccwUQMINDnYWUWei1JEhoPURQB698HfPB9ly5dmp2dnZqaunDhwtDQ0B/+8IeXXnppz549Tz31VDwexwie5/kgCWgxNMTr9eK3dblcNMfhXaAq0GW6ZCOKosvl2rRpk8/ngxvHMyimcJQYu/+dwLdyESvtcC2Tk5NpEslk8tChQ/99FPUXvvCFnTt3xuNxwzCACKr7Qw89BEmByOaCCG7SXMZKk6ZpKIsYBaJ6+nw+al8YhsnLy8vPzxdFEUy8uefF8/+PkhfnuuOMeJSDqamp4eHhmZmZ4eHhDz/8cN++fU899dSuXbvKysri8TjKFrLY4/G43W5IJ6anGAQgo1HFclUFZVFVVYy5JEnCSBWjbJgehmE8Hg+1zeuk4/8dfDgbeXl5GQjOzc3Nzs5OTEyMjo4ODw8PDQ2lUqmjR4++8sor5eXlW7ZsAQ15nkftCwQCYB8eASVAhL8BFiTpg2j7ZLLmiaIOJkKL4ArRF4KAfwfso3fOXVpaWlxcnJmZmZycHB8fHxsbGx4e7uvr6+3t7e7u/utf/3r48OHdu3dnb0dTUhKLZfvHQCCAggjqYRpIGxVAiaT2eDyw0DIJrCgq5ORrjHAw1EIFFAQB1ZYeLk6HCDRtMSjE+jdZkspu1M3VWagwNBd1Q1EUv99fVVU1ODg4NzeXTqeXSNydPS6Li4uZTGZubg4IAr6BgYHe3t7Ozs729vaWlpaTJ0/u27fv4YcfLiwsLC0tjUQiqqqiA0NzhsE9hlcej4e6HDQYmFdj3Z3WQbqSrWkax3Hoc1iWxdQgEolEyYUiWJALh8M22e9D4cNys35TaCRgPyVJEkl4PB7Al06n5+bmkHPLyxtbqKR3DV8H38jIyODgIIWvra0tlUolEon333//ueeeKy0tffTRRzdv3hwMBsG+QCCATg4jBmjxzemM2Sp6FaSzRrbzgC+KoiDTbwkfZge5+6ayzJIVDDKoY0fbA6GjzaUoivccvnQ6DQczPj4O+Pr6+rq6utrXIplMtrS0NDY2Hjp0CGLy+OOPh0IhLOwDOI7j/H6/x+PJz8+HmLpI5KozOMvzPJbloCe05aBLSOvYl708gWyPowhiBRmZC0VCfaC2CX8nPOnz+e4y+1ZXV9HwLi0tLSws5MI3Ojo6NDQE+DpIdHV1Abvq6uqWlpYPPvjg+eefLysrww0hHMeBbcaqCNIQgFIZoQhSbtKxoKJkSYTJFRaFsZyUm7y5LYfjOFFyxSqepNMKlmWx8pdLSeQyrX13LXnXwTc/Pz83Nzc9PT0+Pg74+vv7u7u7Ozo62tvbm5qaWltbk8lkA4lEItHc3HzkyJG9e/du2bJlx44dJSUlWDsna2oMy7IYOOeihjaDWhzsmMEcDEwEs26ZvNlFNrJAjKY4FouVlpY+Ri5z3759e1lZWVFRUSwWC4fD6K9pBVRJ3EP2LS8v45xFwDcxMTE2NjY0NAT4Ojs7Ozo6Ojs7k8lkc3NzI4nm5uaPPvoomUyePHnypz/96RNPPFFcXLxly5ZoNIqGjIKIcTw4CN65SSCp8ej3++mqAPZ43My+MAkkrGVZBQUFpaWlO8g1n1u3bi0tLcUOYixvQTdksnUIuXz3a9/q6urKygrUA+KbTqdnZmYA3/DwcH9/f09PD+CD/ra2tjY3NycSibq6uoaGhsbGxoaGhtra2qNHj37nO9+pqKjYunVrUVFROBzGWiW2tVGPTdMZcozlEYy2MAGDu85u7SHpGSPXfQEyrIFgzdO27Xg8vnnzZgpfSUkJhQ+lAK03shjrWQcOHBgcHJyZmZmdnV1cXLzdvc03SHz88cfXr1+/du3a1atXr1y5cvny5Vz4cOvm+fl5OOexsbGRkRF4l+7ubtiX9vb2tra25ubmZDIJDtJErqur+9Of/nT48OEXX3yxqKjokUceKSsrMwyD4ziGYbDqlCspoCFGsBBoeEaGYbBsgr1uqH2wLHiEvwuFQvF4vKSkZNu2bfhZRUVF2DeD/hJDXLhLrEkVFxe///77o6OjU1NTMzMzCwsL4M3n77D6bPjQukE9MqT8TU5OovcYHBwEAbu6uigHW1tbU6lUMplsamqqqalJpVIgYDKZTCQSf/zjHw8ePFhRUREKhbZv375582bMSv05AY8NJqLzg/tBTUQbR3cLUtLB9MHk2bYdjUYLCws3b95cunbNGHYuWJYlSZJlWSAjdiTF4/E33nijv79/YmJilsTy8vLFixfPnj175/BdunQJQ5dz586h/EF/p6enp6amxsfHh4eHBwYG+vr6enp6KIJtbW0tLS0pEslksq6urrGxsbm5ua6urrq6OpVKnT59+vjx4y+//LJpmvF4vLy8vKCggG5fw4iQIRt+3W73Qw89RKUZ8KH9QOsWJxGJRKAbNpEOlEW4963klrtoh4rI7Zri8bht25FIJBaLmaaJlQCv17tv376BgYGxsbF0Oj0/P4+d9UtLSxuCb3V1lbZu6Hwzmczs7CxtP4aGhgYGBvr7+3t7ewEihLiFRFtbGxI5SQI0bG5urq6urqmp+fnPf/7oo48CxJKSEqgKwzAgIszNOl3GShvLstiAHg6HAdOWLVtK126NVUSihFyrWFRUVEju9xeNRuk2OFyngJ+C2uf1ep977rn6+nosxi4sLKBY3da49NOS9/Lly5cuXcq1L/hH0+n07Ozs9PT0xMTEyMjI0NAQspjSMItgW3tra2tLSwsKYm41PHXqVDOJpqamkydP7t+/f9u2bZFIBO4MzQb6XPhnrOTl5eVt2rSJOm1sRgePsGIZI4Er9GOxGIiJjKY9L5pojLWxS4JlWQjUt771rY6Ojrm5ucnJSRS+TCazIfhyBQT5SwkICZ6cnBxdm75QDuYqSUtLS2trK0S5jkRzc3Mqlaol0dDQkEqlGhsbjx07tm/fvqeffrq4uBi79eHFZDm7D5kjV6SBld61ESzLslhys20buMMSYlsqTEyulcGKM8/zECvaF0YikRdeeOHIkSOnT58eGxubnp6eI4FidVsjg1z25Yov4EMFhICgkV5YWKAWeoJ4QLhocBBjGChJW1sbsEulUq0kkk1NiUQCngYaXVtb29DQkEwmP/zww7fffvvFF1/cuXMn1lLwO6PfQNelkOta6HZ+CAW+ZZEwTRPvEkjgIhiQDk1LLBbbvn371772tUOHDh07diyRSPT19Y2MjIyNjY2Ojo6NjWG2hM0BEBCc73nlypVr165dv37947UAbv/wt7/9jSKIb10ncfXqVZq/2O9CPSBFcGZmZmpqCjREI0zrIBoSlELoCahHdRmuMJFI1NfXwycmk8n6+vrjx48fOXKkqqrqG9/4Bmba5eXlxWtXXKPYbdu27TFyx7HS0lLTNIPB7MQQFwDiBiWlpaXl5eVPPvnb9nhrAAAEz0lEQVTkV7/61ddee+3HP/7xW2+99d577504cSKRSLS0tLS1tXV0dHR3d/f19Q0MDIyMjExMTExNTWE/FOA7f/78xYsXL126dPny5atXrwI7YHXjxo2/kfgs+Gj+ZiX4QnbH0Llz55aWllAEYQOBIDq54eFhykEoCRQZFbC1pQVVD7xramqiCFKfCDTrSZw5c+aDDz743e9+94tf/OLIkSOHDx8+cuTIO++88+677/7qV7/67W9/++tf//pnP/vZT37yEwB08ODBt99++5133nnvvfd+85vfHDt27MSJE3/5y1/q6uqampogX2iNUJQ7Ozt7enoA3+jo6OTkJJJ3YWFhaWlpmawy3jl8165du0ICAgITc3MWwyjBDMJOr5NjVENKQ0gKmJgk9rCxsTFBgjYq9fX1tbW19fX1ubCieqJu1tXV4S1gbk1NzalTpz766KOampq6ujq8EXqFF9BnUqkUqNfe3g74+vv7BwcHb4bvXPZ41Asbgu/qWgeyDkGqJMhiKMn09PQkGUePkn1sFMQ+MpemxrCdRG464/dEBUylUmAoVAU41pCor69HG1OTtT1ZmCigNTU1tAjU1dXV1tbW1NRUV1cDykQi0djYCN61traiInd0dHR1dfX29g4MDAwNDY2NjU1OTs7MzKTT6cXFxWWyP2BD8OXKCC2Cq8QJrqz1wpjjw07PkcUQGJoxEiMjIzSdYWtyC2J7OzE3zdmMTqVSTU1NDQ0NCdIv4/dPJBJJMsKhjAM96+vra2pqzpCoqakB7kANnKXNImBtItHQ0NDU1JRLve7u7v7+/qGhoeHh4fHxcbRruI0G4Mvur7rj2gcBye2CwUE8rqysgIO0FGYymVxLSEUZ60oDpD/p7e29mYaYdGHaitRubGwEHIlEoqmpCZQElHgekKERrK6uPnXqFDAFKwFf7tgCct/c3Azu08wdGBgYHh4eGRkBfPRa6GVS+DYE381DhMtrQd0MRXBxcXGB7G1Iz2WnMlMkJiYmqKTQXO4m0dXVRathW1tbKwn0Ks1k6ADKQFvAymyxq88+oCDiBRAEGCNQGFij18aLm5ubkbD427S3t+dm7vDw8Ojo6MTExPT0NOCjsruysoJLim5LeW/878g1MdfW4urVq2DfKhlnrZANvDA0oCFwnJ+fT6fT0ySmpqYmxsfHiLHCnIaaGwoiSNFGAr8krYAACGDlCiie/+xHQEndO35KV1dXd3c3qh6wA/XmyBrbAunYaO2jpu/q1avU9xHH8snD/xiX/43eDcAHDl4nsywk8iUSqyRWSFA5zkUQ3fEsae8gKUBwaK3J611rkzs7swNXkJHiCBBb1rwOGUH8nx9A51y56Ozs7O7u7unp6evrGxwchGEG9bB9lsJ3/vz5lZUVmL4rV678n+EDmrkcBIgwg+vEBBuxaC6fPXsWA+p0Oj1HVjjhrjHpQqc8kDNroBkNKAFiOxkgUkpSQJHpt/OI9+Jf6+zspLyD16NpSzU3VzdyZXddy/EJ8cj/PpV9gO/GjfU0vEqCtnTIZeoKz58/DxDpjItKyszMDHR5nOQyHTdAVeBvenp61kFJeJldTrmz6CALCV1dXT09Pb29vX19ff39/TArKHkQXGQubgJBdWNd5n58/foNErnw/Re97W4dGghuvgAAAABJRU5ErkJggg==;" vertex="1" parent="1">
          <mxGeometry x="620" y="320" width="106" height="164" as="geometry" />
        </mxCell>
        <mxCell id="-GH2pdDdH-t2QKyGOY7W-4" style="edgeStyle=orthogonalEdgeStyle;rounded=0;orthogonalLoop=1;jettySize=auto;html=1;entryX=0;entryY=0.5;entryDx=0;entryDy=0;shadow=1;" edge="1" parent="1" source="-GH2pdDdH-t2QKyGOY7W-3" target="-GH2pdDdH-t2QKyGOY7W-2">
          <mxGeometry relative="1" as="geometry" />
        </mxCell>
        <mxCell id="-GH2pdDdH-t2QKyGOY7W-5" value="RJ45" style="edgeLabel;html=1;align=center;verticalAlign=middle;resizable=0;points=[];" vertex="1" connectable="0" parent="-GH2pdDdH-t2QKyGOY7W-4">
          <mxGeometry x="-0.0051" y="-3" relative="1" as="geometry">
            <mxPoint y="1" as="offset" />
          </mxGeometry>
        </mxCell>
        <mxCell id="-GH2pdDdH-t2QKyGOY7W-3" value="Boitier ONT-FIBRE" style="shape=image;verticalLabelPosition=bottom;labelBackgroundColor=default;verticalAlign=top;aspect=fixed;imageAspect=0;image=data:image/png,iVBORw0KGgoAAAANSUhEUgAAATsAAACoCAIAAAAQO97JAAAgAElEQVR4AcS9ebgkR3EvOn88IySNNJqRNOvZet+r967qfd+7T3efbRYJIbSwymBssxsDxtgsBiQjBAghA2axEAKbe99nPy6rMavNxdjCxiCE0DraRzNnzvz7XkRUZWdXZdbMEeP75osvJzu7urpOdUVG5C9+Ebnj9OkzW6fPbG2dObMF7cmTmw899Mg//+hfvv71b379a9/4+te/+bX/9fWvfvVr//APX/2Hv//qt7/9nX/89j/90z9973vf+8EPfvDDH/7wn//5n3/84x//5Cc/+el//ud/CeXnP//Fr+67//5f/frXv/7Nbx546KEHH37k4UcfffT4Y48df+zRxx968LGHHjz+0IPHH37o+CMPP/7Iw088+gjI8ceeeuLxZ594/NknHz/x5BMnnnriuaeeZHLiqaeeeeqpZ55+6pmnn372mWdOPPvMiWeffe7ZZ5977sTJUyc3QU6dJtnc3NqunN7cOr15hm7L5qmtk3RCPOcmvLVFb50+DccIhd3PM5Z/p0+f2TwFl6R/yybefPwJhKeiwc1Tp/k/6tSp0+yP0n8++hHPR0tnxsvT/1L4c4wn5Aw+J4LW8pee04DsbGxceBZ8ULcsLVwV+2ecgQ5jb+mfmr1R7EP0d8ExswcIX9r8XvyPAodtbp06dfrkc6dOndzcOr313HPPnTlz5uTJk6dPn6av3tzcPHXq1PQybHs76OnZws9unjr9wK9/c8cdd77tj99+002/+8pXvOpVr7zpla+86ZWveBW2N9100+/edNOrX/3q3/u93/v9P/iD173+dW944xvf/OY3veUtb3nr29/2Don8yTve/ifveMc73/nOd73rXX/+7j9/73vf+773ve/97/+LD3zg/bfccvOHb7n5tltuvu0vb/nIh/7yo7d+6GO3fuhjH/7Q7R+57Y6P3/5JJnfc/qk7Pq7LnZ/41Cc/+elPffLTn/7UX//1X3/2s5/53Oc++/nPf+5vPv/5u+666wt3333P3Xff88UvfumLX/zSPV/80j33fJnkK3/3P/7hH74qlP/11a/B9GTIN77xrW9841vf/Oa3v/nNb3/7W9/5zne++0/f+S5MUt/9wfe//0Ocp370wx/+iKaqH//4J1b5yf/+13/913/76b/+27/99N///d/uvffff3bvvf/xs5/9589+9p8///kvfvGL+375i/t++ctfkdz3y1/dd9/99913/6/vf+CBBx4Uy69/88Cvf8Pe+s1vHmLyyCOPPfYYTn/nrz3+2PHjxx835Injx0EeP/7k449L5cknn35KIk/IPyX7yMw4zs5sgoY5WiJPP/0sffDJJ58GeeLpJ594iuSJJ56CP4pu0aPHH3v0+KOPHn/0kcdA8OVjbPDR44888hjJww8/+tCDD0vkkYceksqDv3nogQcevP/+B8BQ3f/Agw8+/Oijx48ff+KZZ57d2jqzif9OnDhx+vTpLfx3+vTpzc1NWz2dvrkDtP/k5unNrTNbZ55+6plvf/s7L3vZKyaT1W6nNxgMR8tjlMlkvDIerwyHo+FwNFoej0eTyWR1dWVtbW1jfe3w2trGZLwilPFoZXk4WobzTOhTKytrq6vra2sbGxtHr77q2hddfd2Lrr7umquvf/GLbnjxNTdc++IbSV58Db685sZrr4GRl7z4pSDXvvQl195w7bXXv+Ql11933Q033PDSl9748pe97BUvf/krX/GKVzHRp5hX3vSqV+nyuze95rWv/QOh0NTz+te9AeT1b3z969/4hje86Q1veNMbQd78pje++U1vestb3vxHf/RHf/zHb33b2972jre//U/e8XacgP70z94llHf9+Z/92bv//M/e8+53v/e973nf+973FzRDvf/9H/zAB27+4AdvIbn5g7fcfPNf3nzzX95y81/ecsuHbr31to/c9lGhfPQjH/voR2//GMnHPn47ye133H77HXfe+clPfvLT51E+/enPfOavP6vLZz73WZLPfv5zn/38XX/zhbvuEsvf/M0X/ubzdwlF9hGaXr9495fshKbdL375Hpx5v3TP337pS3/75S//nUzoVDBrf+Geu7/wxS8YctddX/irv/rUX935yTtJPvFXnzDkjjvuvP32Oz72sY/r8tHbP0rykds/ctvHbr31NqF8+NaP3HbbR8Xy4Y/ceuttt9zyoQ984Ob3v/+DN3/wlg9/+CN3fPwTn/7UX/+Pr/zPX/7yl1tbWydPnnzuuedIXbe2trapsSc3Tz53ahO9x/vvf+COj3/iyJFjy8PxaDQ5vHH06NGrjhw5duTw0aNHrjpy+Og66OfG+jqo6FRW11dX1yeTVaGsTFZXVtZA6ADU/PFoMhpNxqPV1ZXDqytHVleOrK0eXV87trF+1cb6VYc3rt5Yv2p1guMrR9dWjsK7q8dIVlcPTyarK5M1mi821g8f3jhy+PDRI0eOHd44sra6DoKXR5e6sX54Y/0wTCv0lqVdxeunlj7L/kz4u8Yr8HUra/pb64c38OsObxzd2DgilLW1DZiS9FlJv7ZjR686duzqI4fhU3DBIEfhskmOHKMDjh272kauOnb1VVe9iOTqq6+5+uprXnT1i1/0ovMpL7n2uutwNrzuuhuuu+6G66+74frrb7wB5XocoXFT+5KXwBwqFNOR/Msbbnipvdx448tIXnrjy1/60rPJjS/Xr/P6G69HYd/1kmuvO3bs6qNHr9LlyDF4qlEOHz66Do8HPNjw2OAPt4qPxMrK2pgeV0s7Ga/AIy2X8XhleXm8PByNRpOVlbWN9SNHj15106tu+sxnPnPixIlTp06Rpd2C5ShY3e15xZubW1unzzzzzInvf+8Hr/vD16+vH4bv2Dhy7ChoKT2gR49epf9tqK4rK2uTyep4NKHLWl4ey65+dXWdHu719cOrq+srk9XxeGWEf8zycDIerY1H6+PRxmS8sTI5zLQU1Bg1dtXQ2KnSrh1ZXzu8jnqITz889/ToHz58lPSTKRK9RS0bFHTobKSNpE54zg28ZvII6BdlX81+Zl29aS7Dlv+lcXIBhaeHYNX4jfWXxuSytrZBt1Q465GDMyYvxpgZ6YbrP8HyGH6I8yHwLfgVbKpdNS5+OFwe9IdCGQ5H4EmJpN8f9nsDsfSH8K5c4LsGwyHI8nCoS6836HVF0hvAW8a73W6/2yHpdTq9Pnu3N4C32Lvd/vQC2DF0QLff6cBnrdLt9Kafsly/fs3GBQ8Gw15v0EGn9dWvfvW9995LK1i2lN2extLqd2vrzGOPHf/SPX+7trZBvxkZUrIwGxtHjhw5tr5+mEwuKMbGEbIk+nNmmYRmJqfRZLQMuk0/OV19u93tdPrD4crycHV5uDpaJtVdn6D2TsYb0IH+4ZXx4ZUJCOjw5MjKZGMyXkUBPxy+CC02GO3xCjxnTFbADtMDB9cp8dtXJqtW/QE9XD+8urLGTj6i6Ym0YgjqMVqGv8sqY7yS6R0YwRWS4E2AlQU83HiqkXHxcHMG8IBaBY7ntJE+Qt+yDOuU6dN8HvrGBYCeTM8M12z+u7gffTgQa/Kgjwsr429kfyx14I8ank3oPutOGdxJWprJ22VQ7wHeTGN+oUeOFK/d7oK0Oi2UdrvL9NzQZIGKmpS2y+v5rMbqs8xwmRaPI7zgfm/QaXcbjeZksnLnnXc+9dRTW1tbp06dItUlx3i6VLXtAfJ0BlbDW7/61a9v/9gdjXpzeThamaweRiOzhu7B+jo4ov3+EN1LcB7AWpocXe73mz6sOGioKzxbgwHMqT19nhv0e8v93mjQGw/64+FgMhysDIcgpMbLw7XRMgja4XVqVya60zu1Wry/zV0GaDVpL1o2XXuZGhud8WhimhTZ0zDC5TrNDuAaoNLSu0zleF0ynj9QSDxsGR5l/JPprwZTYzxGhvUgG4KKyt6a7cB0zswU/xYoFX3R9lq4Tm4K4Pt9/Gl63b7+HOMFkz3hFNg8RwitKw3Cp3Q7qf+l7CX7CsNm9uF7SQxzR3ds5qZN5xHzZXQ7U6uoayYoZ7fV6ugqR+pqKC3obbNdqzVqtUa1WtelUqugVCs1eqtWbRhSr1VB6rVGs9luNlogzbZJGvVms9GiL0Vj3uu0e3g9neFweNNNN/30pz89deoUW8eSb2yrp9M3d2wB+nzm1MnNH/zghzfd9LtrpIqGIwRuPfn3qKW0oiN/eDyarExW11bXyRrLvOLJZJV/IGb7zCvWtZHXTDCz6CrrBhaXu7DiXYOVIdn5jY0j4J0asiZfTpO+meb43+ole+KHY05t8BkyzNSAm32nT6fxLJpG9Ane8Mf4l6YJnn/Z7fT4I8+xj/ZTrOQ0s5iu7awvbVzEs16SQJfaXdBhyY3i/3xTf6qlvGa2QWN13UPlNPWnusqUdrZDCgxtuVpGqVbrrVanWq1XKrUGKmerCUa72+0P+kP6k+n62YzTh/Fep9NZXV1917ve9fjjjz/zzDNPP/00qS6L9ExVU9LbgXDz1mOPHf/KV/7nddfdwFakqyuAJ/EaS6pL1nUyWQVzPxj28Anr2Xj8+DeIFz+DEa+ifH+0vGaY2VWwtMzYLq+PRvDVJFP9R1OzvDweczb2v7WvXwPp7YzSGtaVmQK0MODr8uZxO/1ZB9VkWMSKx00iggNALZk1M3UketLrDUxOATOVtpc3450K7wDzIOARNy7GpIrn+FKmsW1UWnKDrW2j3jyr1GvNOmk72thGo9XvDVqtDpjTZhuWeLDK6/W6fXJSuryTYvgp3W6v1WovLy8fOXLkpz/9KcHFEsWUDoPGnjp1+t57/+PWW287cuTYYDAka2nV2PX1wy+6+prDh49CLGey2usNioVSPJYIh5VwWAkFw0IJh5VoNC6RRCyaikXTVolHM4m4SpJMaMmElkpmSTLpbFbLZ7VcVstpapZEVbNqRstm88ViWSjlctU0s7KX9VqjXm+KRTQl0wdbzTZMpQyW0N0eWCN1mN3r9OAA/DltHiZ6i1TCuogl3EJmqdgjvq0OOJnMEZjtsAumy+Zbm0/ZOMy8oyE1xWya6OqwkM3tArdCh5QYtqQjTPgW3HOBiJyXLlqaRqMlk2aj3Wy04d06CDwkoLq69lYqtWKhVCyUyOTCT8BgLbJkxt9FlhYNGzjGuVzuzjvvfOyxxwgoPvdg7JkzZ0BjTzz73Le/9Y9vfvMfra2uD4cjqcaubRzeOEpxjo2NI5PJarPR0rRcKpVRM9lMRhOKmtE0LScUVc0xPTR1kgktHsuQ6HobB71FUZOJdDKRSiZSiXgqEU/G48l4LBmPJeLxZEIi8VgiqsSEoijRSESRCc1H1jYSURQlCmJ8lh2jKFH6IkWJ6ccYR868pEG+jUQVoUiuXPjnnMsg3ii6e5Y2kUpIJJ1WhT9xJqPBjCkR+EhatZF0WgVJZdKpTCqVSSXTqWRGH6S3Zlvhs3TWQdmVp9MqPD8S0S2NEo/CT0mCPzr+7kpECYUi4bCSTKZLpQosXNGYk0eg+8Yz7n0fgOnhsFgsvvrVr/6Xf/mXp59++uRzJ7ensWcQJb777nte8fJX6QEYHacReMXraF1XV9c31g+PlsflcjUWS0QiSgy1Rfxn26lKPBKORcJxsYTiEZJwQiGJJJRIUlESzGKbb6ISA70VSSwaNw5mt17vRKPxWCwhE/Zdpg78yYbEovEY8yOUWDye1CcUmFNgEtHvjO2cEoUrNJ6G/+ZOBN0iNsXwnVAoEpK4S/CWRPgzmPuSj8ycKhgOogQCoUAgFAyEImHpHBpVZC6b3bj5qrg7MHMl3NWGQ5HpPB5W9JuGBwSDYa/X7/cFfF6/zxeIRuPFQolg56nbxVwtA0vr92FlMRgM+v3+ZDL51Kc+dd999508eXKbyNPWmf/8j/+69dbbrrnm2iNHjh09epXMxhKuMx4ho2Cy2u32NS0XCkX8/mAkInV9FSUGd18s0XAoFg7FRRLDt6Dl9DmhRBKKwuvejJVD4xaHX9QqTKNEHVI5a4taZNZwQ/On2sX/ruEw2d6Z+ZgdcDadPPt3ne0M06uyOfL5aSyokz8oFNI3YUtKeJbWH/T7g35f0OcLkPglXxTwB4XfQoMy3QsFI0GcCARtMBwORaSCij09LTez+LwBvy/g9fq9Hl8oFEmn1XK5qkPEuDKCxZFZacHGdrvd4XDY6XRe+9rXfve73z1x4sSZM2fOXWmBpfiP3/7OW9/6tiNHjgG3Sa6xq6vrOtMQ+RyNRiuT0ehZjMcSyWR625LQ/V7mALNOLJoGcwoWNRlVUkxiSjqqJM06Y/ilTDGEHbHDGYlGwuDbCCUYDMseNfi1PD4Sj9tL4nZ73S6PG1/qfZfH5fK4nG5d8F14yyI0Z/t98ByYBMyO8ayYOrLLsx/HBzccDAhEeB9oMBiQ3o1QUHwD4YOSK5/5Q9C0BgIh0FsUn9cPyrAdIXPHdJ7v+H0B2Q0JBsMy8xsKRdin9AvjJhSYBfDx8PkCZLTSabVYLNfrTQZEmZQWseJuu93u4L/xePy5z33ukUceIYKxFGuafWPHs88+d/fd97z8Za9Yw0AOEZ6AoyPCilcxlrO6uj7oD4vFcjQapxmXfhiJN2XzWyoB/1kkGFCCASUUjDIJhzh/ifk2IQV8GLBvYjMVi8Zly7NUMi1bZaVTKi6r0tY2nVbVjKbS6t1Yp8HqC1ZimWQSVtrsG9l6IZFIwVtC4Y5nH6ROfPtOu8mHN73EuyS2xjDZiR0i7rZbpkgbe36Wt2DdruhYAPs1qQO/qVWmWsTUiXVmZoHZmcJmJpJp7IznOH2u6L7B+ouWQuBFIqiRTqvVar3b7bcxtgSgXQfIGJyl7XXxHyltvV5/61vf+qMf/YiRn2Z1U/xqx/HjT3z89k8cO3r1ZLyGVIG1lcn6ymR9dWUDZHVjbfUwyerqxmS8tr52ZG3t8GCwXKnUNTWXTmuqmstlCxkJ8pRJawQqCNq0pqkFoaiZfCady6RzaibPhI5U1byq5kgygHhl4StQkomMwB9GDxmd82gkbEgkGjEEgW4lFBRIELwpgSEKBsIhnCDgxzZ8Kpy2IqEgPFI+cPCCPm/Q6w3o4vF7PH6fN+j3h4QCNsHrF4vF6jIjzFsSc19uoDweH/MLzB2PD94VCRgTH/iuuhj2kOyP0Fs2BkMBv1B0HxvOQObLG/B5wTGW6l4g7PWAIyoQr1+3hLMXhicPsuOtf5rV39FHXB6n003icLh0WXIuLTmdDjf8rJ6AH/6usA/7SiSayxWbEJjttlrA3Gi3gTvRafe7nUEXmZX9PrBeBoNBp9NpNlvHjl119913P/744wA+8dmCTFsxqZC9Aqz4f//439/z7r84cvjqlcnhtdUjG+tXrUw2ZDJaXh2P1vq9UblUT8TVSDiGpk8JBiLS+yi8ufqgHz8lar0ByW8cCgYi4TAtgGPhELO9ZIoVtvo1dRQlkYiryYQuqaRGkk5lTfMCmyDUTD6rFfK5Yj5XEEi+WJBKuZCv5HOVfK5MksuWSPI5eEsiZQoVWNtSsVwuVbYrhbzkyoV/jjGYy+azWSN4xsfPEPPPYlAN2mw+h0J3RuOO1IyQG3XYkXQ835qO5F+ya4AYnnFyVcWQhOHRmD2jjCb/RfQfi/2OuVyBriSbzfPfq2KYkFwnNaPBYSLJavlUEuxNIV8pFqr0KxcL1Uq5Wa+1q5VmtdKq19qNeqfV7HXag153OOiP+j0Ig08mK/V6A7gWgEIN3/Oe99577882N7dOnTpNmgnptZTfe+bM5qnTp07NJOLt+NY3v/vHb33n6srR0fIaMniPEMdI2E7GG6srR5aHq416N5+rqJmCphazWknTCmj0pBA/3IjtCNxE+qkEbV5TiyRqpkCSSecz6Xw6JQ0XJeIqLobTMUUP/7I1czyWsQaEaURR4mHDhJo6sIYR2w2YdHVv36f4fRESnzfs84b9voh0IRCQ2/MgmPTtSgCxnKlJZLbRtsNMPWIqYM08bhIvmimcXskX0C0/mFw8WGT3PD70GtBykv3kWptZnnyN6TWwy/D4zK4EW1v6AqFg+KwC1puWzQhu+f26+UW/A1wPMLAuFLcXLkAkHrfPseRxuwLsx/V6Qn5fJByKJRNatdKqVdv1WqfZ6LWa/XZr0GkPe93lXnfY7UB8p9lsD4ejfn9YrzdvvPFlf/e3X3nm6RNUUgKy3tHYbjG9nbW9O75w15df8+o/HI/Wl4erk9EG6C3S7oXt6sqRlfHhXne5kK/GoulQMBrEhajfR36gDvTJ7um2xoV3yuv1B/xhRUHQGII9CQ5JjiuRBMOoTB1SVKaliZhOz0jEVRuNTSYyGYm3r6rZqcFhlgc6YJmzWimrlqwzC01w8K5VskXe/vD9rJaXz1/iWLd+/Ky5442JrE9GBv7qtB5HTacgUppOZTibBrF3WMbjLKzZmj5a7Qtb9hXcmfXILQ8QpAEdAIAAMYI0AwWsHVk0no3DRzB0D8E8jMnFYwk4/0xAGGEIIdZgDCYS6aiSisfUVDKbTup2Ip3KaWoxn6tUys1atd2od5uNXrMOYugtZPA0m+1Ws9PvDdrtbq3W6HR67/yTP73333+GiPGZZ599jjRWt7S8Q4z9HR++9fbrr3vFaAiswJXJYWqF6joZbwwHk0F/3Kh3s1opEVdj0YzBRtJSKTWVwgj4+WiTyTTcU7Ek47F0LJrRBdBjuH1RJaUoSQj/CCWcCGMkCWK8EAFORMLGkbNwNK/qGEmSIDRyhBmXxOCuE2wWDEzRNROKxuA06ITkkLU8rBKwjYLIDI50lchj44YJojWzvojllogBtFRBxLH93LipT4cJW9OR/EseN9aXuMyWyr/rrCaBmQF+Nct/ih2AzoXXRVC/tXV6HEtep8PvdgU8rqAu7qDPE1YiiVKhXq20QFcbvUa9W692yN622/1ud1CvN4HnXK3Xag1S2muuufbuu+85idb1uedOTTX2NNRyMv3b8afvfM9Vx64dj9ZXxofX145BR25jSaWbjZ6mFklDdFWJxGWA2/MbR/BNjPqCFkUMTgUoHhAtUBshtCtWV5MOQ3xoGjeKRdOMEWnppE2w7Tm9jOMJY2C9SZjXHY9N2ZeC75IQtgCT3D7tCYhNEvwZTc2UAcKoINSZTpTRKVkFIT0kjWFAGwwUzqfTj6DJIsN1Xlod37aE32VQdjis2MxE+lvkD+MMSBNEIBDi4gs4OyN8TZi5/IQRPYoRICRlSh+IKqmcVi6XGmRj67VOtdLCZW2n3QIaY7UCWQTlUqVWg9Vsp9MbDpbf+c53PfDr32ydPgOVwDYhOktyenPr9OkZrd3x+te9BdEmUNfDG4A/2QosYuu1jpou0FOYRPJgLJqSRTuf5ziQfmw1lpSQNNZQ2khYrrHGkTMqbaguKbC1jUYN/qNBb2IPNzyv4mc0EYvOxJCnp0WnnWmvqRNV7HiUFALZVhtVgIklFI5zZ77Js28Z/gULwGAHLmNbrCz2KVPH5iSzUR/GNwqHIAoqE95Ki/uGofYR+QEZS2wKIORfxwvwW8QnAe8jHAqC60Tr2IAfgE9wpnwQiUwlsvlchexqvdqplJuISHXa7X6vOyiXqq1Wh7gWzUYLc3r6L73xZV//+jefeuqZM2eA509m9gxy/s3I0003/f7aytGVyeENrNiCKeNipZ2MwWfudoalAgDFSiQZi6bTqVwmDbhZPJ6yrit+m5HpTD/rG8djqURct1QmC4b8iindgvdvdZ+Zc4CZwrC3pqo11WSeXzXzcEci07iOCZQKh7gAcmDGNw4GouFgTCAAekuzKbaLOdHxcFWmCKfxEg6QgjQ6xGUYpSlrQjdK5IcThUiuPEyphP6w4VFLdU//FHOAOU2D8I9UJOExI2yG4BkgZIgzIe/F49PVkn0Fg5rkMTCvJxDwKz5vGPxhd9DrCQGy6AmDk+wOKpGEmilUK61GvVurtivlZrUM/U4b1rHVSq3ZbJOiVio1CNh2+2ur67fc8qFf/OI+SlbXNfbMmdObW5ubOoZM7vGOl974qsl4YzzaWF89trpydMUo+CC0tKPltW5nmM9VlEjC7wPHgBi/oaAii1s+v/FQMMxmPlNHicR4VVRo+Qor2KSiiDOBUDkZv0qN67CTRg6CxTudglIwNUgcS7txY0IhWMuYVgCRtvGK43EpppJMpp8PRmDAJFbCxpTqzDjPRmf6d9EIN10yGgbYbXKJjU/ZTM2ymdeOix5P0qfYN3KWP2ozf5keFetLmlv1M+CcFQ5F6Fs4n87wLOQuQFRJJBMaMvMADYnigxdVUpFwnGIByYRWLjXqNUNjK61Wo99p91stoFU06k0gWrQ69Rok67WakHD/qlfd9N3vfp9cYtPalX+549oX3zjCOg+rkyNjKLkEC1qh3k7Gh0fDtU4LNBauNZyIRdOAlUFMRUsS0Uf0lMieNgZCWjspOfIUVXR82Fi7gsniIJxYCF6aJeBXPG6YDkm8nhDMi55ziLhIzEjAr5NgEZjRuXXGbA1AP4VzaOqlPs3ELN5j6gDdArgBArEn0wL2IxKI7khENzIimgRFXBgwM2UXGOgLo2GyY+hs8EEk2dI4QTgejw+DJR74lEXYGawdt/F1LoPj6XS6nQ6X02EwGUQdOFgi9O10NjgVJ4xDavoKp8Olh3ko2MO1Hrc/4I94PSGX0+9y+j0uMLMeV9C55HMsef2+SDyWKRZqqLHgFQMQ1ei3W/1WszMcjup1yNer1xpdhI5rtUalUhuNJp//3F1PPw0VUm3+7VhfOzYarpGuUt0WUmAaGY+mhZdGy2vt5iCXLStKKhgADx6uEl0Crye4uOhcXHRYZWnJSTdryq3R6RM+L64ieKSO9f3+IFBVRRIJR5lDa+2QQbO2yYSmGsFbU0fL6NFdFozhOnk1A5m3VkmngcAIMY+MpqnAKIBYPEWPgciln5OiOLlsWRetLIjrYKRHVXPWIIc+koFoilDSRlhCMOvJQftEQjKZqCQAACAASURBVLqEAYMjQ7kMzAkW8whrkfFPp9SoEkvEk4TwQz5GNA6GPZHWczNE2RdT+yl6d3vrZLkx5M4zs6jhLOpsRuTMqWJW90QfSWTi0XQ8So4bOWVaIg5eWzyWUSKJeCyTy5YbGOCpllulYr1SbjbqnWaj3WwKpFqtFwulo0evuu+++6EUsfGPyp0br+D/HQT/jkfro+X14QAKLJHGjrjqSlghDWodbqxf1esul4sNYE2oRSItZNL5rFYsFsSUnUK+SE9zLqvTR/K5Qj5fzOeLuVxBf8TpQedaVc1aH0EaQSqieLGqKEk+PMv3Q8Goyaaxlx53yOnwCcXlEvP1PEgMoMiK3x/0ef1ut9fpdDuWgMK2tOhaXHCTLMy7eXEseWlWtrYet8C6ksl1OT0OkUlxgBHwGAwHRnXQO5RcQrEZcyuPCekLSIapch3DlsI6EGZbTiBOHgiFgmEgJGAaGiUA+Lx+ZiSZKTuXjtXqshHHksux5NymgHGWiexUS0vO+flFscwtzR1yMJmfc87PORfmXQvz8NM7HT6PO6QoyVwWYrMkAEQ1u41GSyjNRqtRbw6Hy1+8+57nTpw8bcDFm1bO03C4OhyujJahMsvycHWMJAp4icIs7Xi0sTxcq5RbqWQ2GAAP0+0KuJx+p8MHXgEQLCU+GMtxMRb0ABv4ID0lAIZUTFKJhBWYyIUSTyXjKixBLZJKZjNIfrK2RM9ipo/vZLVSPlsRSTmrFVVVzNbKpCH+DDaQiARgabO5bL5QKBXyYFFpUgN7ni4wPlY6lcuk8iLJpVNaSmYVRWsN6fRvHBw3VoPWlaRNQoJtguGMmQJTbJhHzMFAeD8CBUlYcG4293Dm47NWzvTWb7VYtS5fYcSSvUAjijxR1M7dAGAfzAbz8uIxsrfQ0lvpVK5YqBH5qVZtY6cN/rBIWs02FY563eve8MADDz777HO0S8gm7Ngyizz1e6PhYLKM6jpaXiNAWGhpx8vrg/64UmqmUzm4UIO3APHMROYcGRTgxaWR14KlCWSPHbhtQnUFwGMmdsKjUID6mkKvxstIWJiFC4M2TKlwOIpUREFSaDgUMZ65aDis6HnYlNwf010AoGSF4qFglMIAPm84FIzylp/vK4osXBSHWyHBeGwVTIqg8MrGtI46fKa+6ScIYWQlhAmllK2igP8MASTsgALjPQHVpbNxTqn0YsTHmOJAxkuA6A3E+3x1ZAHISFiRElQC8FMyJIX/HcOhWMAHYZ5wKJZKZgt5UNpGvYui121kFYtYp17Deo6V2trq+je/8e0nn3z69OYW7LBDXEXOLd7R7QxRY3VLOxlvLGMBYWxnLC2sY1uDfK4Sj4Knzq5SUZKxaCrKR9uNqRdnKVZaAeZR/llhkKPVCNgAiYl4Ggj9FgMLI1w5KFMZGjBuEvOL44UMWEKT5NMpDSvUwJLMJGmolQNry3QqQ4U4FCWaSqZzuUImnaXpTIkA0QrX/BAJILiLoV+mjt8nBpCClDWKXonZubUflLu+DC+wdsD5NNJ9TR3yzF1Ot8ft8/sCwUA4HFLgcccqOTR/sTUwewkKaejbNjoz68kZbbfE0uT56BJOOH8GKslg4yEK73nAH+I1lq+7EApG6Zf1eYH/lEkXDDZFv1HvVKtcmdVqvWpIpVylujOtZvuDH7zl4Yce0TfEmi5pda0FjSUVHQ5Xxsvrs0UM9drfsKZdBuJxuzUo5Kuwtp5GLCEqm4hnZktDmJ0cnEf1QV5pDTNlOh4UW6jGMBiFb5QJgAFCsSMbTclJvG8DfONYKhYVm754DBhFySSQoihDMh5L5PNFwBUanWq5WS41S8V6sVAr5Kq8kyydODI5VQRxqTgppJKCHF0clDJDkwkpYcswhubbbljIGQ1hNpAedMgaRZwJ5iw1C6k5uUI8njQO4y0tQFDS3xHcJanIHgz7KzSuQXz9sndlDjO4TrJZLxAOB43QOrBfY8R+VZCow2yvEkmkEtlCvgpmFiI9rUq5VqkIpFSqlEqVbrdfqdRe8pLrf/zjn5w4cZIxnzgTe2bHoD9GLV0jjR2aa3xPlZY0Fmwsaizz4xPAh9aAYC3x3ODJZkJPHi3YkhnZR2Bc4hXrDIqYCmz+WQF9E6orVmZMJrJCQYK0eAqIKgnZo0NzCq0VqUJXLJYoFsu93mB5OIE66VAwHWjYg/64113udUC6naFMOh0Ir4sFciy7QmnBBNESihDhoEEotFuuCaVaqVUrdaGUS5VyqVIpV6vVOpBjm+1Ou0v1x+LxJPnMVG+AEQYN53l7KgS18mxc33OwnLwVDdumPYGbIGPXRRSZ7Z2mZxlsJxNjnBQ4HIwpSlJNF8rFRq3arlab5VKVbqO1rVbq7VaXin5+/vN3PfroccgNOH3GzFIERR2tj4agsaPltX53RFX5ucL8WDF4GQ6oVdtqpqBEEuQS4GUlFEhiSJ/NxhoG1nCYySWm1c622hgwB6erfL6PGbCs5OJMJ5XMmYI67CXBQulUTiRSNIhW4KkUUCwUJRYORRLxZKVcg90uxmvLuLPB0FhfsFsKatwXyWA8GIwGg+F2xaZStE2RblCzDtZGsLTt2drc/EujOCCQY0n6vUG/N+z3hol4kkqohEIRBZeahDnry87t65jNGtUGzbZ5S+jcwqA/aEPJkL4FlCFdQjq1GAjGsAjCyH/Qr4QCUb8XkivjsUwhB2a2Vm2RLbW2FarOW61XKzVNzb7pTW/52b3/AYtY6zoW0SZIsiPfuN9dHoKJ0GV5OFmGPTVWlpdXhsNJs9HN58qJeCYKdD9YvsZjsKpMp7RoNIlL2YSpVZQ4ZqUoIaoAgnMnonlUYAnGhSKqGAI1RIIBWBNuVzzuoDWgQiMed5BFekwdmDgllxcMRIhcGgopgUDY7wsqSrxUrA6H49HyyqC/POiPhoMxiHEzh7Az2OpkvD4Zr+MWYWvj0SrK2ni0NhyOzera14uSm6rgkuacte10ery+8X2xJUcL3+v2SfTzo0rT8aClWE8YXtLuGEZoMZPRFAUQOEWJxmLgmMDPFwb/GX0lomdbWolTFo8np4kH1uCwMelbJ3pcwiRErZVtOjX7JoM8fSlHmKE2GBYtCYeiTKjCSRjqnMSwGlkCuccRJRLPpHOlYq1aaZSKVaGUy/q71Uo9ny+trx35+te+9czTgBib/u2g6Z+ir8M+bKuBWjoeztS5Xx4OlnvdQTZbyKS1WDQRDimUzx0KRiKRaBRwzinSzS8y4zFY5UoE3GmJAJVKKGomn9PKQslnK4V8VSZYFIJKQ5jbQq4qlFy2zMeB+L6agQR6rF9RUDN5rG6hlYr1IcxxEzRB+q5tvB5Cabvx6vLyZDhYxooEoANYuRtr5+O+AawMN9kx+5bfacZGD8/9Lf3bSTk7fV0zWx0qxis7TzqtBvwhlwur0nl8LqPeysLCEvBn3IJKdG63FyO6QpKwHwAwicjO5tFPOBMoxq+AEYghoxC0BidxIQ1LArOZUDfLS5/bLRavxx8MhH2+oAdIYAGvx++D2TyWyxWqlUaxUJVIrVSslYp1TS0iG7n1kds+fv+vHtqyJNztwOUW+MPjETAoJuN1XIaNhkMSY88I3LCjkC9pWi6ZTLOapjSnxmNJlhTKEQb1HFETKMpeul0Bp8MnliXf0qJHKIsLbgpYC9pDzkMHl4SyMO+ysbEyix3wTZ0f5gVRJxKOUziO3HJKG9LUYqc1GPSXSc3o6ec1lvaAI25aHblp5XKVoIh6HbZXYovPuhG1YwEAYYeBjeerU6tCmKFeazTqzUajBaxXVFesDyhZZiPVLp8rQNwOwbM04hTpFOAUerxaFNamUJ+wBaqZ6CM2tewpQp7Crza3HIU2kTAq5hkWfjrC3jpbB5E2IW4XiyHfKx5LAuqGAZR4PKlpOaix2OoVCzWhlIuNaqVVLjXUTKFSbmpq8Y1veOtP/ve9W7COnbGygDxRdEcvQzFe56zrVF0HAyh4QVQkCmaAi4+VIxUlFosm0YryHHq9n0pms0DNE0rJElDR4yuUyy+0ilmtJLS96VROTWPxB2t5B2RoqWkgM1glk8qnjC1CrB1jI4KZVTFsWRCFQDmR+2PRNNPYtq3GUsZGGzduKperBa4UUxarK2lE/GIPq4ScmGHjGN8WPvTPb1DTcrlsPp8vFovlSqUG84i+r4xUXTudXjqt+v1Bp0HWdSw5HQ6X0+leXHSAdZJYSzCAPqDTmMWWKeV0SNhLTrfXYOkIOuwawDay0jDAQ7bYT8zpsbe9NsVr/MEwlk3FkstQzzXgBxub1fLlslhdi4UaaSzZ2GqllU7l1teO/f3//bVnn9k8dXImwrODGBQEO0HhmAnT2Bl1HQyGnXY3TksUJAzQXfZTxedAxOUE8pNVnA7gRgvF6fB5kZFvbYFT5QyIBROamKE2daynYiNSQ+rnkuO4MqvEdiBIXNbGEIWmALWiJLNaqdMe2thY2pmy2+03m+16rVHF7dIqOjw7A/qXy1VdEPe3YhX6SLFcPK9CE0cuVygWSqCxuO1ipw0wlcwl7nR6rWY7lyskseZrEknLiTiEvmx4V7FYIoWFYNKWFiykwdyCc86KzCQmE6kURSIsLbswvSQt26gB4xEJSSEBm3FUhOlKWOGix1ElztbhjFuSSmaKxXKt1hQaWBos5GuFfDWrlVrNfi5brtc6H7719l/f/7ApMQA0FsxsHwMSgBuvoT+M6sqgS9xVsdPpUUUfAkgpMEMxyWQyI1vHYrRWYHsTcbvBZEJLS9axqWRW9tk4V/aBx5DP3pfEhGxIVECuwrozlF4LOGEwlknnm40eLFARTbV6xUxjabc18jlpTzQeSSLd4LEiWZ9c1vPYViq1UqlSNkI4YGBbHQCWsVqCTGkLhZKixFiauMcNZdyIcS0wdzaW0HjLbHU5O2xzQpkx58fdZGBxHetygY2djrC3zqEjo3N7PbC7BxHC4YYgIyUQCMVjiaxWkGlsIV/N5wCFyWnlVrNfKTdLxcbvv/aN3/vuj0yFY3bQbsu97nK/i6o7nAwHuO33rLr2+8NWq0NgN5SigzKCyN3T87z0ioEmrJVKBwL8LRQbyh4rwmTQDEFDzipcwrrJKsZjUJJKJlZnmEYgwVWizImYShQrTDbMkntcyFfBZxmOZRoLqC9CuGxxSFUw9d3rEacF1SWEVhKD5QOzsGfxeZVmsw3zCC5f2dqV0GOZunY6vVqtkU6rlOUPgdlAyGBx2tQSsUmaAdhZJrKIy8w2ORYWMdvQbCbSi0n/Yh6yrMw6jkONa0mYly6DdtCiG0LbCKWS6XyuJNNYfTxfy2oliNxWIA/+8MbVX/jClzdPWdax/d6o0x62W4NuZ9jvLYPGWtQVNLbZZjdx+kfSrYECwlOaJeN8UIfxGbfV0XfHYttkGR37k0i1Wq7MPJ+bR7ljUSj4ptBmIsIWzwkfUdIUMdcyxVazb2Njez2gSYCBbXZauD40NBaCsaTntCUv6i0UAbIXsL1UzPo8tVASgcQI8/RwT1TYFlV+MY16Uw/wALoBhV30XUihfKz04QZ+hUTYk2btyFQFlEQuU0XlNS0IiSg2n5K9xW/wEeDSm4heHgpC4Q64CTh5+XAPkWg0rql5mcaWivVyqVEs1HJauViAfqXcbDX6H3j/hx5+GDatZP8AK+73Rq1mv1Hvtpr9TnswHAgiDbC/bbNN7BAR9cyO1SCzYMmEZiItTV/Goa6kTGSm0mYcrKWEdxGPZkyKyl7aeMWYWgC7eKFKJyhink7lGrVOryv1imkqxKcftLHb6fV6sN8Z7L+KoZ3pbqtATkCiAqc5ZOv4lhlkGSNiu+NsgoAP0lf3IP4EmJlcYyuVWiKRCgZCFEfxeIB4TBF1Pald5Gfa+Lc+CWUavGUuy4/vezHnUebiTh1jdiXoEp93r1j/IloX+AIej8/pcLlcnmAglExAmrud5OHdQr5aLNRKRVDgP/j9N/7ohz9m6gr5sYP+uN9Fja1BedVWs9cDFov+I7GHptvp1aqNpSXI/wQY0OFmwCBidx4Z8uR2QuUboXg9IVPIJOhXSFjNK7834vdy9Ry8ULxbZn6lBhZ2xLPJ+MHUZKH3G8tMJ5FZRiSttCFvDhMMKA+hWKgh8L4CTCCD/8BHd5aHo9HyeDgEi6qvcnHz5eFwmWDk6WrWsHVMhSA0SgLbQyBpsdMDlxi2jei0OcFB9GwN/1Z3wrljwDKDfe40m7ijMRfIAeaj4RV3O1BMrIfTh43G9vvDcrmaSqajLCE+CgAMwBxykWFIiURqurunlS9h5VQYI0CkkwhcGAkejLaHoKNpzuD0GONgKYHRds9h8sApm1+JQOZgOKzEovFMBvLvSsV6qVAvIs7EtDeP5PNSoV4uNvK5ShnVNZctX/Oi67/0pb87efLUaQzybG1t7ehitfJuZwiOcXPQbHSbzU671YXpv9snvIFKv9WqjXweMtHzOT03PZctZLN5EA1SQK2BE0oNpWf67G0KOAkkVESHJfTxiQdk04TKGQ7FrAtpGvFi1Sy3KyCRoNslFMgBthfMEA64nIGlRY/fG8lly50O+CnCbcunJhStFikttT2yqKJWPwCxH1LabhdKyw8Gw3arq0df0CSy3wtCqaSEhu4BB5ibBcB+ooveaLQIsm7UmzA7tOGEVNOk2Wi14VPgDrA17XQG4Uxut9svlSqKEvVgsrvfH3S5PAsLS06nG6ylP7hd4S0z4UOslVlRtzyMBPUG5DEhdmZTh0oUQKTKIktLzoWFJaEsLixZj6eRYCBCO32US6CWuWyZFBicYaxSgixgKBRRr3WKhVpWKw8Hk1tuvvXhhx957rnnzpw5c/LkSV1je91lWsraaGypWHY49Co7S0tgbJeW9EoxS4tOqY11BShd0NqGglHeUyVflBAjRJihDAcIIMAkUFU8GZfWf7FJW89lyzC3iSSXrchmE00t6tVe8IbyfYwwlygph+LGagbyqibjjZXJOm9X+T7pnrC10Vh4C2dPssD9/nB5OJpMVldX13sYKEK9AgebaMatVqdhKFu3A9MuGEnD5g8HQ3aePiotmOh2dzAYjscrpMZTe44btOHG4ss2cHG/N6hV66lkmvaDo2gC1Y4BWr8FB6IR4hgISYXM3HFWjkVTxNQFlpTLPst3kCwpqJEAnEqotCoSzCJk+YN8hzPR7KpYB1NKDbPPfyqZyBTylXKpUS41KKOL19h8rlKrtolmV6926Jhue/in7/zz//qvX5BjvLm5uaPbWYbMEkNjW82ezMZWq/U0i9dzzJJkMg1l2WATKjEYKwvGRJWUz2AIs6ipxw21ozwunQbsdECZCxIHxnUXF9xCVtOhg0sHDywe2LcglIP7F2WfmjvkoHofwnZ+ziURvUrIwhzUClmYdx06uORy+tOpXKsJT79QhLpKgzYaSwdQ2LPRaCEhSWcjEa5r1VjydevEW2q0dOwXNbPd7vZx8QxYV7ffbLQoolOt1gEoRlUnFR304QCy58vDkY3GDgfLzWZbxf2EiV0cDkVgi7pAyCZ9JxyKCGGkGdQ3jKAxB1+FaUTUyqaGSFgRFq+jQRN0NH0JW/JISvlgZRxhdgFGdMSfCoeUrFYsFaDmUzFfI1JtCVMycdKHjbZoHYtwMVCgatX2a17z+9/77vfYUnZHrwNxnV4XEsE6raGNxhK6MFPUy8hvjMdTuHmkvqgzmSxVVhINNymBa82ChwCiU6NgWxr6FH8qcpjVTIG3daZ+VkR4ymqlnJxyTEsI03nopZopyNAvfpwuDIpxaeVhfzwerQrVla1dhXp7Fo3tDTrtbqOO2lUsFwqlIkqt1iDGLxlSjB7B/qXNZrtQKMEmQNk8cJhyhXy+WCiUSLrd/nAIMbxut1+vNYh8mssVSqVKtVJvNto9OAAce9JqQqGE/jANwkkKpVgsQTE/CiVAHg+mB8gQV9715X1dCOdSYBYURicY0wE2DCpwyGXi9cuuIRQM8/DVufZxMhLOAlBkU4KNhYJKJg1LWdJMCsDyy1oo4FZqlkvAWKTNBAr56rGjL7rni/dwGttd7vdG/e5IX8q2+jIbWy5Xg8EwJVXp8xBbn/jE2BKVg1qSMIQdsHOJwStemlKj6PjFBTcJM33zWP/Kpl1a9AghLir4KFvi2owH5HQopE9DKjMrBBPwK7Foul7rDPoAI4lFtEy10VX2Fu0j3GzACpMIxjrpF5epxMEAvLA3oCNbrQ7jQhB1uVqFigdEG0aNBYXEEECnWqlRWia508Qo1tNfcbFKfA+IA3NrV77fbLZr1bqmZrGwcDSOdRWTyXQmo9kIemdmShM/mEggB9ggADPSjj5O73ItHbC9NpaQWma7rQ+kFRewWgDzkE2deCKu5rMVohBTyorhGEPxA1LmSrlJewjUqm1NLfa6gw996NYTJ06Q0u7od0f93rjfG3U7tJSVaqzuFZv9YbzjiUxcFjuxLf5AjvTUbeZJSwZ4C+tbZVpWKqroVZSsHQCopCwLKVZMtV1MMWR6ye92ZYa1uZ3j6WC/LxJT0vVquy/XWKaB2+sgpwIsZwNKe+kaRS4uthQlgjkCdyjttAFDrtebjNY/4x432zpw1YcoVLPZhgT3Sk1Hnjo95idXylXa1omWtTYaW683K5WamtHCYYXCjzCzU+U9ietLRIupCzob1YQoDgRyIJYD9haNJwVObGJCNjZWPyGdlm+Nk1s/K3MBAOJy0y6bgjwhmyCTzxuMIpW1WmlVyk1eY0vFOr6s0SpXz4CvtLRMsVSsvulNb77//vsNjUWWYr8HdRIQfJJqbLlcnYmGo70lqxuEBNGIH7ZLNYuNmQqHIEN/qmbG1jjEqkcCA79vHW5dh8fjZnb0lqmVKvPzI0ti0fckotOWVknSDpeMgKFEEulUrtMeDodjMnfWFhRVGl/V08TFytwFX7fRaIGBrcK2aKS6BBSDBvYGBEQTdNRqdUqlSj4P2D55wsVimeiH5TLs+0LfQnurFYvlfL5Ywr2bkN0BOlxGriJ43Vix3mYRC0XusXhnPl+MRuPBQAg2sMe8dioBxaMvfN/GuDEnlha6xmMGpbBCQaA9CEU/jH8yjb5saghQGS3mLc52bD4ldImBDmgn4Ug4pqnFWqVdrbRY6LVcbBgaC5FYisdWoPBQAwHOwnXXXf/9738f9s86c0bnFWNlE3CM2zZecakCGD3uF2yZAgMetyTuamBI1hiJ2xUgwIlcWT7uAlnmXBiW4VJed8hLe5wYkBXDrmA/ZUz5D+CWttbWaiRpxFRiize2psxB/iUrxgXzDvKxggGoNtCod1kmgFX3puFWDvulQdBkuc+se8UUO6V8mlan09Zz1nWNRQ6GTquSaWwJKr80Gi3yaXFbxEapCLWmwcyC4kFYaIpUoQ2nyBB9RNhSMKlYLMdiCeL6mCq2cZCvFOnlj5nCvNO97ZiHaXMGdsxMJxKBYpdSIb6ttUWuJZs7+A6VyJFNEPyRfD8YjIQCipopELDElLNcAo2lZW0+V8lq5UK+SohUIV/V1PxksvKVr3yFQrI7gFHcI+QJbGynPWg1u7A7SLvfhcpD/XYL0ONatVnIl1NJFXfryCA4nEkmQBJQASxD6Mt2Woi+pozdcnUgB0sxpfSCTDryjDEeTBtADkMyLk0SoCQ4IRMYrCVXTW6mjzVKgWZoEVqm8orK+rTbVSiIVblgQ9o47EKkJMulRrcDi8keL4Yq2mis+SPcxwlJouxZVCfYpoXIUhQ7bTXbtPk3qCuZ4mqddk8DZoVBtwAACYXRLfDjTarb1On0BoMhLZJbwP4HlLjT7hL7giJA4BiLpFKBxKOslotEFHImdd/V43csuZY4cSy5mbicXpkAz97AnPR904mr5ALuvkzc3EYbfN/l8vAx0iUjNgl0oCUXYVriVn5Cp5FaaOq4nG7xqSDhPqhE4lqmyLzifK5Cy1fMBAADS3HaAkd+ymqFbrf3iU984uRJYBjvaLcGZmn2m41uuwWMxVazD+hxo1ss1BQlyUAga2dx3rU47xbIgsfl8IMgFYEZUtoUjFlI4DaBXw1C5lFmEqe+tEUDmYMKS99ZSchpj2crjCoFwNOpXDKhUZkoNQMcklQyW6+1u90hGSKmn8x4spFtdeq1JmTelaBAZqlUKXLpdZqa1dRcqVRpktlsd+s1ILpk0irt/y00iRS2bSJ3glzlOu4+3Ov26/UmAVHwXcWyKYmnzXhXsx0KJqHS5iGjLZ5Kp1XIpk5rCW7fMFMIEN+S1SdJyZLdZHSoWDQuQ6QStPEi7M5u2YPL7lPSYoM24BbtZsLjZ6yfSGQScTWTztMKNquVyJZmtVImLaUc53OlZrP9tre9/YknntzaEmlso96t1zqUGACxn95o0Bs3G71ctoxRI3PJFZoVNLUkFDVTIFCK4CVi8xHgFI/BlpaGuWNLUFiaKkoyFIwJJeBXmNpbO1bfm0aWFjyHDiwJ5cD+hf1754Wyb+/cvivFArHf/QtX7DlwxZ4Dey7bt/fKQwf2LyzMu2LRdK2K5CGDhMTiLs+vXFO32wdaEtbsAlNWBlyXCSlVvd7stLswL3T7VFq+VCzrOixCd3WNRYCXkGSokNDuYngWE3f1YotQNrFhJLXL1LXd7lYrtVKxrGk5RYl5MR+dtrpyLLkYtQaynQ3OmQzSN8YDmMsmzCznbC8zwkbHZO74lw6Ha2paFx2LhiwsLM3PL8pkbm5BLIfmDx6cE8qhQ/MLEjrU/PzS/JzT6wklExrpKm4UAPQmTZWm9eRypUq59ppX/96vfvXrrdMije20h81Gr90CA4tBoXa51Mik8wG/4kAOg7W1yU33+yKkkwzaZdYvzsHIpMPYQgJAJp0XbasBkVv6U0si9lKl1KxV20KpVzuNWlcosKgot4QCOHtJLLTwyOcqVUAR2rUq3PdMOl+ttFgdU2ZIf0sbC3yGAQiEefsgDNMi/mC309NJEcB5iWeQHwAAIABJREFU0NODbKBdprGQVQ8hnzpxpHqIb4HBrLfq9SaBW+Ahg4sO/rZMaSn+3Gy0s9k8gE/BMGAw/qDH7Y+EY1MAXwcO9dl5Om5G+ONIQhJk9kRsKpJiDqqQ2xTD7bmjUaQWK2wZrK91I5hAZ23DYekWwZGwop+Nzsm1sBqXJCTRHpapZFajjdQyRdr/rlHrAsNJUqIsm4Wdq44dvfqff/Qvpze3BF5xs95r1DCPpwUpeB1sy6VGIq4GA1GJwFZ3QvF6QksLHhAjKutYhJIUziXf4oJ7Hxm3ffP79y0c2M8EzJdM9u2du3zP/u3K3isPzR2abm3E9xfmXQ6IBgsEthSSpzG4XQHHIux85XT43FgZw+sOpVO5eq19fr1ipvDU0ScCNJ5EP8S4jg41Qx/FBt0FJhNmERCDikrDdNpTJjllCFA+QMeYDmh2ECotOdL5fBFrgIEmxHDnkVgsyTxhHaqAlCydPc7mbktHWtidqjrwGBXXt8uqpUSiWeQ5DJsbY2IgKKdI6HhrGwyGhYQn2E0KaV5CGDwUUvw+2P4jncxRJUCoF4Mc46wKHrJQsloxlcx0u/2///v/Z/PUaYHGgldc7cAGtaSxbeBCVcrNdDJHnq21peUcz09ifVrssdLe+LPl0sZvRoepmQIKtytkpijaTgr3mErnjePpU9MWq0aJl52Ud849NNNUPkj6IwKzpWW7HjEHgXXisUxMSRNQHA7BJtQUQKpjtt351Vhmq6fZM4a5A42lGCyS9Ym4T2pso7FwQj1NFwuUY6EJyP5DuIsHnOCE3f6gD/mANhpLYadCvhiLJXy+AHDo0Qudn1t0ODxO5MnQ8oT3jWm3VavL5ljyOBxwBqFMndslndzORlxO91kFXGXMCoCTYyKarM4TAEgurLdobRkryyiaMY0Sy7dB8bjBAPh9kWQcvGLCnIqYxa5mCrIlZ1YrJBLpSqX2mc987uTJTYHGNhtgYyHzrgFeMW0Lr6nFcDDG7KSlI67kxH4M+s0wzUWcCsN+SLJpXg9smiwWL+xbKxQf5uIRcGVqQ8Go1AeTJ+LFsYyTdYaikRiut6mfSmZhq4RIIquVmg3AckkBSNmYkZzqniW6Y/OWbkiNYjRwttmPky4RqEscYxt1pbxclpFDNlPP7KHTkjJDHl+bNJZoxjYaS6UwqpW6puWoXjHYWNjTLA6l58npnXWJo0oKb51wulQxAIGEJ47SRMASZ1SZf6t3ZJ4qpBwgo3Z6wNQ3Np+EO/9MiEhRuJeS3AY9R1968jhsmBoC5pNevhfTdyi3zlZjU4VC6f1/8YGnnnxaoLFkYzFXtt9s9ECB64AVx6JgUmQi1QeeFzGtBQOEhEg4wQHCUCqVD40KYadQkDaeEiszpAfJg7EsMGPq0E5WVu6HX362AO7dEPDBrpw+3AKLfa+aKTTOt8ZOlZlgJIyv8N6pecmKFtg8yEFQEONBM8viPfqIkdDXanYgWQ8Ds3okqQ8AOP+lfB+Xvs1SsZxMpkOYAwBFnnwAILldfvcs4ERBdUF2tFFlH54KLGQB62GL2CXuSfLgaetT2LQe2ATIpjIy471e//OxsXYRJmnhKNwiGPi8uLUsBF3zOd0TlqlrPlfR1EIykc7ni3/4h69/6MGHBRpLdhU1FsCndhNaWseannXuZUxMDJpCwYAJk0tJVCFausQ5biMZKwKTcS8cyK2zCo9X0UdmWozZJqytvBBcDOuYMneX7wBmZgZF9HJTVFAmGFDCOIkATwv/wGq5iXHs82pjiVyhG0DIVmVC4VZkUOigFOM8QRiWO5LvM/2czgWG0SbOE6xvCXlqtDA2C+FfG+SJ1sPFQimZSAG3nnJiUWM97gBTURv2i2+GEhMifqKQUj/1P60eqXzE4PzonMdpsFeWPED4s6wGKqYBC6/Eltvo93ogNS2qpAo58Iop4yUNdRGkXrGm5pO4Z+KLX/ySn//8FwKNJYi4WQfrWq91SIFz2bISTljDsGxkXkLTR1xHh5qcSz4QXNWQh8ycW487xP+uNj+t3xfhLPNMBfCA37TBB9SvoEhvMKDICkShTlpIiFTYyRLyNWJRMAEBvyIQJUXVGRqRRLFQg1A2qgrTBxuvmCdasONNHb2sDCbTUD4Nyw2iI3UwmWXbYNar6STw0mBQ6GwNg9ehXx4uYiGnD/3hZhMrUZBjjIQN+KNE9AnSZKBPYSg4lUzHYolkIpVJq+mUaiBP2VRCxw4AxUDh5+vZfjpOEdTZHIA4vuS8VhuH1voW79PCBpkEDikRqA4hFHChpwUrTCfkzsZ7y9i3wk46eqxAVXpCPSD1WitDGB8LOWTSeVnamabCRhxqRvv/oIQffP+HO1rNvkk67WED1RXc41qnUe82671SsZFKZtNwdqHYgVJCvCeVzOqFJhjVQUHaA24kTe6+lYQUCcVteEh+X8SYDvxOg7Ph4sKAzD3jO06HfP+Been+A3OHHBDI3TcP+bGYIjs/51xa8CQTmgkrpqorTGmpwxBdiNYYYRs2aOpAaMdQV0EHAz8U/rG2cHIMCOnlLzC/h2W3s7dYB76ajrG0MzrPlB87/f6w3epUq/VsNq9EFKcDaovjXh6snJAgGMv/CrN9v8cj3chDiga5PDLYyel0M3TK2pGWpzCgL/rIohHCpc7SokMoCwtLhw7NHzo0zwK583MLFO9dXHBS+W6vJwRJPFDuFKpPaGpR1cHXKYzKRnLZUi5XiMUS5XL1ni9+aRsam4irBAtZW68HMGuZCBUvgpujk4sLNZOSsCMzFZHIYgl/hjabOmqmkFVLQslpZVgYwNqgBjwvpHoVC/VioU616sqlxrakUm5WKy2hEJmbco71KnjZclYrYfXTiY7uGK4mU9dZazlaHqIsj5dJ6KW1ZQdYO8PR8JxEr2JDs4NA7dmMQNOHqLVZx5KBLZersJcsZsn6oRA+lD6NhLF+HYMweLdFsuJQImyvd4EpkxObkjbmV2hF9UEEpQiakramiKsUW4KSrmEMFEGAFy053gf4QyLhaMAf8XnDwYCSSmRzmBOeSeepjC5TUVMnq0E8NhZLFAqlv7rzk9vQ2HgsY4GI9Sjr4oL7wP4FmezftyCR+f375vftndt75dyVVxzcs3vfZbuu3LXril2XXr7r0ssv23WlUPCAK3ZdKpJdV1y2a+/uXXt3X7Zv92X79uzet2f3fpIrLj+w98pDQtm/b/7ggUWhHNi/ALQnkezfhzSpffNzhxwHD+gFLuYOOcKhWKXcYEbSpCGUv8pYUOww+44JGRa4u8bUIH6LW80yZJhf1vJ9Hk8y9Tvt6fqZ/0in0xsOR1SAplFv5bJgEKLROFboJxKiSvBEEquUpCAkC0IvRa0aM+iEZhWKxkkfhK1cY6WVa8JhJRgMCyUUDDP/ln0di+gGZKkFRvYPOyCIlVCDwXAoqIRDMcpmSyY0skwUZbCphaSpBVXNxqKJbDb/nne/dxsam4YtWItC0dSiMPhrPwg4WKYIohbRiccyFNkysJ2wPrrw47lsWZZvkEnpoVqNOCVqEUwxVqXIpPMzABUHRMEKysjFNXVsqp8aSFuCQeihYDTgU1LJbK0KmTEM3elxy0V0OIHhoHuhukMLWwfaSB8TWfnzbLvPVBrLrLFrs2q4SUv5l1Rjkda3ppYS7ipl2Ps0FAzPzy3u33dg//6De/ceOHhg4dDBJSaMuzI/52R9S2fJ6RS7uPb+7eLCklgWHTxjcabvcC1ISIWL3KcchofswCDw4qKDOb2mzvz8Ijshc6TBf4Zibo6DB6Cq0cKcKxhQ0qkcMX9pQwCTaeVe5tNpNRaNq2r2Na957TY0NhZNCw2R/eChg8ClFAot/xbmXYtYbmJp0UNcKFyLisO2REIKSEI4AcjOhcAPO4BhVOEQLPqFYpM6S+4Kswl8B/KEkGWZTuaoXhwsy5U07JhSb+u1RQmnMUwcUw9EmwyKUg9qptkLkQpNZu2sLwnTYl/KjueVUNBvSTcZoOShRmO6AR/r12qNCm7SVy5VNRVCsvFYMo3IE9HfYTPuuJ6Mxe6qyLrSMSpuIC5wiRUFClyIBbeTi3LuK+vTfnOMkc93EokUO8zUAfwMapilp3648dW0WRyzwHwHUoK5a4C6c3A3ErgFEQKWmO+VTGi4iKuApUW7xanozGo2k8mlcJfAdEq96qoXbUNjkwlNuiINJ2axvmlJiqiSYmpj6lC9FUKSggEIpfp94OWTkO5ZW583jNXbQoJ2NhfXjWFAjxsiYDbicvpl3v5MXRsD4iZwa3HBTSXdXA74uMcdDPgVryekRBKlUo30BHSGx2/6UMSQhUmZoSPVsjGbcLZZpGf6khlPS4e+Wj8te9eYPmxQX5aLZ+rYeMX1WoOSioBXrMTcbu8iADPO+fmlpUW3A+nopjABsTvpZlpaL2bkuRxLImHmztKZMZ6mbDjkOVlBJofDxSyhqbO06KDjHUtOMq0MalpcWDKZVvZyfm5hYX4RBE032PwpRuVaWgQsc2HeFfAriRjk8RB2YwM+kcYmEqlUKjMYDLehsYm4atUfGgn4bWMnPNjA9WeT43Qlh1Aq1u+PMQx5tgOeKncSU5+zoog8R7F6eAyq/nNviY2t9QDTyfmXkXA8FARMJaqkKMYTj2XCoVgsms5li5Uy5ItWUaBkBAnS7mmQ+Pe0UysVB9bLwVBRmHNvqS6xqKWy43p2axMqiZOAYcRYK0Vcza1RR0q4Xa1ssFQs53PFQr5IO9yFkHYL5R18wYAfXB42WXPwJMTGgkLB7c9DIXGlxVAQNgoRCaQfPA/BTaRoK6nZllaqxrrUN6VeBLxecbVErL2oZxfBMSgQVcbPBvzhcChGlBslnCDAlRw3tqBTBaBxLg3eSiadVuu1xjY0Nh7LuDDH1draBEgcS8CVlwmYQWeAcmUpHksG1usJyT6C4wGXUyCM6gi8fBezq0hppHivqPV7pQFe2OBLhoHDowZAQiQc93pCAT/0qapGwA8ljgIGMkF0cwQeEOGgpwpwiDA9lOEQbhhjQIu8i0V9Al2FsEpUkZa0J08MHEgOCyWHTXgqY1Dsi+plh8MKQKAWURQo0ptIpGiX5zCCpfBdSiJqMGdoQqSSXTGcSfU+FvHi+9FoCr1iUwhUf8n7nDN9wG9tL96IwZrusPRTWPhmWqKVAVQBSCGQTShBLHDFHgCcQeB3D8E2PIoSSYAv6Y0okSTlqIGZTc+4wRalzWUyGkm5VBFobKvRh6y0OpATiUFRr3VKxXomnTfgFjPfIBKG6zCJeT8OXGHOWGmsC8NIFF43VipGD9btOnsxfl2loaAxCSTfLLEMIfTE9IUx5OV42Vumjo3ri96a1+kQisfp8LicXrfLv7Todjq9Hjd0HEtup9MDu5yAG+bW/TTc/pjx46n0gYP8NJPzJnlpE2m0enr6CH8quB64JB1BQTePnD1TuzQbdZxxFGW4zsIS1eOHmmx+2HrHhSQ+Klzq9Qa83qDXG/SBhEj8vpDfp/fZINehQsHCaqa64WIWjO9MOVLMHhodviTFTN/E6cd6q6wQHP0h7ObzXrf+lpWuiFkQdJ/hh8BfAc4AR3pdLt/Sontp0R3wR5KJjKbCfhr5XDmfK2UyORI1kzMkr2by2M9qWi6r5XK5gkVjG/1qpVWrthv1LkitS5kApWI9ly3LSMVsnPGKpuQ+nfANvq6NEAhBHgK1UkAY2SGagQZrAF/rU5SWkZbw11S7ZCAdsibgmmszaVj0y0VNpYQCGxaTJBOw8UwiblRUwJfJBOAZdAB4OyipVIZHRPg+gBbRs/BywNjOCtpMqc2RGRawPxYTSiMhZmS200EPQqFkt2224r3qhJEYGgwwr5hcGMOLsSnLBKYPPQK2wSR/fuYobavDM5/B5WZeFRasC4Uifl9QiURVNZvV8moGqohoGgDCJMyiqpmsqoJoai6fKxQKpVQqY9bYZqMn01g1U4Ag5NnkAJfpehALNcg+cmD/AsH6HJIMxfVJBAVosCrN0gJmbxHhEY2nYxHt5wJAzYQ2baulasZTU88lBvl90nJe/C/NfnLqTKvgR/QwIDsAHv3ZqLrhi0L920RCnK1iUwI3lUyrGaCwWSWT1jJpdbsC05Mxm5g6cHnb386c5qzz1erQLtD9rAJuszFtQfI6TnMJ3CXEejAbMXxp8pkN7dV/SsnkBe/SWsbSUlVXpvbThQ9+hEo3ejy+cChiFNZRMxlN03CxmoY+CfygqK6ksbkc1IhPJtM7mg3gD0+lLtVYKP1GjCJLS4VjILiEodSZaGoONp8WSlYrMYopFFtKGemv6QKwLmmXAEurqUU++D612zFVUZIM4TB1/D67HL0ZX53z3n3eEO908X3YfIl3O7k+1CJbdOjuJXqSOniI+KERMIQDQAwHdW5u4cCBQ0I5dGh+fm5RKHNzC3OH5oVy6ND8oYNz2xW4gP0HhbJ/34HnI/sP7j9/cmD/wYOSci0HD87R3WMHwN+OhMFDNkVeDs7NzS2www7Nnhxur0gOHpzbe+U+sezdz/+9/CXt23dg167dl122Z8/uyxfmFyMRhZS2kIcKtekZddWtq2rYWNDYXAE0Vvd+yQfGVmZjNbXIDKCpszhvIPh6CGQGagIQSCReT4jhOlCaEFP5BH71LJctqqRkGmuTWG/jMNvWrypmtXwWlxDmNpvPSoSmw3weagXncgUSOjiXzdNLejePP1WhUIJdOYrlkkxKlbJEioVyIV8SSt74anYN59KB64Q/WSA2fjvvw/939xNGUDRu6RBBKm7EP2E7zLjutlgPphGKmpBnoV851AaFT8XjSdnaIarEZCeEcYy+svPT2ZIJqFZHtpT8qWw2r2k5ivfOqOvUtMLyVVOhzeeKuWw+EU/uYNgS68g0NqeVpbbIE4Zom5GXQ5gQILeA6E63urKE3aY7dzD4x4UMfueSzzQpsJdzhxzgZu8FeiPJ3isPnVX27Z07sH9BJgcPyFiKc/v3iU3Egf2HDh4Qy6GDU6PHTBxM/AcOHSSjx1nF+bkFkgU5rsMF9AzLTPZ50aHDV6JgI4AfhgE/987SolM3/sZXsJcMR3FyDsX/6b48fLq46OBDoPpNQ4rSkrEJ4wyQRhibUZltjtlSwyxPDa9lZG5uYck4s6mzsLDEGfn5Q/Rb48khVItfNze34HH74vEkOcBZDeZxwxmmhSstbnOgsWgw8rlCVsvFY4kdNUspM5nG5nMVPiDJ96NKKm7JdE3M0lwIW5K1DHNigBMbMXWSiazuCbMtPyCNFqKv8VhGdv4kVISxg76E78bj6TiUzBTvYjgTWuBoLrj3DItMIPZjxBUg60qPQJhjFZGIEgqJI5DThbEgehGLKmJ5fsgTXJ6ksBjsAWVAr/9/dfy2u9Gyq/L7gyQsysJGzB1fwNjADqBpD9Z8cUO9GKjkyE5o6pxrHrzbKAfpgZP7vH5K9He7PMFgOJXMZDJaOgWtpuVg4YprVzKqTFdRY0GlkV0c30GlAGdbMVasqUUOIjITD8lMTemjB/UyaPNzThmGBOPET+TrtmFUxunweSREJQp+UiSJbL7PO6VJmZav/Ev6yLbaUFAKnJ5FiwwFNoAlhtka6IhxADlyjMhGrpSphQq9AqAFBuOxhAwNgpOI5hr7QXY91o50hjL+FuEBxh1gU9hv2zFFU/mXBBeFCS4ihM+YIvnDTH1+koK3DPApFIqAwkvErPlsjqCdBIyTsO+iyTqqxGiDAkWJZlA/U0iNUE2eMJlWWnZpuSzuTpjJaFEltqNaaVlFFt2RPe5+X8TMWADENexDkemexx10zxIJhYCtaZCSlUgV2fXI3HU2jtxGxqk4147Xg+wWg7zCI08+bwDme5EEcG+YIIVAAsDCmf7q+DKIyRzAoDDCDwA8Gr+xtROU7w1DwYNAQIRpG8+Q7Nn6PzMO1snrP48iL2XMFVIj44Y2Uw+uMnNn6aBF1SuwuTDJllz9mRLHSzNV4BxLeqCVjjS3Dq5AnIur7QZf7YMNChwuvz8IhJO0mkplMri+JaUl0wp2laEkpLH5YjqtKkpsRw1q7VoFSk+Q1CrtSrkJu4Dka+kUZK7jRlVQOpCn/gm9YnI1eTrLTB/PQN4sfXzqmsZUGUsxHsuY/GQeiEolsNaBpYUyNBZujT5iXIb5JYwnhXYDBuUZkuCmolWc+qXMK+a3/TZMEwYhxOFWemt6HoFXzKy3pROJKudVpuwfifcu9OphNpGYqbOM4zQEbqTB9Qv4gzB5iWZJY1DfF4pNRvAVcAEhNmLu+GYnZXKMwTcGD5mfo019k5/MXno9foMv4QH95zSWpgOX0+1Ycvp8gYSxjoX4jaYTm3S9xRFee/O5AuQDxJKwjmXKyXd0Na5A9W3aZquQr4aCMZfTTyAQYUXEH3IseW3ECjjRiMvJanZNjd7UoooYhV53yKZgYpDbIZKh0KzDe8h8HyqYRhKQK4e0Lf6tUEgPnzLfZlsdsJZsc3HiqYXZOtasYLFoHPzY8ycEUZ7fVhpWTeqEEFMIN5UEIMDqYJ91hE2UMFuRf2vUQGYFX0y/BYcRmO+tTrE05k3zB+XzoOnI6Uv7eCy5V9YW56Ag1sEKBsPJZJp0ErQ0k00jgyJjxHhULh5LXjFY44y2DY0tFmrxWCYYgAyVgE/BIhJsDw5pIJSScpj7au74lACJXwFWo15ND5RH5ku7nH5a/VrbhXmXbKVtycCcVhtfmINPXXH5gUsv2XPpJXv4rPpdu/ZcdplYdu++fM/uK4Sye/fll122ZzfJ7st3c7JnzxWX77lSLJdfeblErrhi75VX7tuuQLRw7/7zKPts4rH7xSHcA883EnvFFXv37Lliz54rrrxy38GDcwCkLzrm5xd1sJ0g99n24ME5qRwQB7oP4Lj0UxiqnWLIDEzG+O0B+Z9Mp7W2h4w/ZGFhyeV0K0qUFrEU2iGNhf6s0mpqNotBwW1rbKlYz2olylCJhBMKppsqkQSVEeS9Yr6fiKsM/jV11HSBp0kw9gVt+FUuNoRSLEBpHKHMMDdMFdblRI5YNLMw79p92d6LLtx18UW7Lt255+KLLrvwhZde+MJLL7rwkosu3HnRhRdbZefFl1x6yS6h7Nx56UUX7bz4okt2XnzJJTsvvfSSXbsuRdl12a5dl+l9GuHanTsvvRg+JZCdOy+95JJd25VLL911fuXiiy+56KKdQrn44ktkcsnzuvhL8G7s3Hnp5ZdfubjoCAbDihINBsMej49lVuhIAWfKDBz+PNnYiJRcGZH7SoD5i1OLInDBuLluwB8Mh4E+kc8XKWyezU5ZirzSAoyMGpvN5nHFux0bm8uWFxfce688dBnWc9l92V4wR5dezkwTjW+rhRIwhnAf3Lv7Mqns2b3vyisOCmX/vvnnYWMPHVy68opDl+zc/cILLr34ol07L77shRdc8oLfufiCF+x84QU7L7jgQqG88IUXXXjhxUK54AUv/J3/6wW/8zsXvOAFL7zgggsvvPDiiy++ZOfFl8JTKH/oL7jgwt/5nQuEQucRXsbzG3zBC174PASmIYlm7rz40p07z6fQvHDpJbv27d3v8fiSiRTxUohyAMRsiyQSKVzwC7FoadUYxPyFHwH2onVS0EfkWKCfVs7oAAdm20hEgfqSaZV8fjKtyQSUnkzEk8DiQNzY5B5rajaHXAsa34ZXTJv5pJJZKtqQSec1FWq+UEquFQ066whun6HHSFmBAvpUMq7JNmLnkSremENJfjlL0fC3meM97bCaqZDminvJEqVRLyM+e9PZb+CHctVirJgIjAA5uL0sChdAfJhwFCFwCiE+BnvMdtw220lwwIb7nPsuedlBQE0kwigKRFQ4xxa8So4xcm594CcsoA+8b9+BvbgiuOKKvZfvuWLP7svBHZV4ucRFEbY23ys8HgbnF6f00tn+/PziIQutgo3ITrh//8HLdu2mtc+hQ/PBQIjgYmL8k8bqepsCxSb3WMOUHdzaEwa3obGwjo1mgrjC9HmgHlwoGANcB5JIY7QDsqAFXMecnaePQOYk7D0ZpbqnVGwJmBgq5bVPoWOe/MCIExxng1QXNom1oMT6SBJKgQlFUZIBvxKLpjW1mM9WNLWIFZ9hPspqBcirULNWyWQ0/hbzfSC4IU8tkUhBjo4xcUK4HNF8/mC+z/J4TB3M/kkmtsnCtwGxZFuwMrxH2EHSn/gybL7LxlO1eSsc0iPhoSBkuniRexAJKxC4loFzMbtaijbfJbPMOuZvQPqmeyJD+OEwCadFH4/GQ6FIJKykUhkNtthVKZErmcSMLrS08Myg0hLxOGf4zJC7sy2sOBKOu10BwoqXMGPGAHsk2z3Puxm70Nrha3PNH2KUjGn6jvUjv83IIrI1rK3T4QsFcLsx2FWhkqOtUEqNSqlRKtVKxUqpWLZKoVCCRYhIcrlCNgus4xxjESONmy1acjmdbMx3eI4xMY1ZC0sdOtt2WrgGDZIqraICOKltVzIZPa1E0EFnj2EnfCeFDyI9jufeplOwYbSa0eLxZDAYdmHBYafT7fVAPHPbYkurlJ0NqsAtOoRCMJhw19mF+UXhR5YWHf9ve1/6I8mR3df/Ac+Z6enuOvLOOvusqq4j76Oq+pj7Hs6x5MzyGpLDa8kVr9WKu8vl8OaSy+VK2l0JlmXJBmRYMCzDkmDJFqwvMgwJtmHDBgwIMARYsA7In433XmZkVlVmdndxhpwlp/GQHRWZERkZEb/3Xrx4EcEVeVGQJEnhOUES5Xp9CSoEfZhpAeYEaGHfCdKKie/vDbF6z2msdmrVZVWulRQ4vaJagVNwdqRx+3Bs7bsiV5mTQym2oxokYWbk0UDGKhw4IgF2n0gisRzNG8XW09GRXPXaCh0uRqq+qXuuM7RMX9cQsbqpT0eaoWmGho7+AD/0+4eYJAKmMN1bUlLhqw2tBwUYI+IdXeIju77G+ctYmDjUTby2Wm1ardJsrtfri5IPUBfXAAAgAElEQVSkkE4OYCiOODPs8mehwKVRRg7hQqvxLRrzGfs85QppqQp52PuK54QC2oprtXo0WzbK10jzAlWLIXYVwohYc8CcKCzTdx04zI6IfKFMw6P5WLIV16rLAq/SXjAwOypVEcA13GGA9hkYv6pqNZFKarVcqgGV60QV2uBnp2uQitLu7oobdizD1tUTRLc6bc3Q7W7H6HVNy3Rt27dM19AdQ6erbei2bli6YQakG7oOstfQTFOzLM12NMfVXFdzHcOl81R1zQiA2tWCpTm6aRhWAumWY9q+4bi6bWuW2TONnmVotqk7puGapofkmiaRY5mOZdqWaRmGiWSZhoU7SzmW4UIqDQIQ1hyjZ+ldQ+/qRlc3NcPUTQMVh4BxMIZCAWIruJaIME+f0O30APajvIZxGeBK3UDpoHVImmbA0qU2rMM2dNOyHBu3uTIMSw8zCThU+DPKHJeetdtdyASXmFUrNfKjAPNBSKUJG48y5vaMrhcyelzBw2mUYqoIbBYq2/wpenWGPQKMFGPFYD+xPKpSkiSlpMIgtoUDJdSKg/0MYEKbKcaoueCS9+7a2jps0bbamrGMgakHjoqG7rjOgIBqmeA4wcjQXdo4RpGrB2fz+/fNzx7Iwc6mgTbLzR1cSKa5hYX5fCLlFlL1B2CouWIywRoXLplAh+ETieOENOVHFOVata71dDzQrQ9HoVquYViW6dimbxtD26A68UzLNS0byLYM09R1w9AMo2eYHcPuWG7b8Ttev+u7ukeIpV4Loqyr6boJGLMIabBvW0AGgs2wBpa3bfkbhuv3bKdrWV3b1Fzb7Dv2hmUNTLMPZPmm5VmmBzzFtG3TMoBx6MA7YDmebequqblm1zE6jqP3XWNg9zyzYxttQ29rRkeze4ajmxa+FBiHbuqaSVAhJRxGATrGoFIQ19UZohhQ4aXEgDBJoL3j93bRc52mEDudnmlYtKubadoEVMa2AtxCSULto6e3muu9rm4YVq+nr6ysqWqZR81WFGUmEmGnRdwHh+dCn0FOgJ1xwhVL8CSptUVegA2QEyn1oFrIFvOntwTbKZKEL3CZgjRVl4Y9kDFPRVZXllfJnjSuDIdDjGBittFuNjrNRodWhgNiDUKs5ZuG4zr9DMS2mr1adVmRqiW1Xq+t0vFQtcpyBYQkTjfFJsfKGMYNqZK3/6juMKmFbrfl8WuWn1oaEw25MmPPIwGlVK8taj0d9uN1fEIsyCvLsS3fNga2OcCVEr5luQA5INuyHdt2TMPUulp3vdttdXutnrGu212QkCB7sStD70el1NAt23Ic23Vsl6SNZTmmacNjOgDPMUzfNF3dsDUDJKFmWYYH5x65m7Y9hAJYRL5leZbl2lA827Zs07R03ej2tA4sx9W7XaPbDbZo13q21rX0jml0DLNrWD3D0UxHt2wUyCa+mgCjkTrQ06lUWk8nv7lWc72Dsg6QFiJqErEmSE6T1peA8obDMzARLa3U60u0XXCrud5ud3vIvEzTti2HVVEA2jB/Kgw8Y7u9nr68tCKJ8sJCHtwn5nOzs8H6x7jReG4u5j7BLMmz8+zhA/tnE2n//tn779+fSPvuP3DgwMGI9o+4o7CcJwMHWQEmAnO0gH5ugeeExfpSExVdMOnh5qaBMpyAWNjsIUCsaQwMDcSpDYh1HTsVsXS6zNJigzY6lIQy7aWGGwiWcdZ4HF0E13p9KYWCE0qqE07wcOLY0koaLS4u75XAh5PM5RNXOqFY0wzX8R3Hc13fsV0QsJbr2L5tDZBopODbtkdkmo6mG51ur7W+3my1mq1mu9PWdM2yTU0H/dAIpQrogShgHcfzXJ/4guN4sCs3IpZkWk/r9rT1nt7u6R0NZLdlWq7jDFw8YZANVTDg2xYkt22HSqtpxnq702i1G+vtZqfX6mqtntbsdJvtbrsD+xsYmmnrlqPbrm4DYkNpPwZaTTMCs9l6B9Z/tdpAobscU3cnEUsThs3m+ioebLe4CIuKyBZK/nfUF1utNtSMbhJDzEBst6uZhkW1BLulhHOtrEuQNR6YAnb3FdzRJuxmoQdFilti5GxI6wpTvRSjZev03r32usnn4XyT+lIFHUI67a6uGe31DkwuhPOxbGaBze40QcbGEav3dc0zdBfVYBc1rkBJZioxG8euN7WSUj84m7/n7v13wck399111/3o0jCb7Hl37757773/rrvuSaS777on0csviLwXnNQm6b579+27/8Beaf/+2dkDBxOpWOSXFpe1nk79g3ALEsx2HcBw37GZ6zWF4WqaThfUTG2914FpaX29Za233XbX73aMTrfbsyzH8/q+1ydk2hagy8cYBK0HfAHFLCBWN5q91oq2vKavNs1mx+5qMHC2Tdu1gGvA+scYMcbh+v7Q8waabjZa68vN5kq71dA6DbPbtHorvdZKt9nU2h1DM0AFd1zT9WCo7DhmqCyYdhy0um6uI1Zh1KoZBuq6JDnX1ppdHI2zAbmOFi8DVQmMBF0aHm62aTGKrpue69u2CwwF9zFqtdo95GWRfoHsjLJiMlzDcSzZSGFRKB69BQ70HKjB+/fPBtu1kNgMxeDs7Nw8myONiVySeCNCOHZ37uDCpJAMYg4chHftn92370BAoTTev282ehd76S4CuPUPKAscJ9DBHI21JkwUIYPblYw19L7eA8TaFtpaDCdNKzYNz3M3tK7dgr0Lo32Y0DfQTNsHrNVcT7NJgmcWzDslEDU59Z6xK/lYjtkqd/zZbncDiUFyI3albTs0zaBu5KIkdBwPyPVtF66O23edgesMPHuItOG5Q7c/dAZ9e8PTh1Z72G30m8vect2pN8ymYZiO4/n+wPf6xAhAwHr9gMI9vgP12HQMy2pYrbq7tOKvNgfrnWFPGxiaZ2q2CeWyXNfuA1kDx+7bdt92fNvxLccfDLZ8b0PTrUa7s9pdb1idzkDvbBqdTaPht9ec9Zbb6bia7pggkC3XNzzf8N1ARINqbRFoEXhwOB2616xj/TSb4d5uTZjX6aUjFkcQoOT3cAhKMxaNRovsva1mm4mRTrtLhigrUyv23H4fT5p3HK/b1VZW1qqVmqqWVaVUhoFSsPS/OrpKUQltPLKsBiQpkqTER7/FCVNzhpvEAvkSMyjO5Qj5Bw/O77t/fyKBgn3fvkS6D/3GKdXCQr5WgynZVVgsAZPMBNedZayh+VrP1XsAVNNwdc1OQyxaTV1y6NU1x4beA+Q5G763ASNAx5skx/GsYOxHI8DoikIMgUHwiF1tG2w/yUR2kdiYh1lEMgJxRS7g6CgiSKqsrTZ1lEO6DkjzvD4NaB3Ps2Fs6zte33WHvrPhO5tIW6674fob7uaGd2TDPTGwTjm9U3rreGv16GpvS+8PBr4/IJWVPhP0YcgEFG8iqjEK257b2dTWjrXWT/S0U6Z10rWPeda2o3tWz4CxpWv7ntX3rIFrD2ynbzl9ywXy+1ueu6kZzrqutx1D33bcUwPnzMA+6+sn7N5Ro7dt9DZg3GM6tm26vuH3jYFnAx9xQMNnoLVNAwbVtK9/B+eTaSMixjEztGKoXqReT2+3u+ReArP/iPNOp0c6dnu9A0Y4lN66FlitouaItWmn3Q1Eeg/kdrPRAswvrYAsWm0Al2eDPeQmtDqcihqx5vAWDRfX1pqJxLIaCzQbsDVENDrAAQJwMaKJ4VUTYyCTJCHUwLeTs8TyEgxcSfY0Gq29jWMNze91Ha1HQHW1npWGWBMNIbrmdNtmr2vpmqPjuayW6YOWaIB+lUAwCZFOKWAGkKekYsbGqKVD7EFM2HV2H2ivd5qNFtmKNM0g2QiKq+s7vgdHXvc91+973rDvbg6crYGzPXC2HXvDtH1r2HePbvTPb/Uf3PQfHrqP+u6j3ubFrUNHjgyHm8R3AG+oD5OKSPzLsV0Xx7S+P+j7A2/Yd870ja/77sMbw0e2t64e3rx0aHBy09nyAGm241keQ6xjDyynb7pArrfpOhu65WqOY28PNs4fOnz1xPbDRze+vj28su1fHjpnfOOwrQ1M3Qbrt2f0B9bQh68KeEcEWhS2VDxUlaNZaGKdTGuFug3rnG4Rr4Shu+UgLwCtW9dNmILualpPpySBfSt0OzHQ1MyyYvmD3auFGy9g8i4CPkBduEJtPbbmm3mqkK8Ic1AD6JKjCM7upili7PnxwHqHys+URMgBnVgyVLYWg/RkACFNaWmnmGZzfXlplfZ5Y9yEMQ5gAaDmjI5jdc0jxKJW7OFsZPI41jS8vr+FfgUOwFVz6BQ9rWeDcNbBvpJIaAsli+jI1QR9LxK58TDpVzTfMHadnBWMi9axh6OfuEiCVX08ABpgs826VIBYr+95vtP3rCHaa/t93x8O3M2hsz10Dg2cw56zZbsb9taGe2Kzf2l7+Oj25vXtrW9sb3/z0PHHT548fXpzc5u+wjRsRCyIXMsEAylZQV3H873+YLABR9dtbWw+dHjjhaOHXjh57IUzJ549d/zx09sXjwyPbngDD8Bte77d9y1Qyx1naLsD0xsY3sB2NxxraNi+ORgMTh469vUzZ65fOPns2SPXjx+5fmL72pHB5Q3rhNMbGl3LMAzbM/pDe7PvDF00jBO6bLKB44STZTmaZsAGJYvLtEJlZWWt0+7RmJaqehKx5DsRTWKZNo1FF3F169LSSrO5ThoySW9y698VYnGWuNuBTS1brTbIUkYt9B5FMdiOC0MGFSaHG61Jx68A3myDJZZtFAi8U+mNCJ5wmADYW0+hVmMtmUgBbmGxmw34kLW1Jvhd4iF6u0Ws1nV1DeZdCbFazxwzOJEyTGecO/aArFCmDkNfvQcbU2g9GzwN0pRYnPSDtpkkmPNMFr+GYSU6AFIkzZdMXiN8jnkFhFOLiXki1+zpugkKgmnDONYDqeq6nuU5BtjObdt1Hafv2UPf2vTNbd/ctsyhZnr6wPNObm1dOXbsmTOXvvvQ5RsPnfjWqTNPnrtw8dKRI8dcxwcrcWiCggECfC/YtGD4gDK23x9ubm5vHd4+8tipk9++8LUbjzx844mLLz9EiPUO9d2+6zqub3m+5Y8h1vQHJrRI37B9Z2tz6+yxk4+eu/TilavffvTK64+cf+ni8adPbV897J7u65tWzzZ1MBf7fZNkLCrnqBhHvBInS9dWG9UKzNXVqrBZHJ223oGJGdilFXTj0JWCQRdwiJihAfDaWnNxcTlYHAfn0FTK5SpMZjTXYYKXNoVtd4N8QpesqPm6KGPRA54iu104p5wQS8onXgMFlWE40FfRLYG0UwaDWCr0sEdxlx3J9Nsgk/iq/ZhazkRiEMChKU2xjl1XlteYVk+eEqtoJSb/85XlVaCVtVUi9ILCIcB6q9lrt/Rux2w2ujO9jmPqfccaWKZnGk6vayJEPQMwibDUwHci1IFdHX5OUqr/LTRqCgHDDltrLJDhtZuIut1EkoYzeYW06NBDSh2dN4dix9Ztswdfbxi2ZZqubfiOPnC0DUfb1DW/3bO6rt0/vX3s8TMPvPzg0588//SvPHfm9XOnnzx76fLlY8dO+N6AxCnp2GCvxTlGwqrrwDDSc/3Nja3to4ePXTtz7o0Hr3383HOfvvTgLz5y+JET2xcO21uu03cd23EMxzVc1/Ad3OXHtPuGC2TaA8scWN5wcPjQoQdOnnz03IMvPfzUW88+++ELl7915fjTJ7evHnJP+dqG2TH1Xs+0e66n9V0zHMGS5Ym5c+BsUwPxBiMFHaZY6zA5t8hcKZhGw+AKszXIl9kgdhUPZYWdH6p12gGQ5jNazTY1Op5eAaasCKWjTJYUXdKoNXThBsSGGzWMgySUpQyfAVTCnYcJEmP42c3PlZW1KYjmnBKuOA5fSrnS8+x1gFsC7RogltzdW83ejNZ1yefJ0B1ds7odA/xmdI+kKKA3wCeANnGJOT5g4ybXwD53TwSVuILKwjArmLTJ9fSR6T70oNHBDs4wn2EaNgmcYKbUgsoA87ntWJbnmOBF5BobrrHhWBswmBz4G2cOH3/kzNnnLjx249q195448+q5E4+cOnXmzNbWNmiYPT1w90E/KgjjSM9F+xMIW9cfDjc3D20fvnri1CsXHn7z2hNvP3Ppm1eOXj1x+MIx/9DAH/Yd27UNxzZcx/Btw7csHz0afcPxXX/T97a8wdbGkSOHzp88fvXMxeceeuz1J699//oDL1w6/NixwYVN47C17nRb3U63o9s9t28OXBPNgejqCHwEbRCkJZFjA0zt4HwyKPY47DQN8FUKFCXUp9BmATwIFAcc3QSVhs4YtLt6u90lNbvThi3tiRGTo0+ruR5MFCUxdJLkZKMihRzELGiwsNglRe0MDEsRFGN4iyIRBrv6udKADcr3SiHSJl+Rcbr08vJqYK9iwh91exgVN2DNWbPR7bSNxlpnRtd8UwfND/0QAbHo/g74BI8ZpF64nwOLmQhYjPXuITDKVkfYbWic2I3w/OzP9Lq6rsG0PkEI4IRGVNBeB77b73v+wPc3+t7mwN0auNt9d9v3tmxvYPY9/+jm9oXD21eOnH767PkXHzjy5NHDl44cOXpsONggPyHQinE6B6dAQB+meVofhsr9vj/YGG5tbm8Pz21vPLZ96plzDzx/6dgjp7bOb2+e2nY2ffDjsF3X8l0LZndce+A4A9sd2N7A9oauO7QtMES5Gxv+4c3Bqe3DDx4/88SFs09fPP7Y6e0HD3unBr0No2V21jsdrWv4Zn/T3eo7AwdtxY5NX+ra4EQFdmNqPnLVopEnmYvAy5cMSGh2Csc4ga2RoEgtSLouKlbgAmnjzDbZt8gyD/bStWZ7vRMo2BN6FuSGro4AaTSO9Hp6YHCGQSbYHdIoUIwbsLAxxDYgOWXMmTYWhfgGOiQxub3bAPp7BZotU3GjQMJa/NWVBuxdTFiNjaKDEW8TENtYQy/FlTZ4KdomHGMHE32WZ+hgTwoottNK/EydyUN0el0T1ojErPO7CqP7eOIJFCPozQD2Xm6lFgl7DE0Sor4KQAqmYUBp7bv+wANHBZjE6rubAfW3vP6G5XvuVt8/OnSP+4Nzw63L2xuXNjZObG5sbrmuD167ugmqL4IzmJgFx4xgEEvQ7feHg42hc8i1TtmD8xubF7YHpzf7R4eDwxvOwAd3KdNxTB8J/ShoPtbt227f8zdcdwDTxYOhuzV0tvuDk9vbF45tXzw2PLvtHh8YW07H1da1Ths8GA1XdwdgvoKhOWAJCUfXICpJomo9wAmpuB1UPSCMaggxR6bNjlVpIBLRHEDsybZc2FUMZ3R09K+giZ91hGua8ZbASduRkcoGMS1wzEDs7TAQDYEKD6+tNmnEmDbjkh0PafdIqyswWE0k3Fw6WWivhl6KAaMB9LJROmCVTqJqrHZmbGvoWEPPxTlVd+DYwQIAMjih4A3HsRotZHHZLRbQNbsbLt3Yg8QL15GSpXHsmtGcU9winp1WNnB2xflYwhLBFd0bXHTi9SxwL/Et07MDAl8o2/V1yzIcy/DMrtPrej1jw3C2bXfDc1yPZqFItwwyZI7EOA1moUgn5JiWDYtzvbY26Ol93eibVt+xPNewnHZHB+MCDElCMmBgDWTanjfwvYHr9b3+0B2CzHe2Bv2j297hTX3gdFyjY+ltvdfpdrvtnt7WzI5hdU0T3f2ZYZ8Br4c6PDgJkwKMAbpLqikbu0ZrAOBbAOoRoc5MOrZhWC3c8J7GO8xQ3OvpxBTSWDMZqEiqk5BnoGUjvR0Cy6swMgx3coTw3ikReNmRAMuYNh4PLy+nbqYb3wmV5pNhqgmNeZ22BofUoRwFy5Oh++ilCCtCTMOZ9KAg+xOBM25GHg07sOYjaUCSERnMziXJycCKuFehnf58vIexzsQCzD4E4m6wMRhs9PtDXMoz9JwNIhdmRAYumG6BPG/g+QPX8x3XtWwblvKYhu1Yft/r9wMpDZM6/mAw2BgONwf9oe8PSD0GvoC6cR/dejz0ZLQsA7x+XcO0dcdzPL/vwLKEoW54JpzoO7DDHaTR+wq0ALJgkeOU7Xi264GTv+M5/aHp+ZrlaKZtWI4Fyw88z3I9mI91HN1ywWOZbMWwLIHIwrEoLoRwaLwNjMZ2CdjkU0nPoPwEXZ3Isd34/G006drRuujVTJUfrD1ErMIzuCQg1K7DEXI4VKbpcRgk0wgZ1+gxi3HkIxHzXQMdkvlCj3k7hK7RaQmT45nNObRsMQF40wO0AxuhNJyICjZF6HbAStxe19db+tpqe6azbjXXNNrlcHWlubLcpN2b2EnK4IUcEhz/nkjN7vo6HNS1N2qFvuaj9R7wmL3mlvl8tm9jJGNtctvCxQCWgxIV1u7YsHSG1u4EHrmO6/X7g8Fg6Ht913Z92+9b/sDqbzhDH9bWQlcj9ynfD30Vce0ODZLpFiDWhyGloZu+7Wz7/Q3P9y176A+G/U3XHgwH266zaVswWLVtor4D5mNYUeC5nuO4JqjNtJbNMwzHNGH9QDgJ59qG55q+BzNDng9+xbZr2C5iGMbqRKQbo92YLNjAwrD84AQCKIL8AbqMKYfQYlwPZ91xQh75JhOeNElrGmDpwIExLBXWegZ4NaUvpqcJW9DPKbeu3glnd9hczmSA5pag/7Ap2dDRcvLhHWOaUyF2ba0JkzRJRMfbJaIddg9HFYDJ5MhwhahcrMOe/vXayszaardeb1QrS5VyXVHKslSiLbnjO0uwTSTikWPhUqmyZ0o/eUmdWKy858xHywPOqJXkc6iquOlOHTewJqMIeHuurK0sr64urzdXeo3VXmO1s7bWXmu01hpNcJJrNFZXV9fW1tqt9dZaq7G41l5ud5c73Xq7t9hpLbUg7WqD/FqI8VNDkr80SQM2RGy12rBX4GrLaXXNRru91NAa3W6jt1Jvtlt6Y63XaPSaLb3Z0potrdXqra+DIR0Gpu32emt9ba2xttZAK0W3udZeX+t2m8b6aq+9piH1Omvdzlqn22h3G+1es91rtTtwKDgS8cpY/yZnOhwBNsjjmq6wh1hsEpJGWdDpMYexXsiMKM3m+sryGizZQb8leoxGtu12FzplZJIJ5yExhuZj2Bthp3JUKet4bk188U08TJs5RTGxNWFR5C4W9AQPx5JXdx+u1CoTS0SDmFEv6Hie5XJVVWHFPBzLogKUykDVMmyYWqN9V2i3lpl6vVEuLZZgm4iyLMuSKClySZHLslyWJaISHD8TEIscC5REUd4zCZKQsm3fDvGCJMTS8km7+EQ50MOCJDKKFVUSZUlSZFmFc3SQTVA1AYOAMyNqNTjVdhGpHlVxrV6uVMvlSq1aq5ZrFbVSK9XrpXpdrdeVerWEbUaMoAZHadC5deSTAL2qBsvBFutwLvvS4jL0wmq9XqmvVBeXKvV6qbZYXaxXFstqtV6Ft9eqS7XaMlA9vm6R1pTFD31fqteW6rXlxfpKvbocUGWpXlmsVyD/ehUpdhgUfFEFVi8zdsb6Sinc4JN4paqWK2GHq1XrQLGuj/ng7r50K3YXZmJr9UX6TFzdxj48SlUZ3xkY3oUVSG+poi9HuVyFUimlVMJOryolhUguyXKwJECBJt4bsbTJAUmRU0iSlL0SYEeQ4giCnhkQHJ0hcKoklhWpOlOtLKMIrZRKpXJZUVVZVaHv7o2Uqc4pDGtzskZovUX8A+Jhqg4WA+idIHaXDlCRQpQSRCkHWQqbk7XxaEBVkOeF4hoYXgaVqoB24osZj8VuEU6qFeQFwJsj5DAIVdD9KO29wLxjeIuHyyXo3wGFB89QV56s8N3EACsfrR/2U1X22GH22sH2+DwrmJLex3bzyanPZGAy7GmsB37WgKCIgirwKu1JNlMtL+OWaOVSSS0FiIVTLvdGUyI2YoHjVYMrpBI/NQ654IEJuAohuwrgKikRYsO6ZnAFAZvaEVHwgq5SDoRPDG9pKNp9fByxcbCNhTMyzERsCFfUF6hBgy+dqh+n1ZKi7J3F77WD7fH5qKhTfel4b5zMJOxFCbL01iAW942oqEptplJeAv0YakQtlWRFlVT4+1wQm4ITqG5ZTaiLpGpKBC1FjuQgwiJJFhNvElCWUkoC2ldYFdHo4uaB9gtDbMr3ptUDxd9ugpQ1zWQg+pBJsN2UmKSuGPSuW4BYgVfptFdFrs5USkuqQqNeVb2NEJsufsMaZ/BLFsVhncJgQ1bl8CeNWgmxGVhlTR7vDTcdtD9niA2ZV7xObs8wa74vi1Zcgp19xTIgtlxaxE2DS4qiqKr0OcvY1PbOEAIhYuWYHB4DLQNzANcYYgOsZuSfdIuVk0B7szTkLwqxcd2BfdqOAfbt0fA4HCfvmPZzfuDLhFhBkAVeVaQqKcYBYvELAbGy8rlqxdM0JCEqNAMycE4GCK6BII3hnDVn0HGTIMqeiQeotDdxTHsHsdN0gF2I+qjVYu0eHwp91nBMZRvveDdbKxZ4QKyq1EA3FsszJRXOg0UzoIyIFT/Pcew0DcYARqCVkke8I3DFgXGoCQcGz0jOsAwnA2F7Uw+IlxbE7Gce0N5BbLxKb2L4S4ZYkVdLSp0meBhiVVmRFVWUldsFsSDKkgi2Yw+hFXDKCdAyZTgaqY5hL2ZSiqbvwmxZ/mwUxGJYr/oqIjaY1qfJ/ZErq5bbJMDai7XgZxWqYf8Ju1z6jOutkbEltc5zCsjYsgrjWEUpyTIaikuyoiTbTiOhNKmWTDe7M4mQMCbzXbFZwXBOfKw9EtoJ1ZgYkmOZhC+NmpnFgDMJTruzmDBA7haTI7rsGHBkmZDMwTRsGB+fsIncG9LdaEhQT17L4SATihQ2WcI3hl9EtzIgR8OBxA/MSDXlrdFS7Vjs8QdiABvXWjMU2tFbrLeM9S74OfrkyCumQ6wgT/oUhDGKJJRkqSrwKs8pgFj0fgLEqqpULqsK/CV36NTav9mITSvA7uNZLY/UJtmNsTkj8ZvysdnvyuIpITwmqytLMpMEQ9wy0AJi0d1nEpkIsRoAAB65SURBVJA7xkyJ2Lj2kf4hk592c2OyK3/Hu0HrTyhfY51hx5+sF40Hbj5iE7yACLGiAKJVFMqiUCrkRdCKVaWGMlZSVal0B7G7A/BNRyzJLuYyFQctgDNNxqbHf3URSwL2M8M1PhH4hSNWEssCT4hVIsQqqlSCWZ47MjZZxYiz9luEWJw3CnwhGWgnFendxIyor6G0jH9CYni677q5AjZuqkgsZGokDmEAXXG4gndu+rAzQ1qmuA2DtpyRakqteAcZS0fnoIxV6jCOlUtwEq0iTovYnbt4ai3vTqbtNTljimOaD4u/3bTiOMAYIAm07OeeAvEM9zCO/XnWilnjRo0e4ieKyQDbTbkVvnHMR2CHn0mettE4FtcACLyazwkzKiIWvRHIUCxnyNi9wuYLfD6h8bA9WPxth9jQWZ8hjeGTxUwf+GrIWGrcCJwx8ESRNwWWGZnEXroDSuNPZiCWlyWxpCo1nlNyC/yMKsN8LGoRdxC7B01hOu0xw/JUChEbt0ITaKcHKjMXfxUQC3piTPslPIRIGLkVfywjjL7oaahLzTCOw92Hw3KGcjWmJPOyKJRKSp0ryhFicXWbIMuCokoZMpYJqMnAFyhOE1/NSjhWsyz+dpOxMBSMaaQMpbRoboqB4shkzFcMsQHMYjAY6wa7+nnbIFYSS+USInaen1HkGjgZw+o2QZIFRZHS5mPRnhwsKGX9ngUSYfMFRrKCjbUNi78NEQvL1pJAy0ahe8LtVxaxkVT8ciG2WJAW5jmY3VHkKvZjWVUVFaZjkz0oAH6hx0JC4NYYkBIwH3oUM+wlB5i2g5oJWOqJYnPr8YQMwICZkBLeHn5mHFp7BBJuC0Kbg8SugYyNIXY32WZ45+O2I5FnUiC08Y3Ru8Iv3c0nZ9TGdLcyPnC6DCMrrhiuiA42HgkXWsbVVEEWhb1vnBLPYa/hLDeJmBocYzSoJMuiqEqiWsjzhTw/Uy7VVQV8nhRFLZXKCNd0xIb9dboKvTmpUiAXhx9b1sPYrSTimrvMtKx4UU9K/96pERtlHmqqnyUGZ4MiWI6gNHSiYhYsFsgQ2qwSPodAxodP93bWBwLFKoYoimH9QYyhIoqMPX9LImMvTRivptyl3WQ4Tsjni8UiTx4UdxAL2v6ImCU43f6ITd/CLtEjMjBlpTOL6aAyXao7iN0NbhliC/lisYBaMchY2MJHLcFsrJqlFaf34OnabJpUmXJyjMsyTimJcqAVM/V4PDAB2syPvV1k7B3ExppprPXZVkFs+xHWH36OZCyhmueEQoErEGIVhcaxSkklj6cvoVbM2mzMEBX/Se2NQ/Sdp3luI8TGBsMwrA3pjoz9kiG2WOQRsUpNkSvYWRVVVWVwoPiKIjbuR8o05DQt4DZBbIZimTn3m7qPV9r33or4jMJP97ovrYyl/X05MZ8vzsAyABlmdyRJ/nIjNtKIkgwMTNiyVo+PbCc70B3ETtbJXmPuIHY341iBF3lO4DhB4MVcrgCIlaUyIVZRVElKXR+71/a4Vc9PNY7NhivdjUDL9jHe3TaLGT3vVt/KqOQ7MvZLohUjYnlOEAQJEQseFHcQG8zLxUBLBwWkDhBuExl7B7HxGmD6UdCOMWWKYiLGHZtKiSJjz9+SyNhLdyVd6fkQsaIg5RbyM7jROOx+Clsp4jiWffZkIF47uw9P5kMxO44Vk1+RIWNxJ3E6+2C8xndRWfFjFKiBd9x8PFmExqyXY5+QhfP0VGOZ7PInHuKSsvPObt4Vr+dM5xNoTQm2ZUimeD6j4YwNkBN2EQnTZnx+0NPYhvJhj2c7zke9Atwn6GAXdlhGQiB6fgzMsUNkovNidj6SJnCTiM6d4QSeKHYSTRzMZNMWBUlRShzqxjOSWFYVPM5EhVMBFEWR5VRng4zKSr2V6aKUmiqjS4UtN8kIss7+2AVi4+36+SN2mqrIqKVRh8cxzrKrd8XqOaiNcLCQWPP0zOR18mEWk4FY9sxkIKPw9DB1g6Dfh0hIxV5s3/nxwmf4FQtShLrwFbuJoVLRk4RAdmXJGWJJhAiCJIlyqVQpFjhRlGckoQSIVeEAoq84YpmMZS33ecrYjI443a0Meb6rDL9kiGXnpI0HQgdG5tbKAnR61fjzIJmFzxexoiiX1HKhwMmSMoJYVS0pIGC/ijJ2Eq402ZPWuTPwkLE5Y0aqtBdNHf9Z33XbIjbduT1DxjLBNRkIj5Ab14pFMX23tL3IVSY8eV6cTsaKoqyq5WKBU5TSjIgydnQc+5VDLFOZIukaHFGZannCdTZl0OsmKBtjk89TTHaqKe4CYifKtod3fR6ITSvhzme4TGrLLCZRK54EKothrT8eyHDc/5wRi+PYQoErlSozIq8qckVVygou3ZHh76uF2Enpyo69m9I2ljm8nAJ7X0ySW4/YjO9i8JsicPMQm76e5vNFrMCLkqQU8lylXB1BLM3HfuUQO2p7oC7ylcYqcZzbFbFMD5oMUNslIjaumo6FmbAdD/BTmpfG8o//pFdQDLM5UYA9xorBLE88L0qiXChwtVp9Bk+SLStg0YXNJyTpqydjY4jdA1xjHXpMDmShfbpUUwntsVLFf2aVkL0rVlTCBlM94llReBI8LGby4c8Yw3KeDLDCREPQXQhDhpDxwO2EWEGQ8vlivb44I3CKLCFiJUWRv9KIZT0y4zDySJGLdeixLpiBh7En4z8zUkUvZXDaRSCe+Vh4V++KfSBhg9XPWG5sNfIkhOKu2pOppotJfEtQQizzl03G8hLPiQJPiF0Cy5OC58cqCiwDCCl1d5jpavkmphrvbXjQRpD/+C61YP2LzAlJZnoRJ7uCqf9YH6UMx9+VhpPQerlzKnYsSJgEXkGUlnnsmK89VWOUM3tFGMjIJ9i5BqdzgVNgEqofQAXs/ZtArJLhLs6ORN4UE7Wa8XZ2ixWexYxsQcwmYBID1OjMboSODUznnAyMi9b41D1zisBIZvKIZHj8YQrz0pi6y36Cs0Rc5jP3CYxnnhjwFiKsalFUREEReLg21tqhBwXOx4JCnOlBEVXfVM1wU5KDhYwtyA57+VjOERuOIzYlnCEHoN+ErxgLRHMnsRNMqBgZqcYy2eXPsa/b5c+MYmTkEPuuaMkhPc9gmRGIEPvZegirmaCocV6ciNJYZFS8GJxGoBKHTTjjkoVbwE/ox0osKaUvEZIZRCcDuykGK39QmaIqCSUcvVbaLR3mY2My9ucKsQxLo51jT3CldbNpPTij08d69vhZexmpWEfcUyCteNnxGcXISBh8F6vbmIRnPSkjcJMRSy0bQ2PUuOmRUfF2iVgmSBMDYSYs20BxY5JwNCCky1huTMamMI74i+B7RVUUSiJfksRyp22gVixXaD4WFu5kelBktPTndgtnoWDztKDTB40a+bUGjcq4YOBBGlOP2S0MfFllbLBaMNSEAcAhZTQWacURQwkxI8Num6l1yG4lIDbN3zgznooK5YxL1ySFHN7ICGHMChPfaCJDuGXfCpRVxG1izmPCmefFSdHKYjLexfJhbwkqkxArlEShpPXsELGg2qkSWIqzfJ4yWvrzvMWwGviLxxuVWC/1LcTqZEWwGqHAlxixUzRKJJlpBBs7eXGs3hJ/TiJ2N1Jx8pmg5PGW3Q2/mA6x8fHkeFgkjAFuCbSkIYeCl/UuFrh1iBU41dS9cHYHzo9VRBHmdjLmY6foAbciCSA2pgmPt3fYtKwSg7oO48e62h3ExtuIEBvFxJTPsXpL/HnTEIurDqKWTWm7sTLQ81FkDFepwo3LEolxPZaBFlaMxHIe62Y3HbFoeQLFmCvKjj0YQ6yYPR8bNWQMMF9sZFqjsnoMeaQUNeRo839ZERvVTAx1FAmG3N20YCxhWu2NxU8iduyBXf4cKTy1VzpIWFtTqugVsSRTI5YUWp4DYRuBdnQIOpI5roljavBYYOTJ0UzYV7DyU2WioViVhHIxL3nuRohYGXafEMWfM8RG7ToKQvbxrIIE/g5iozNpdoXYvcMVzHhsdifkCKz/7SnAWjZIFcMea9zJwK1GbATaUbCxbgaBW4RYsVzIi4P+9gzPKZIIjtc/d4gdb9QYaKkt4/V4B7GsukCn2FHGMrhmrBGNVThD481FLMs2QwuN43YqxArFIp9BTEiy2VSyRcV710j4liE2nxOGg+2ZQl6EyVlYWCSKgigI4MGYQlmqVLxDxMMyuFIFVspAEwt7w879JuTTIypcmDx6Cx7ZQGVmLJnmoFlzBuw/8dN27L6JxQg/Kj6iHilnUqrIrsNs3bsIZDsVRfUwWTMpMRk1P5JbDJNQk4mTH3FdESVh6ACAZ2QwN4YkIYkSSQSFc4yCF0VvjEMignGseBQp8BISqq+jYpD1hMlAPPOx8OTDbBA79uRufkZK9URthJWGvhPj36WIOB+bzwlHDp+cKRYkUSAbuoxiFk5+TiTAXnr3yuqssKVIaKaPDkQBvpCRYcatjHclljxbqkyHooziZdyCkoe1sYdAEvgzKmHHW1BL0BAJhHNCJfDTJGcy3A6GahVQQWfVTFyRXSbklvgKFpmBvTTdkucE7NyJJdm1s9EomJkUnQyk4pDLksyT+VAMk9Kp2Y4WjB4T4DRKVeDVQl46fuwMaMWyhLvXAhoVWZZFMXXIB7w5iciTM60Bgg7EGEGMhaQBLCs+lnz8jROsK84jxx8O89nFcQHJX51YFTtFTuP+OeJrGRY77XN2GZ+iRslsFjdkLsi+UTcZkQOjbgNZKkyiXkORSX1Jxn6S8RVpJc+qJUFOUxAAFeMzOuHeS7jhaGJCMAgX+RSKkk/kHAj/xDzjfXUkzMsCr0pimeeUY0dOg+VJkWEjediAAl0UM9CSJhYAsRN8N4iB4zNCAYusPWgMdPti7HYvgUT+CpHwnYFeNBEIptES0iJipxJ9U0jLqZJAX0yr3qniUelI/uSg9ePDV8YHkyRAIAfYM3sJZPY0JaWzKemMI+hpkwklSRnBwGghMyReaqp0N4kMQbqDVpzCiwVErCJXRaF09MipGa4IMhfFoEK24lKpzE6CGA2kbiQPLlOxcV08jKw6kFGMOwJoBZDkGQpk1q1dvGtc1qUkIZU4clRmHsu3JgCD3hTBkhWfUfipbmGfTlYcQsSG7k2ZA9HUDj0KibTH4JNTFP5UGStIaVYirsinpsrY/yVzx6a0ktOu3xMiNJSue2dtBIfk8gtgG8Z9xasnjp2dyecErohr7XmxUCjwPI0TwtUDMeUHdqNK0R9ATU9REnhOGAcqNSd+VVrtZ8envQtSFbhkSikeZJXyUWkf+1niaV88ViG7DGTqYGm6WVZ8RvWO9NH0njcml9JGbtnxZMVJlJnJeiP1mUJKKxf5tFQCD9sRJlLWKhxc15WWKrHYFDlSh6PMKzE3iExnXpIEHsWKXFWV2sULD83k5vlCHhYBcRyfy+WKRW5+biGR5uYWZg8cTKMD+2cTaf/+2fvu2xfQvfffS3TP/ffcc9+9996/f9+BPVPKiw7sn92/fzY1t/RUB9I/Ku1jp47ft+9AVBusWnYK7Nt3ILFup46cnZ07eHA+keaw9efmFuYOzhMdnJ0Laf7gbBqxZ25OYH4uNz+fRHO5xGJTZHISzCefK6RRbiGfTOlJ8rlCbiGNUnJbyOcyMsSTJhOFDVfE2RyhVCkvXn/yeZjd4TkaBIr5fEGAP1g+O0k8LxbyXAoV87lkKuSLJJRIMMbFYKHApX92WnUU8LOT35XLqEeorORU+Xwx5aPSPnb6+GKRn0JEFwpcauHTPiozfn4+B5hMooOzc7Ozc7MHDh44cDBggsQK989CTAoBr9w7ZTCvu++6564Uuvvue9MoLclO8XffdVcapRYjM8+03O5OS3X33ffec899ibR/38GFeS6fE+v11e999wbYinEcC04UHMfHp0+V0TGSLClpvS1DK0a1M5qhpjMww2uxUJiCuKm04tRUHJeNoonZwrHJw738zNYSU+8WBS6VsrTftIriOD6NIusIqqA8XOGYJvSwFXg+mdJyy47P54H/plKiEMsViqAVJ1C2AEhkTxSZJrTnDiYztYysps5wfj6XVg/zc/kD+xfmDhZWlloff/RjkLGioJbUWrlUL6nVSqWOWjUs41GCkynpDGiVdoGSJJi2lWAGCAn9Lsj1AoSzIAhBo/LBX9A5OI7jikWuiH8EVDgjHv/gXvBX5DhGYdzE/zScY970loQry4bnAaM8z0NZBSgBu8UhfNktjuML0DmEgCLYiDyPq5yTTbUKeG8nEZrEVUnMINhqAFxJweQTEMUkXEXgoVir8L1htRToD78laISxf2FbJNQSVQwiM0pEwIPfApdIRa5QLOaLXAGajy/yfJEeg+rFGg7zwpyguqGVi8VCsRiUFv/lwz+AZaHAF/JEXD4fEcA1aAhkpqAPylQ5HLj1p1AxbMSCEMuZz+dQ0csVc0j5HBcQqJOsABOBeK9g3YMCRYHnpDRKKx7PS9DcYBaWedgmBnaKgYeLoALT7I6uOb/2s38M41iRL5XVeqW0qMjVcqkuihL4P+GfFP4Fv0VwigqQSZ09bApUp4P2CTlrAATWaKy5OIAuopcrYE/LF4pIhVweqVDIcdD8iVSMA2winCY9qJdghmGXEgROEDieL0JvI2JvxGc4ji8WRa4oEWE9yliDWLMchCcJ6x22+Zgk7FiqKCSQwMv4FrFYBCpAxwqoWAgi6Vb8itIPOc4oNywUisXsekoRs9ieiYKURxwWeCGJ+ALPQ7wgFAWxKIqcKBFBKtaOAbDDtob6F3loAmwFjge0A0FbASwZr4yDB+EKXRkIFJwQHrzEnh8PFIUYEhAMlLwoFgvCwkKB4JqDoUTAGuCNxDWSrpB/MZkQY2GRWNnCQFDs8O3sJ89JEZtGBiSAMADeDYZiuVqrLm9vHf3t3/qdGZ5TFblaUuuKVC0WJNqljXlEoLyFOXQyqYGOxNwmmTcm8Dye2cdQj8JVhYEqBVutRmbrmOkM1a2I1wK7BY6bLxTy+UI+n88lEhm0o7dEyluwlDHxFsdxlDNdibsXiygTQmbPfkJ/ITkMnyAxTDIEEuQEHjxRJkkUVEkspVNZEhNIFFT2Ip4j9ErFAhAiWeaKkwSMOajbwAIPBgiqgVQdG881TDV1pthU0T9BBEfWJGINh9ULkpNR0Jphg+byuVxuIZdbWMgtBJI2Vv9hGxVI1wlZP8/0CNDLSEOKcRx2F/sN9Z6RK/YpyDt4AAqRx1LkcjmS63ALHguHaSzPtAAr214CCUrNWP6UG+h/8IeOw7zEFeVKefHUyfO/+y9+j1a01/Dc52oxL6lKraRWZakkwGZQsiiqslRS5LIMJmaV52Wekzgi5BOM38OtpLtcUUTmAbkFQp/xG8BDpJGSwgyqEggIkBGJf3j0bZAVy3PHAGqPQX7YUZj8hwLENTP2UuT0AgImgArPKUQCp7LwZEDgVZGHbT72RgIY8SWhDFuEoB/pJC9IilGgpXDnLhQjUStA04wpbOFPkEvUXhPXzJqMHH3H5lHAMJEv5gMKrLI4MENs5IK/hfBvHv/C6FwYvUDx8/PzgJ5AFOcLoeaVzy/k8guFQi68lYNwSDAoDlAIHGGE8guM++fydGt+ITe/sDCfy82zHAqTqhbTuRICbPg2FsABAssqFoBiM+YxFmCP0YtIDcTBBccJhbxYUuuXLlz5vX/1BzAfy3OyLFVKao3nlJJaV5WqKKiFvFDIw1Qteh2XJbFEooNpdEzgCLwyIhwi+SCCOlcItEoKFwsi5QzXAo8GFbCd4AwhTKUCk8sDJw3GyWzAzAKBup+gc8aLMRbGIUGgMIP9LBhsg4bPcXzImyMzGNjZYXZXLOTlYl4uFhSuoHBFlVGxIOdzUiIFSSjhxLWQlxOJ50qiUBH5soDEc6VdkMoVFaa0c0WJKrkQr2Rsx6jO4adYzEvwUXskEPKMX48GqDMgyw51+0Kg2OdhfIjmpYX8Qkg0DUNzKhiZW6C5HJpZnAcsLSzMEc0vHJyfB5qbPzg3Nzs/fzC4lZvPARSRELeAxiTK5xfYwAdhE+Ac0iL+wzFRPlDgUTmHUUA6RTo8U+YDlT4VsawMCQGuAMMHlgPZBRDGAi8qcqVeX33s0Sf/9e/94Uy9tlQp16vVxXptWZbKJbVWqy4rcpUrSIW8yBVlmr2VpQrskypVFKkiA5VlptqhcAjj6W6FFD8SFySFmFJHmh5eaXiG44GYPSCPg/506yixgEkVUYY8oTsmUD7Hz8/lF+aJCjB0ASrmForgNgIyBwgkDNp7aAgh8CpXLPFAZSKBqzBikWMBgauIfDWRBD5KzvKhgCTUZLEuCTWiePKMVAIPu+wxYgKfK8qIougWe0bg4Yu4QnmPVBK4gJsQTxm9liBbDjhIsSAX8lI+J+YWxNyCkFsI5vAW5gtI+fn5PEy3zuWo/hcWKB6u83N5oHmSuoDY+YW5AKuA2Nm5OSQE8AIhFrEKGABVKRK58TCKXxCnOZCrjBFAzgsLc2Aw4wPCsXqRF8ByJojpBGNvemzimg7yDPwHcEUBWyyCEZ0UilxuvljkVKW63tS++eKrf/D7fzzz4osvX7v21NcuXzl/7uLJE2eOHT29tXnUdTa6bavZ6LWaWmfd7LTNVlNbXWkvL7WIlhZbS4tNoHpzsd4gqtcb9foaUG2tXlslqlVWSuoikFJXQ1LkuiLXZaka60aBwolDOHCcLKm1FKqXlGRSlboi1RKJOI4IzAWVT2Q3yHoqqlKtlOuV8iJRtbJEVKsu1aur9VqzXmsRLdbXiZbq7ZXFzupyL5HWVrTGqp5GaytaIq0sdZfqbUbsXYv1dVaAiUCzVlmtlper5eVKealSAiqXlsrqYlldrJSXqpXlJFopKysleTWRVGklhZZL8nJJWUohuKXKi4pUl8S6yFf5YpkrlIoFdZSnBK1M7LuQF/I5PrdAxC3MMyrAOBP/QoWZ6cvzc3Nz7AfdRQUYnmbxY4GFhQVm6wyt06Felc+Hr4D/TFFHLTo0XSf9Z09OBpIe3yGuWCzSyBWvwSiWwqCkLHC65rz5/Xf++I/+w8zf/e0//NVf/fX//B//67/85//+F3/xX//0T//st3/rn//0V3/zw/c/vfHmh29+//0333j/e99959vfevOVl17/5gvfevEbrxG98PxrLzz/6gvPv/qN51999pmXHnvk6cceefrRh68/+vD1Rx5+6pGvB/Tw1SevPnTt6kPXrjwY0EMPPv7Q14AevPzopYtXL128evHCFaILDzxE9MC5B8+euZRIp05eOHL4zJFDCXT40OlD26cS6djRsyy3c2cvE50/+7Xz57526cLVKw89dvWhx4m+fuUao8cfe+bpp37hmadeArr+0rPXX2b03DOvPP/sa2n0jee+lUhpzz//7GtPP/XSk9deDOmFJ64FdO3xb1x77PkUeu7Rh58Oq/rJh68++fDVJ75+JSCq9sTrlQefvPK164n00OWnUujJyxcev/TAo4l05uSDJ49fPnH00rEjF44cOn94++z21pntzdNbGyc3BkeGg0MB9Q8N+tuD/nbfB9J6Tq9rdztWQG2r0wbx0GkbqyvNlZW15eW15eVVoKXVpaUVRouLy/X6Ur22WK3Uy2U6/RjOtcig0F86MIKiJhUchBVfhRKsIgBPhKzc4NSblEUdilwa9caHZTYBlSrlUjWRVKUMiz1ERZJgi+xyqVqt1Ou1xXp9aWW5YWjO5YtXf/bT3/h3f/ynM3/zf//+7//u//3d3/7DX/+fv/nLv/zf//HP/vzP/9N/+5N//2f/8nf/8J/+1u/+5m/8zj/69X/205/8kx/98Nd+8MEvf/rJr336ya/96Ic/+9EPf/bJxz9l9PEPfvL+uz96/90fvffOJ0Tvvv3Ju2//ME7vvPUx0ds3PorRD96+8YO3bnxIdOPGhzfe/ADo++9/77tvJ9Ib33v3xvc/SKQ33/jg+997L5HefOP9IOc3P2Cve+vGh/R2uHUjiH/7BhSJ6K0bH91486Mbb3781psfv3Xj47du/PCtGz98G+n9d3/80Qc/SaYPf/Lxhz9NpI8+TEnywU8+fO9X3n/3l5F+/N47P37vnU/fe/vTd4ne+tE7b32SSO+/8+kH7wG9/+6nQROErfD2jY/egrqdpI/evvGjd278OJHevvFpGn33lz54/dvvJtIb3/nwje98+L3XP/jOL733S9965xdfe+u1V268+tKbr/zCG6+98sZrr373tVe+++or3wF6+TuvvPw60fPPvvzcMy8998xLzz7z0rNP/wLRM9e/+cz1F5+49uwT1565du1poMevj9Hjjz316MNPXL3y2Ncuf/3CAw+eO3vp9KkLp06eP3P6QhqdPXPx7OmLZwK6cPrUhdOnHgA6+cDxY2dOHD9LdPL4uZMnIjp18nwinTxxniUZC5w6ef7c2UtpdP7c5US6fOnqY48+ee3x609ce+aZ6y984/mXvvnia6+8/O3XXn39e9+98eEHn/zqr/z67/+bP/q3f/gn/x9KvlVg4Ao4MwAAAABJRU5ErkJggg==;" vertex="1" parent="1">
          <mxGeometry x="370" y="400" width="146.25" height="78" as="geometry" />
        </mxCell>
        <mxCell id="-GH2pdDdH-t2QKyGOY7W-6" value="BOITIER OPTIQUE&#xa;MURAL" style="shape=image;verticalLabelPosition=bottom;labelBackgroundColor=default;verticalAlign=top;aspect=fixed;imageAspect=0;image=data:image/png,iVBORw0KGgoAAAANSUhEUgAAAOkAAACOCAIAAABbpLhWAAAgAElEQVR4Aey955cdx5UnqP9gz9kv+2XPnv0wO7PTPa05M21H21JLbaRpqSGpORqpZVueTYmkPCWKMhQpS9CJ3hOGAIgiQBDeFMq7Z+rV896mj8yw6b/uuZlVD0Ug8xEoljRSN9/5naysyIzMyIhf3rxx742It/me89uE5znp8N76/b7XQDqX3PjRfN8Pol/4pn9vS7/Zb4TT6cR1ft+b7a3ye56XTqe3uPsWQX63a+At7v5ut89bpUuvgd8qd9OL8QZHgsAJfOG5tu/7nhcK4Tle4IWh8FzHc13PS4Tnw3clEYHnh0kIPN9xgxT4TnS7a7eu57q+lwxQXKCQ1wLKnJLL80M/SIbr+2m5Jqbbrp8I1/XCFASO6yfC9fx0pNXepHR3ey25ru06m3CcxGYKPT/w/MSW3UwMXA/gub7rRoWNdhw3bipoZVvYxHao6wrXdTzPn/x72xswdNJh2/e477tBELpuSKlLuUcd12SUcMaESAQXNreTYYuUA9xm3EmHYDwJQsC9ksCEnZyFC5Z0fnwRYXvC9hPBhZN4ozdItDlPBJTcTQQTDoPaSAKU3ElEetVNqFV4IqgogKB8C4xTxpPbj9sivXG3N3pMDMp5DMZtBwRg4Puu7VDbIa4ngM+uP4l9nrdz7rqu8DwRBL7rhpi4BmK6yTQTqwjpCBuIJgKZbCewGEpD2gUtbqYAWXwCdjdX2tVMzBEmKaAm5olAmCFME2FiahKWCMiVVnvp6SYWUIZxXV2pZ7qTFoTsNEZEDKKjTSDEGHE9LwzDwA8c1+N+YAdB9HXe7OAlc/hNcNdzPHhRPGSy4Qj1R2ik4pFuSoYpa1hWSRoUjSZC1qiUBFkjmoFTQDSDp0FHYhehGUQ1cCI0g9/4jfi48W5kB+vISgE2zGTcyPWvUMrYVntXaljnqs4Sm0nSqJzSstDcKpVVKiskhqQQScaSjEcyHo1MVcGU2L4fhKHngkB0wjDWLJNZG6funLue5wnbMRDudOVqfdjq6kMFj3QiISKpZCQnQ1JoGoYaTYMKvEkEVXWRDMPWdhWKThTdSoRmiJ3cCzEtFVRDiSAawokAgprJ0BBJuVriLTYTdeTE0JATP11cz4ou0pppqKY2rqSwkcxHEosxlOhwBBiMaLttNGuSNESMOb7vOS7I3TCMulGTqPsmdAbHdZGJm+3BRqldrg7bfVPShYzE0CAjeAVZMnSupEAy+CgJksE1NAEOVG4SdOSmwnT1RKRnURFXDJoIDZo5/V7JhxzdFDcOrlssEYbFDMwToVs7uJEwLM8wAVBR8AhXKjmxmUYGl4zUxpU1Iam2pNgjRQBkMZR5jEZDX8+2K8WuqiDHcWybuS4PQg9MABN/O5e7wnYHkpbNV7L5ZqOD+hKTDU8x3b5GRjpVDJEIFQkV2TcKDYl02BpKhm46KXANKxkRoZNzaWbyXTRkp9wl+TrbTua6mQihm3YyLJHIzihRIJIMA9uG5dwoEPbGtXRVtdxo88H5hi1rjqw5wOAtxDxutVAu08msVrsdybZdGzrY1A8iOwcYq1J/O+eu7fidvrKwvJ7JtXoj3h3xnixUK+jrbGgQGdFEKIgqiCVCTfmAqojJk0BklAga3StpazI1BYrJ0nKppkhD9DhJN4KHnQCioERQBfE0qCZPhGZxzRKJSCv25PToglyz4ttt1lj8OGmqjprSsgo0H5d0W9LtkSZiDFUeoz9g5YKyulRtNoau47uewzgGU4NrR5ay3wB3PT/sDfXZxVwm3+pLot6xGj1LsUIJuRKiErISISOcBjWlQ6YaeKTTFJCRYSZCMpILICErrQBxemKxJWRFBBUKSoCMcFquiemmhBJhSQZLRKI4iBMTxcE4UUb8RqGYVDEJAEQDtFr8LDKyUvrNWE1vXBmRkc5GOruiK6t0oJKBSmTFadetteV6sz7yvdD3Xcax43LHia286dyNzb9px+OjLrgawIbheZ5t257nBQG4IXoSXVyrrpf7A4UNFDLSyFAjscCYKCnT5GiyqJbTRfW4bW5oRzVTRVSi3PqNJYJUS0Ky+PyNFSP5djq2t91xLOzhmznhFZrY7vH7c+W1jOVRX7ZqTTWT7eRyfS8IhWMHoR2Cvht6XjCBmW+7Hu7G+bdzNwxD7oSNLlpaqxVrw03u6nSoEdmAD8SO8G+Nu8mk2caY/5UnAHfxuABj7vI34u4bN/2VT0r0Oe3LVr2lZXO9TKZLeWi7bhCCjSzYLe7GoWue5zkOBHwFQWCYolAeLmfq5YY8UGhPssBAplNJpzuj7w3Jzjdz8u+M3B0z43dxZwJ3J1T+9cisq7g7VHCzY+Ty/ZXl5nCEXd8LQtsP3OuVuxMcx0EQjI96HrjqYu4ORmg521jNNesdfaiwnmSOdCIjDgw26PU8w1XnTKiR3T30FnevR7T/1rg7Ukmnj9Y3RouL9WKp54KYFJHXNogcxWP2Xb2zqTNcnbzt/zhSeMzgsf7RaA1nl0rZQqfVR0OV92U80oiKxI65m9b3V6Hvv5t4i7tvkrtpLRXbE64SSdf+e5XcHWm0N8TFsrK01FhZLduu6/kisvLGQQ7buPj63Tfg7pi4Y+5CL83zhBClamdmsbheHrQHpqSJoQrKrmbaoDbsSO4mmn7ixLe4ez1s291zJsjdCS11LVOvTbmKu5JG+yNSrelra53FpQ0mwK+2xV1wr6X9Nrm7naPX7kOURERZ3/fjHhtjrFhuza9USnW5M7Rkw5YMPtSwZjlxya4t8RumTKiRt7i7u7y8nqv9Nrk7kGijidbXR8srJRNbfmg7rvDcIPCBeIk/3/evl7thGEJQWsRd13UxxqVKeyXbqLa0ztBSkKMiZ6hiHTvA0R2ZGqJPeYLNSDWhb7uLeEtneJPcTbLrbXox3lBCgZNibL2O7AySRocybXVwuaxls3XNMPzAdj0bLAJvhrswMA6ie8IgDOJo8mjHQwiVKp1sodPoGN2RpSJHt5yRTnQr4m66GyzNXaSgSTZXFbE0TOB0WhbN5ODi3z1MoMIu3mXHl0qjWpyuWzwZ2IY7YqFHO9Ezcs3k4P5MceBplpho392y6xsMpBswGNRLSWdDmbW7uFYzsrmGrOpeACGK0aDM65C7aSqF6/qOHTEXfBGu49IoxsdTFLlQauVLg0ZPH2rgdFEtomN4+SQdiphGqai+btgkpCOWCA2lenc1xA1kJwKZNrJSYAp049ARTyyejtikq6WVYVK6SI88Ti05hFZvBctetQOhtGYaODKFiR2LuBZxTewgyzZMoU/i7k6+kCoSki46Q6tYGU3P5ocj4nihH5Mulbpg+3qDvhoMznDgMn4AFmPXY34AgWr9/iC33lgvD5t9Y6RvclfDTLXgi7C73NUtkUo1ywapkAQD28hyU+CYOBkTbjThkBm1btzGV20n5UopQ1rZonQ7CgkXSVs7LSPC6YyHAPNkXPU2GgioDI+DnXS5uxPuKhF3u0Ncrsqz8xu1uiwc4G6kL2wOiL9W5X1j7npu4LlhABFpDrA2AKMxIbRSaWSytY2q1B4gCSJvsGLi3xB3NUsYIEQToCOuWsmAsMnUsHSWEg1MVAjSxTcKzUgJhDVoFPWbeMHEcOTrSUyOf9dhoEpCFUWc45NGOqQOnbARjrD9OxB9lNK5K9I73KmfYvAJaLw3ItW6urhSWV4pI9OGgYshmHevZW2cAtxNO7Z5BgyNi7gLoyTsKKrS11SUzWysrFbKDbU7MiOL2BXuysakl28HOoNuwZcrEYg4Bk0Btg0kErEpP7Y3yXj/xhUGZMKrFakNCVtjwgXHN72BnXQJmv51Molt0RuGjhjw3orEeawzxAqDQXfE3VRWyAYbaawv0XpLX8s2z19YGUoIxu0G3pvjrh94HnDX913XA83XdYN+T11ayK+sVmstvS/jSD3HCrJUi0Y2ARF1yJLfs51xN01rNMx01dnkmkESYZg88U2IExF2bhimMJIAxU65GtyLuDcOxyR2IpAFmmgikDlpfF6aAq3oWNWJZlAd8fgNjOW6PrFXnUbrCcYiCbjLhwpvdVGu0D15ar7RGgkH4nDegLuTZ9aJWBsrzJ7r2mEYOk7QbkqL84VMttnsmgMV4nGjGDlTtahm8ShKMPUl22XubnaE4+7w67cWTxzsaSAatWVKX+0GROC2K6R8FuL+TbLKi1PV0wnvVcT4VO6mveEIPlw3DgLfurh/NtZG4mdJI+jE9FRKyIhJupB0uzcgxcro7LmlYrnNBEjeN8vdANwRQRj6ruuEQejYYbM+Wlms5Nf77QEeaRAlHQV3mqpJIu7auy930ymV2FHTsW1gYRKeCGSldsnhUPq90g79TvTVyKZB4KrOYvSvYxE7EYkiPE6MvxhA34jB8Oxb2tEEjkY2tdcLEbCywecxzfQUscVRkTuUebWuzi0Ucus1TLnrv3nugnkXLA2u64ZBaIuwUZOyq81iSeoOqWTAaIKIu0iJuKuiXeauarJOT0lGX2kNktEeKP1RGtT+UE/EYGQMJHTjMAZSGpKvNpTQUN4ZjKGcBMmAwiehP9R6QzUR3YGShkq922gPByNDM2gk711kCkXDkmqmcjc2BieZfSZwV0VCM10N+ZJq15t6Lt/K5srIIo7nvim5G2kUQewStm07CELGgkp5mM20qzWtL1PZ4CrIXRKNLAAtXjXt9M7mjTkFDBieZauIlautM+enL80sLCxnFpazC0uZxeXs0mpuaS23nF1PxGq2kM1vJCJXKOU3qokolBrFcisRG+VWGgrFxnoKNsrNtFyJd3mDxEqzWKknYr1Yza2XE5HNbWRyhUSsZPIrmVyM5bXcFrLLa9lzF+bOnJvNrdcGIxQZem1kclXHsmpO8pIkERfcy0CMK0HA2/dhIKDpqsiWNN5o6xvFwVqmihC1XcfzIdo27fe2yfpuzN0g9D3f5TbzwtDEdm69vZptNzr6aFu0rgKDKOMRXdvj7a/uS03qd1/VJY++3bHKpejGg79+dN9Lh85euHTu4vSZ8xfPT1+enp2fmV+YX1pJxMLy6uLqWiKWVjNLa8lYzRYyuVIysqW1bDEF5bVsGibkSrvahPSNtWw+EavZ3PIacO5aLK6uLaysJmJ2YWlmfnFmfvHy/MLluYXLc/PTs5t45fjZJ57af3l2rTfQweYQzS1iEm5RUB4SManrnO6K0yz4UEuGOdJQs6Osrw+Xl5u6LrjtuBDTkPwLw/D6uBt4vu86nu2FoWaQTK6RzXVbXRSFjEX+PRgbGEtcWzV3nbuiO1AeePjxQ0eOTc8uzc6vXp5dnp1fnV/KzC9mLs8uJ2MOzknGwurcwloyFjPzi9lEzC1k0pGdW0jDhFw7OJRS7OhxZhdWEzEzvzIzlwyohMUIC2uQd34VTo5w/MSFx5548dyFhVZH1hDVYb4IjCyK2S5zVzVjJRNLGmp1tVIJgiEHA5MLe4LOcF3cjaIfXT/wQPqGYX+krWZq+cKgO4AhgeOwmzF3NWuXuWuYot4YPfLY8ydOXsrmqusbzdx6PV9orG801wvNbK6ajHwtt16/UeQL9fWNZOQLtXQ08oU0TMi1g0Pw4InIrdez+dqNorDRKhQ3AfUZo9DMFxqXZ9eee+HIuQsLnZ6CLGGYTDUswyS/Ae7C8FXVJCMNdQZGvY4WF+u12pAyHqT7hK+XuxAYEXGXu26t2VterRTLcl+iMXejfuKm0I2IO8FnCHbQxM9NQuKWzmAgXiz3nn3uyPzieqdnDEZWf2jGGIysYRokPEqDTKQ0KFhWrURIipkOS1JwEqz0LBOuNuGQlVbyoYQHQzMRw7R6kPBQwnEFDkbWOG9/gPoDVKn1j716fnpmdTBCTAQmsTUD6wjvOncj4gods5GGeiPU7dKlpXouVzctsgvchSk6YYZR36J0o9RYWauWa9pQjsOC4pkEgLsxcXXsxLp5Ym90B9zVEVtdKz//4lQ211A1jpBrIMeIZhwytvbjlNdvXYRuGOBkNmg6Uny2OlPTAFdLybWDdLhL8hxWmmHrKTDS60E37CsX1LgSQ2WyyvpDdObs7IVLS52+SrlvEhumSDSxRVKlz870XRUcTHbM3aGM+32+utpeXi7qBtoFnQHizn3XD30Noex6ZS1br9b1AXB3TNyYu05EXHd3uavq9PzFpWefP5wvNDWDIyAuBIjpyEamkzaJXWIE2ThRj7Jfu9UMBsEJNwyWHjuxg6tNyDLhRqkTB46fOnFnqxJENKsa12C2PEBvYJw8ffn4iQulSifuqIFbx6ImiYJykr6fO+OuZgFtNItJGpJU0uuxXK6/sLA+lGTHdZJ7agEYbt+4rwaZQ5itxAs8SdWyuVI236rW9b60OX1LZF4AobtF3F3mrqLh46+de+a5A4VSQzWiaeFibkFVpjpCI3c8M8ApfzUixyl0Pq7FZrRUUsOkOSaidCclYM2dmGubZ+4GHCIicqBcszWTA3HAJWam4upLjc9ErDfQT56+/PLUqWy+Kqumhgh4j2E6VJqg4EU1tjPuGsRF1FNNIulI1lm3Szc25IWF9XanywV/09wNPAdmK7UHkpTJFdc3uhF342lEYtOYHb09ro5dA+86d62pV1979sX9pWpDi2bwjLfw/aI8beLOCek6Sp0JNBIwKd/ESfRKC7bcbe5ikTj57hskWhRZJBl4c8reKzP7wslwvqRY5y8uHp06nc1VRgrSEIkCeoRhkt3lLqIeor6CsKQjxeDtNq5W9aWlQq3RJJS8Ke76gR9NLe8w22n3lEjZVZpdYyDjeH67zckMLdvYhGNYUch90sAEw+QQTjAG+GA3oYMc5VGXFraYuoR5hslbndGzLxw8cvR4tdGNQ6c1RAyTmcTGzDVMkgbdIokwrNQsEXe3FW9cznhnq6jjMm/uJMrpTVF03TIv7eKvS4/E3ia9YpJt36bMEQ3R5cmPDJM5R1fbFoG+eaaqk/nF7IGXXpmdX+sOVFXH8LCbocBXWu1KU0YyWzNhbMW1gFkDk/igR+4nHQsFkZFmShrrDWilrq2sVTfKHWQCdyEiIQLwGILCwOh7XTqDF3jCZW7oEuZWG9rScrvRMbsSkjQz7f2bmL4tljSeUxvm+IZIEc3A0VeJG1ChnAmfO6Fm4EKpvvf+x0+fmWl1FB0JzYDpi5HpWMS3iDcOE7l6x+I6SYaBdxJXFb1XN5zRMMGqn4idXTA11ySdIbkAhpkcdxYHo2kGXcsWn33+pdNnLzfbI0XHcboJMTpjEkcVErkt4BlTAtmijKlasgrTLmLFpCMdjzSIyyk31NVcO1sYKBqOh0iOPWi+7wshrpe7fug7vhCesKhTLEura70t7loTOZry5QUBtjVt/1Xc3dSowJSILE6Fz+xAQ6RYaT740FOXLq8MJROZjqozRaMGElFHLbVGDEv8LnD3ysOOn3q8Ez/+rm3TKlxEonGrzsd3j3aufuG3Ra9bxC0UGy8dPnZheqHTV+JYXj0aPRHLmi0Z/Dr6xvy+djuhI6FGMy8qZjSjlyFkw6m19Uy+k8n3RhKCKJptP9/3o9iE65C7ED8WBm7gUBtkYXa9m82Nml2rJyNZx7vLXdAZIgEcLY7ACYPFV3REqo3us88fXs0UdSQs4sfcjcwLXNHSda907iJY6+G3AuBlyncc+j27ignBcRC/m1yMCdzldthoDU+dmV5ayQ8lFA9ci6LsmUk2Iyq30RfejUj0pnYZ09iiIiIZloIg+DsKyvGaXZQt9Fay7W5P5Ry6a/EsC2E0G7rjgPHhjXWGiLu+FzoWx4purWaaG0Wt1cN9xVRQKm/SShmlp8pdZIEKa5JoaAAWmDqYOjoinZ507sJctd4zsYMZKAkwhtGyDRjVQ1M78tg2qEgE2qr6nUS13mAgbOonfktT2q0ygDKapnaDxpyi7aRlMYVww6GEllfXi+WWqpM4tBLCIE1ukSvD5rbRF1p2wsuQVjwVwUS0CiIwuAv7mul3hni9NFrOtOrNgWVZ8RxisfIQBMH16rvRXKURd5nVHSiLy9VyBXX6ZKBiFYK40+sr9dAE7vJN7kbqVLRv64iOFNRoD0aygSxuUScGjnbM9AhuRH4nuLtb1HzD68DYsjRLSPr7lprFspkINcQa7WF/qBtoc6RJPARoHAocC+DX0/eGKaFFOoOMSBR17avI60msVFOW1pqlckvX9ZisY+7GVL4OuQvz7G5yt1RtLSxVqjWzN4QJ87TJA7hvnLswrCrC9hqJ+hPEIjayOOjBWGDmEu5R7hHuEeYlhVrDmOxoKNv/erk7buarduDNTKfUDg5N4K6JkwPPI/HpQGxuEqAOLVszYAhnTPH4NIu6259l/CCbDE5t91RO6zC1Oo3krq1bnmzYA5nXWsZypp0v1CRJihVcWKw4mrJh3Ht7A9/Eltx1MceZXHFhqVKrWwPJlmBk7MTJB1KfIVXugkAd0zeyxUSGG+i3Ee5aVCALbD0IM4sKzByLCpMITL1EmNRF1E5DLNR/01t4nK0PxbU7u3z39E+QRTY/VteWIe3Nj4kLShoF6RAru7APxHU3rzNurK33MKJvivhP5YOALyQRqhkFfyMnmsuZN7vmaraTzZUHg0FsWBhPYB4ru9chd8PAD30/dIkgiyvZxeVqrW4NFQemsYGOaurLlH4olbuYRZUSi14sEFhwaGTHBdZGTOU6rNBkxf8ii+qIJBIXUw+4y+xk0FQ5NH55dmsn1tqv3ULzb7X9ruxEpqsUCRr1HK4tA+hd6TNLQOQJdigPgMfYIcxnIsTMjwgNXZGIwVCTrxe9KdyNhgwlssKkDuJONLckl5HoSWSoiHafZPK9TLbY6/Xi7loCdxP9FuNpcmC+XcdxXB9Z/PS5xXxxVGshRXdUiOYk6Yp55IbdsmtuN1/HloQr30QixuJne3OaxIaXOO7QwD6EPEPUM5hmGaQTOLpdA94UBtvknEntNOwKXa7rIpRbyRDXlf0qfkMlTBCiDojYa5GeZVz5kcK2lTc+P5LWhHsYZK0Tu4os6kYj5rfKEAua7UOXQfzHbRfbgMdeDFD5EoGwbRA3GoQLsxzJiI402h6YGxV5Za1Sq3UxEa4LZl1hs8juBYFhwXhenJjB2yi7Nc2u47jCFtyXFHr81GKpYTS6SIU1oWCtyVRHOdiot9ZkhZU4t4yLFvTGdtJmv7+5KLPSsIOHSpegiWI1TtwuFK6q/LG160q7UDvORRh4owhzMXM3pex1F3gsm7Z34xKJC4kQCRNxFzMdUw2zkU7aA1RpaKuZerHURYjbjsc554KEgQvT+buw6vbr5oFM4C5MSOZS6rY6+tmL2XITdQZEMYQKoZypNjIo0BXuRsTdstFcqaPrroirqvv37N804lK2kwf5febuFRE2lmWxfwQGKzggdzHTCdMxlwzaGZrVlp7NtYrFrqphAeuuCdthgW+DGrtd7o5Zu30lzGglbTfwPGyJjWJ3ZrFcbZsDRcg6i7ibaiO7wt24lFvERW/J3e1U3sHb+6+SuxD5vcldgzCDcBmxnoTrHbS+0dvY6AyHBhcOrLXmC8/hIZi+ILDh6rn0Yl3B3frBrDi+jxBdWausZtv1LpYNT9KoCgpDal8t+jpANwtetTFxIzfSW3L3igrxb427ab49GCdsaxbXMTMoR9RWTTFQaLNnlirSeqHV6Ugc5snxgsBxbOp7TsTd4Ap3tzRcWA0l/jmO47tu6PnIIPOL6/nSsNWnKgokjalx7EGaMdzaMiZsI+6mDrSDBvu9zrJd0F61v4Pn+r2Wu2MyvH7HsOLxucBdRDniEIo+VFlnQGoNNb/ebDT6EXfdIHQFJ55rv467VxHX2fp5EX0RIrPz+WJVaQ+5igJZ51vximkGkYi7cRGvcn7uoMF+r7Ncxdft/+7guf71cleN5C5iwhQuIp6ki+6INtpGLteoVjuxzhCEri0ozKq7Xd+9SlXYoi6squ0KGyE6v7heqqldyVaQryI7dnEl+mOiWYC2OdC3uLuTrskOWvd3Lct2sl61v4Oi/v5yN92JaMD8DEI1GchdJiw7DkV3+jJvdVA2V69U2kJAXy0IXcdmgecGjut73qbOEC+cNlYVxty1Obc5NxFbXC6WampPdmTd05CzaXlN8iW+jrtbxDXxjsyZO2jd37UsV/F1+787KOq/cu5yxG3gLvNV5A5k0eqibLZWrrRt2xOCw5onDg99z7Md4G7srkiTu27klSiW2rl8q92xBiOuIy+aUhh8s1EoDNiir8Z2Y/XW/m9b7k4246eb6ycZ/9NyTWDhpIlvtyz8aZe9Jh0zB6ytaUhjdtr5E9PflH13q9G3+z4297cEcOx7ihxMY81TjGerNkxbRwLkbr6dydY7Pd31QhiqDquf+EE01xNw96rfWOg6jiNsT9bwaqa8Xuj0+ngkcWS6kU8LI0zGJuirdya05W/tUFpD/gbSJ7yWE1wGOzm05S8YE2u8E3sQkq+ZnmucfcLODnwTEypkTJXYLQpmKGDz62abHLuOOz2UL/RXMrVydSDsEMLQ41De0AvD4HXc3c5aO/oRKjo9dWl5Y73Q6fctWREwIBYLw4TpfcbluHrnt0bQCTf6DXA0mRkTIxPSsuwwPZ2F/yq5OxiRYkVazdQLGx0Tu87mEApYQ+J13L2WuLZtGwiXyr35xfXCRmcwtFSNm9iNRpaTt7g75t8ENWN8zu7s/BvjrqyKWlNfyzayubqiEseJR/+8nrsxcWNZa9s2xD1EP1lB2VxjfrFQLPeGkqUjDlFF5qaN7Gpxu6XK/E44IH6Lcnd3eHk9Bf43xl3NcNtdK5trra5VegP9CndhxbRIZ3DAFAa/LcYKiHuIfsORvrpWW1opVevDkWwaJsfUjcPHJs0EP+FT/ls7dD1U2K1zoAuVgt26RXydf2Pc1ZHXG9B8obuyWm62JeBupO/6PgxzB30X+mRbv5iybOs3GGira41Mtt5sy5KKkMUs6kRjPuNQ0ZRVDH5rBNJH1bYAACAASURBVJ1wo90lzeSrTaDU5Iw3enTCjaJor+QvQHquCV208aH/hX01Dbn9ISsU+6trlXpjABPvwwoS/uu4uylmoz8xb2n0Gwz0bLZT2Oj1BrqsoSjoG9Z+MjHMjfCWzrDJlXRyJJPpRik7Pn/Cjf41clfVnd6QliqjbLZeawxg0TUPbGTedrk75u524lJKh0Mjn++XK6OBZCg6MizLosBdC4eYBm9x9y3uTjCHJR4ac2abjQyWPNq+IsvYRqZoNkyTU5Nz+Wa9MfT80HVhxUvPc4LAf5tj247tOrbPubBtzjmzLIQxocRGOqvX5Mxap1pVBkOkaDD9ajR+ARQGRFJG1DAYJZY2YMFkzi7CYo7F3USYDJx/ySBiQvHgmruIlOJZ3J1UhvRcmLuJSKyEOBEqPKVF4FLCS4RJU3PtYgtOvhSitoH5SEHNttTpqoTAaj2gNMAKwf7bHLHJXcZgTAXnNOauZXJ5hErFQSbTrdbUwchUdZipCsY5Uica1zFpEDkiIhkplZhWuW+UnsozGAWVVgaSPgZzV18tM/0dgFcrZSioSVMfamcvFVRFyr2slDcBR69WYi5okd2upfQL2ohwWbNaXbnTU3HEXZiWNHBex11KgLicU0wsjImh43ZzlM+2crl+o6FLMolmsaSYRWN0iQMeCogUTkA0qSBL3qaseZa4ENp1JAqL2amgwkpF8hqlmNmpFoM0S8LE9NSywY1SMSHXDg5NuBHmTirSi7e7VTThahZ8w4Vi4E5P7fY1jGGFv2iV4SvcdWzhgZ5AMeeUUGxZWJaM0kZzdaVSKAzbbaRoMGGgSRjhNuHgiI+kGkMkBTiZu9dBx+QF/RIzWpRH75JI2qYyI34Ewp1rQYVDhbuLiHiTXLxr7z5OSXqcxItcV+L4sik7dlQh124T6ie+wi7Wz+RLYe6YzNYQ7Q303kC3sAPD1j0fdAbQd4XtCEdw17IIIVbEXcs0reFAzWcry0ulUlnq9U0dMZNwzBizbWo7mNkm5SZlySDMSgGexLbraont7UqYSKl3m3I7IqJz7ZYJJxW2y3cVFF71BFBuM9tNhnASs+w4ER42/V7X1k+cwkRK8Xa1fibXNhGOxR3D4gMJ9YeGZdmeG3qud4W7tnA4c4C7kdzFxEIIDfpKLlteWS5Va+pwBHOvYiaI4Ny1mQOVi7nAnCeCMp4GxgUXuwhbwBi8RERvpZ22TcwCw/lsZzeRUrb4Rq4NU3JfCyc9V1qxJ6VHT3TtXeKUCQ+blsXd3SqacDVqOwRC0e2RYg5GyDSFY/uu427nrs2ojS3CGOGCWdg0DOBuIV/LZmqNpi4p1CIOtW3mCBjt5rpU2NS2uZMMMXYuX7OzPWpiV/avCoLb/u+E619Trs2ECVl2dmh7ebbvjweqJO5sP/PN7yfe4s0k7qwqdpCL2Q51fIu6soqHIwSD3YXn2I4fOL7vgc5gc5tSQTAVNheCmRbSdWM4UMvF9vp6q9U2FI0R5nLHEZ5t+47wgMfccVzPS0Na1WwfkLwr+4lzo0TzY8ME2Wm/tHpMO3/H6WnFi0uYVgMTcu3gUNpdxhN7bZvf9sruhFw7ro0bzcgdlzkB5p6iEZh9GXHBXdu2r3BXcJsSQQgVgnHBTDPmrlIutguFVqdraDpjwhOea8P4NRDbDAYDuR7EACcARiCn4ErVhzAZ+9Zs7LHZ7krF7WBv+6Widbn88Zvl+57nx0NDnLj6HNcBQCSHE79/ruMBXDc65MKQajgHxjw5ru36nhsNQt18J33oMGwDHHVcWEN080ZwUS9epiZ+lvjBN/cjtzycmQSYMW6zcl7/TFBJr8Pm8mPRybDmM6ykB3nj/fjkIAxgDpmU33huryhPdB40HRhRIRckQCGjZ/XjR4u2VwbkRjUG1bVVsVAPwhG26zie73q+A83gRrUHf7ZqO2oAyLNZo3H26DAsKhVDuB53A8J9RSP9oWEYbJO7fiR3hRCMcUoEpYwQK4ZhoGajt7SYW17KtztDA1kwyMIPovb1XFif1Ymw2eJxu1/Zup4Dc5IkIWLIJk98D4YdbbH/Cq2v2Uup+SgZXNyA8XWAZwDX823XE55vB6EbBK7tMC6IEITZjLqcO9yyMDZJ6IQeD4UVuDyknEZL5xKTMZNjxDWVDA2mM5g9W1DOBUxwBVH70e0CL4jv7gqXYWYKh/mh6/jCdjlMWkxhRhc/CL0g5FF7glfTD2HJJD9M1fNgWRrh+AA3cPzQ9UPXC+MdcC35oRvAZTy4kcej02wvdFzfFi63PeEFjhvYXpTL9jhUBRQ4AU4kgGB6cN/ntk0Yo5xHiUF8I9e3bZe7PlxfuIxwLBzm+h7ol4xSxjAlJsYWwZhSi1JEmSGsAZJkgiw3tJzQFB5xoLYZtgW2BXEEsanFLZNZhBPhCCewbY9Szhh1XTsIXD+w/ZAHIXMCqEeLuYORUa50h0Pd90LbdlxXuK7ztqu4C41JrDF3lxZzzWZf1UzGoxq1QU93XNd2bQGiN3LJXbuNVwVyPFgb6PWIpoi4wvgtngGDr2HslYTJ3L2GtZ7jecK2GWPx1K1xsFEcLsc5Ny0LWRYmTNPQaKhpKtYUqsrY0G1dp4qCR0PS6+Je1xwNsSIxecAHHdHpKL3+aCSpsmJIij6SNFnRdcPChLvR19fxXCY4YZQLERfJIpgy13YiErmh44a2ExLiGAYxEOHCTQaIeptybmILWSYY2xkVju0FfnwLWOA88OPX1fHcuBUoZ9wWwrE1XVc0LQhDx3MVTbUIZtxm3EmEsH3GXUyERThltnB82/EJuP2xhTETXMQfJlgvx2OCWwQKg4mgzMZE6IYlyZok64qGFNUYSUgaObrhabqQVC6pYijzoURGCpIUQ5aREkGWDEVGmmapmiUrSDcIwTaltgPrB4ee5zFGKLPA3OLa1PFN6vSHb8RdjM0t7hqx3F2Yz1aq7ZFkYGxT5hDGaWQoYELENSUcIPFViPrOV7N2k8RXiH41gycQNE17Bj1gU8p6Y6lvw6vlcAGKUNQtDThzkGGNRkq3O2g1u7Vqq1Jp1eqdwkYtky2tFxob5c56sb1ebGeztdXVcjZTK673aiWpsj4srPU2MoNyTi7kGxsbtUqlVa21y5VWsVSvVFudzkiSDE03TYsSKpBJEMKU2Vy4yKKqjiTJHAyMfl+Ptkavr/f7xnCIBgNjJOmJkGRD05FumAhhExYzI/FldcPUdIQQtghnHIZjxeDCJcxGCBvIQiYxkKVqyECWpiNJ0TXDHI60bk9KgdztSp3OqN0ZdrqjXl8ejjRJMmQFjWRN1ZBpMaApFVASi1qYmRYzLW4gMhxprfagXu/WG4BqrV0pt0v53upiaXWpmM/WShutcrm1UWqsF6u5QjlXqBXKzY1yK1+orW/Uq7VuqzVqt0et5rDdHPa7iqaanLquEzg26BKBHwrXJ8JDWHT7WrHcHgw0zw2FsB2wF2zJXUI4ISzmLiamrhuNendpITs3u7ax0ej1FANRC8MDWIQSCtKFcs5tJxGRyRj0xCQ4W0TflNljzm1qTDf4x3a9MTZvF5dKuJR5GDsYO6YpBgOtWGxkMhuZzMbaSmFpHh7t/MXF0xfmz8+sXJhbPTu9fPrC4sWZlZn5lZn5hfnFpcWllbm55fnZ5bnZ+UsXz1+4MDs9vTQzuzo3l5mdXZuZWZmZWV1YyK6sFBqNQa+nSDKSFVNRTE3HIwnV671Gc9BqKpVyfz3fzOcb0YtRymQqhfXWer6xXqgnIp+vZbLFtbVCJlvMZotrmUJ+vVqpdmq1bq3WbXckWUa6TjQNK6oVb0eS0esptXqvVGpWa51isbG2VshmS5nMxtJSdnW1kMmWkpEpZbPlbLaSz9fy+VoOFhavrBfqlUq3Wu00Gv1+Xx1JaDgyhkNdVpCq4eHIKJVa2Wx5fj47O7e2sJidX8hevrwyPb08v7C2tLowM3d5aXFxdu7yxUtnLkyfPT994czF6bOX5i/Orc4sZedW12eWc5fm1qZnVmdn1xbmsksLuaWl9aWlfDZbbtQHkowQYpS6th1S4ZnM1k3W7imFYqvXV13nWu5iDtZdbFqR6I25u7iQnbm8mstVW+2RqmEE0+OBJMDgd6CEicTPEOMOF8mcjohuczuS2XYsra9oHWl9/4npoN9dgXDBoi7g+0iZaxEPIVtWcbenVaq9QrG5UWyVq912U+q31UZ9WK71Nuq99VpnvdouVjuVaq9akyr1Qa3VavYatXZ9vVQp1RvNQaPazZartXK5Uyl3q9V+rTao1QblcrdQaORytUymVCg0ms1Ru6O0WlKjMSyV2ktL+ZmZ1cvTazOXM+fPLV64sHzhwvKZM3NnzszHO2fPzk7A6dMz58/Pnzs399prl86enZ2eXr5wcfHChYWlpXyp1G635WZzVK8PGo1hrdYvFluZTGlhITszs3rhwsKZMzOzs5mFhdzJU9OnT18+fXrm1KnLiTh7du706ZnTp2cuXFicmVmbmVk7f37h1KnLJ09Onz8/PzeXyWbLxWKrVus3m6NWS6pWe9lsZX4+m8/XSqV2pdJrNEb1+rBc7sJ+u1/sbqzXis12t1qr1Wob7W6t0emV60qxohRLrWK1U24N6n251pUqjX6l3KmW2pVSp1BsZXO1bK5a2GhWar1WW5YUbGFYxNiwqGLgZlvKFxrdruw4Acxlul3uYswxphaOVEFs6rreqHUW57OXp1fgbWgMZcXUYfp2gkxqEYYJJxSUnkSAgiXSIJjg4J6IGMw3GRxpz2lG10npDuNuhJivm+UhDGbE12FVFd7pKWvZ0vJqoVLvjWRT1jAyODVd07QRzFrsKiZRkUUs7mBHoGDYVkqFXLtdtrCFTE/WXVhy0RrppgXrhxkUIW5atmXZmk66PaVa7UxNnTpz5vLKamF9vZbNVdbWNpaX1y9eXNy//+iBA68cO3b+4MFj+/ZNHThwbP/+qf37pw4denXfvqPPv3AoES+8cOiFF44899yhAwem9u0/+vQzB/btO3r06GuHDh0/cuTEuXNzi4u59fVasdgsFBr5fC2bLa+sFM6dmzs6dXJq6uTx4+cOHTp+4MDU4cOvPv/8oYMHp/bvP/rii4cTsf/A0RdeOPTc8y/t23fkpUOvHDr0yv4DRw8enHr56IkXXzxy7NiZCxcW5hey2Wx5Y6ORzZanLy+fOHH+4EtTGxuNiA8w0TJCPK4TzD2Vi55MLRRyFJiy0q2XNrIb7RqiRsgQRzpREdYwM5gNMQUms6A+YZk3RbMGktFojwrF1nqh0WwrsNC5JVRkjVRUbw5y+Vq7I9lxwKPDrugM2GIYk6gPgywLaZper3UW5rPTl1Yya+V6fSjLpq5TA4Gug4kgVBBqY5IMygTlaeBMjDFm8KYkTvYOpXNXCNDCQRGnzuvLA/Uia5asW9VGb2Z+dX4p2+pKKJo3AFu2IB7jnghCEYY0GsvvIoxavebS/Kl9Dz32i68cfOquwuoFY2RxK6Q0RNBHEZS5hIJEF8IXtm9hPpK0Zqv33PMHDxyceu2185emFy5NL5w5M33h4tzM7PJzzx186ql9rxw7/eRTL95336/37v313r2P3Hffrx944PG9ex/Ze//DiXjggUceevjJX/3qofv2/vrnv7j/nnt+9dhjz77yyqmTpy6cPXd5Znb5wsW5S9MLS8vZ5ZXczOzypenF2bmVM2en9x94+cCBo+cvzL788qs/+vHPfvazvQ88+FiERx98KBkPPPjI3r0P7937EJRk78O//NX99+198OlnXjh2/NTBl6bOnJ2+cGHuzNnpi5fm5+ZXz1+Ym5p67aWXpp56+vliqU6IbWFuWoxQe7Na3JB4IUIh00Kp1M2ce/nIE3c+eu+tx557bJAvBxoJCFgIqOMgwbFtQ08Q5q6xiXCIcBDhA9nYKLczuUqp0hvKWDFgodaBbFTrvWyu0mqPbAET8YKXzLU37Qxj7prm1dxdA+6OZBnrBrxhliWiggJd0rgbiWQBDL4WnFEAZzxm8BX6bg07Svibxl4hoNYwiWFjbFsAYVnCgOmzUXeklGqt1Vxho9IYqSiOISTE5tQBLjoO9WzhCI+SwXrh9DPPvfyrLx/42XueuvtPnvr5u/Y99PlTB58ZlqVQhDY4uaEnH39SuA0RERamqmb0h9K589PHjp986dDU1NSJqakTL7z40tTUifx6+fyFmWPHT+byxVNnzr+47+D+A4cPHZ46+NLLh45MvXTo6JGXpxJxdOrYseOnXjo0dejQ1Iv7Dj3z7L7XTp7Nr5drtXat3tkoVl87efbgS0dfPXH65Klzh49MHT7yypmzlxaXMpem5y9cnK3WWkvLmUcfe+r5Fw4cnXr10GG4y9GpVxJx5OjUocMvHzoChTl0+OUX9u1/cd+BEydPrWWzK6vZWq29upY/dvzUkZePvXLs5MtHjx04+PKx4yfPnD3f6fZNTJCFSWTgsAi1MLUjW5owg9Zq6cgDP3rxpx86vPfdz937py/89G9PPnHHytQpvdIKhO36rkFNxCwW6Y+MUxPAEGUqwp2BWqn3K41Bu68PFDTSUH+klavdTLbcag0FdxnjIuYuRJsz6KhB/BixLMu0LEvTjFq1NXt5+eyZ2YWFfLHY7vcNDVaTZKbJgRzwwo0hTAtgbWFLMMfi+aotI5QCwEAIgLDLCIxBSRIAgzpAz4jYE5E+KjOYpRl8BABQJGHG808iasBC73ioGNVmt1xv9SV1pBqIMGq7zPG4E1DuImKAWmEpFBmDUuHYk3vv/epNz9/9FytH/6oyvWf15AdevO+d9976N0ce/oVebwaY2lvlhDAaUKltCxMDIQMhSVbXMrkDBw8/8+wLTzz5zC9/tffZ517s9obDkdJsd2zHUzWj1e72hyNZ1SRFha2syJLcH7aGymAoawNJG8rDodQdDUeKhGRFH4zkyOqkdroDRTO4cBl3LMK6veHU1PG9Dzz05FPPPvf8vod+/eiDDz1ydOpYpdqQFX0kq4w7BrLqjfZgKI8kdThSZHk0HPQGA2kk60NFHSijkTocjPqyJEuyPBiNBqPRSIb93mDQ7naHkmQRMG5QZpfKtUOHjz72+FNPPvXsE08+8/wL+5eW1noDBVkYERNhxF3b9UKof8TAUm4QuVQ6cN+d93z5z1765Z9Vzu3pzn1w5ei7XrznHT//yidOPvNruV4WxMTcQswgHuWhzVyBBcWcge1dOCaBwLGBhNpdpd1X2gOl1hpk85XFpVyt1mEUTJ9ObN+NuAsjfTjnlFLLwpZJdQ1Vyo3z5y5PTZ08fRoU/3y+Xm/02+1hqzWoNzrVeqve6DSavUaz32z1m61BszVotTfR7ow63TQMOt1+InqDYX8wSkRvMOwNht3+IEan199Et9fqdNvdXrszaLX7zWavVuuUys3CBnThs7ny3GKmUKxR4auGSbjtBqETBNwPTds3qeo7stGplKZnTzzxwM+//t69d7394OPvOvrc3+1/8p2Hnv2rV557z5M//i/33PxfX3n050ppSE1GKSWEW5ZtmQ7GbvQOg73F9YJqrfH0M8/+6Mc/+c4d37v19q/tfeDBoSQHYeRCiPwRsVfiytYLQxFSPrBDiwch9eA/x1MD5oQi9CG8OgFeEPaHo337D37jm9/+/g9++JN7f/q979/1re/c8fyL+1rtrhc5QeIthKvEgFlrCTCLOI4f8jCkIXdDyhgKXRj+5YDrKwGeFzAmstn8r3/96J3f+/5dd/3wB3f98P69D5TLdWGHsCYzRzrTiM1tJ+RWiFWBmvrGocunHvnZXV/8z0/+7C9feWbPwYf++vjTf3fp0N9NPfrnD3/3Tx/8zj+ceu5BpVL3qG0SrNkEhY7p2RahjINhkYN1yGXckyRUgBasruWqiyvrly4vXbg0VyrXwGLOWOR1897GOSeEmKaJMbYsCyETWwwh3Kh3Lk8vnHj13KlTl8+enTt/fuHsuZkTr52bmnrtcPTJO3zklZePvvry0VePHn316NSJo9HncmrqNcArr029cjIZx16dOnY8EceOnzj2ahKOn5h65Rhg6tj4w/fy1NTLU1NHjk69dPgIfPUOH33p0NEDB19+cd/h5547+PTT+x97/LkHHnri8SdfOHdxVod13wl3fMcPmeOYYCnhAQlxnS/uP/O9j+15+NsfOH/g0y8/+Td33P7e//6+d7/j//vDD334//3+9/7w1SN/eejJ//KtL//7o8/e063lOUa+bQsqdMXUNcyF7wWh7Qe24xU2Snf/5N6P/M+P7fnghz78j//jzu/fVWs0gzCMnKIJzLDtAOuBFxARIsQp8Vzi6tyRfeG7JEyyLYLBkQunVm/svf+B9//Dng/s2bNnz4fe/4E9H/rwTXsfeLBaawBZt1g4thvajkcQtil3XIe6jIeChlQE4Ez1ndABZ0RyvBjGFFt0Zmbu29/6zj9++KaPfOSjn/zkp7/5jW/NzS06XtjsDWSkcp8zYZuIcETUdvPw47+6Zc8fPPSjP3tt6n1PPf6ur33lHe/5iz9491/80Sc/+ud7f/xXCwc+8Mr9e56681OrUyeknGaroS6BRRxzamKCKbcwtzDjImDcbzYH587Nnjg1ffbi4sXLy9OzywvLmW5v5HmBiAanua4L3MUY6zpYvRFCBnhUmGXSTnu4uJCZubyczVbW1+sbG63oPSiurq2vrGZX1rKra7nV1TxgLb+2tr6WWc9kCpvIbmRTkc9mbxS5THYTa9nsWia7msmuQgEAK6uZlbVMtJNdXs7OL6zNzCxfurQIb9qpC2fOz+QKFRilzeKQeaabpoYkRkzR8xaen773Yzcdvvs9F5//i/MH3/nCA++4ac+f/Kc/+pu3/6cP/uUf7/n2zf/j8GN/P33oHQtT7997x9uf3HvbxROH+7UNj+DA8QQDCYGZbWBKuV1vtvY+8OAXvvilT33mnz/9mc/+8Md315stPwwFzAGbBBFwEiITgvi5byNqIaZp5lA3TMFDDJacBJgWKVdrjz72xMc+/onPfv4Ln/v8F/7pE5/8x5s+8sv79hbLlciVHN8rMlOKza3nho4TImIoZh9xg/u+pFiGwXTNJJGbG2ya14AQ5nthNpu7+8c/+cxnPvu5z37+85/7wh3f+e7i4gqyuBOGauSGYUR4TGCpfebIwz+69Z2vPfLf5l/e8+oL/3DvnX+1571/9Pb/+Ef/9e1//bfv+advfmnP3HN/Vjt909mnPvDA1/7+6R/8sH65Gmjw8fEjkxTlNkJEknVCHC784dBYXs7n1uv1tlxrDouV1ka5rqhGGIRRfyjyTcTcNQwjIq6h68gyqWXSXne0vJSdvrS4urpRLLZ7PV3XqWUJTKBHH3ftMYbuESY2gUSHUlhVBcA8loa4u5O0TejYxV09LkCKjD0dEPu8aT8GWkTpthMIx2fcw8RGiOs6lRWz01MqtW6l3h5IuqQaGrKiadQwFljVRqcPHf7GR/566pd/Uz3/jvLcH59/5S9/8r0//uVP/vK2m//9J276dz/97od//vW/uO/W/6Nz4d292XflTvzJbZ/8w3u/fXN1dTaweWi7gti2DdNimdy1CCuWyo889vidd/3gju/d+fVvfuuBBx+WZNUPQ7C3XNthhRSHYFi5DhOOiU8puIvdMKSujQixwF6ZAExZu9t79vkX/vlzn7/1ttu//o1vfvXW2z77uS889viT1XpjsyvJ7fEdCeOEcot5Fne4x5nNELJtHrp2aOjwfaacgacpERF38/nCA/c/+N07vvf97//g29++46f3/iyfL3DX5a4D03sEocuCUbN14PGf33HL3x575iZ54Z3Vs3918uk/+9k3/+97vvMHn/7I/377LX/4y3v//kdf+88Pf+P/LJz9u/ry+y68/O6Pv/d/O/TQT7RijQ9kqhvgc3V9TMVI0mBRYoOoKh4MdEnBkkbbfXWj3Mzmi93eCNbugbWwITwI5C6lFEc/0zR1HZkIHJvtVn9xYe38udn5+ex6vt7tqobBIqY6UUeNRr7BrS7aJok3u/yRxcolNAlMQIUmgjKcBEI5GKPHgFEPm8ZjygWmLGohm1CwMCBEVc2SZDQY6vXWMLdeXV7N5dbLA0lFFgy2I0JICB079eqtN3/sW198x+P3/PH5w+84+sKfPP3Ef//5z//psV/9z/vu/NO7vvEfnnz4nVMvvv/Ir99z+qkPnHp6z8uPvfdX3/3I1z570123ffnVl/Zr/aHvBATDHNrMg+iYbDa394EHv33Hd796622f/+KXfrV373AkUx49bCIzYNE1Bxkku5z/7td+NLXv/KjjCickATeEnFw/kUMeBPz9D+754Ic+9el//sIXv/yJT336ox/7+K8ffaxaq1+h7NYdoT4JMwU3GDWpUEfkxOHZWz79w+xCx3V9SwzBy5sk4MEiKBzfD1dW1u6956df/eqt3/zGt77zne/+7Ke/mJmZ86NgiU6vb5pUl9CTDz30xY///d3f2vPM3g8fevDdp/f//XMP/smLj7330V++/87b/vRnd/3Z04/8+XMP/+WBB/7nKy/89/1Pv/2h+/7jj77zjs9/9D3fv/0r2blLDni6IMpJ2L4BHnW31R5Wa91mc9gbGL0hanSkjVITGnEo+15g247vQ/gZcBe68QLmccIYG5HH3NDNZqM7P7dy8eJ8JlOuQAgPRP7GUjbWS0B8gX03tq1Gcjf6jMa6NuNgQE3CFeaNKbi5kySMx2aprXO2zMbxO0A5JrHkAGtG7GdXVEuSgLvNjpTfqM0vZRaXsyNFB7VB2IQLxERfVdYLy7mVE6PGeXMwo/ZmW83ZVm9Na9fUeqHXmu0Opzu9pVG7pndGUq/eH2UGzdV6bqGeX5XbLVigy+JCBMINFGQVSuWXDh/58U/u+ea3vvOlL//LZ/75c3sfeLA/HDEwP4vEISSEQaiNoag3vf9vPvL+d331M585cfisJtuWSw1PvrpmNpEyPwAAIABJREFUtt5VbjuNZvv+Bx/66Mc+/olPffqTn/rMh//xpn/6xCefeOrpeqPFYpv61h23pClDDsW+o+v45Renbvq7PZ/64Idv/sw/dVrrzFEpDE+EyJdr4bp+EITr+Y29991/85f/5eabb/na175x5513PfboE6vL2V5vAOFjmGKT9Zqt6vrioH6p3zzb6xX6g0J3UKg2cu12rVbOdeorcn9W6V3W+hlDnpGlk8PexY3sXH4lW84XdbXHObLAxgWBEwgRzw+r1Xbkz2sORkgxYMBPvTUoVZqKagRB6MTBlWPuxpFWm9w1LF1Dm9y9ML+yslEoNNttGdwTBkHgnmARffkV01hkWI2pvMXmJKFLXRhhlih0I6GS5tEYy2OwI0amRBNm/yUWBp8BiF4KlrKYu2rE3f5Aa7RH6xv1y3PLF6bnBpIKo/OjIEhqQ5QW9FeZoJbnMFhwjsOUM5bHHUE4YpYZusgNLYiKDFWCzVBzfeRxM7B54PgM24ZOGCzJ7VSbrZ//8le33va1r9562223f/2227/+gx/++Pirr+kIuX7AuJ34UJCO+YtPP/KJf/yD+3/61/ff8/59T9ybyxR0ynDI0rhrO56i6q+dPPXju+/5+Cc/tedDH/7Yxz/xgx/9+MLFaVnVtue6clMmDCGwGxTyhb13f/ubX/qr5x/96J3f+m/Hpu43NIOmNwej3LbdXrd/7Nird999z1e/eust//KVr9xy61duufX73/5JIVcEU6eA5rAhslsIonA+Qj7ShY/cUKGhyjkOLOphxl3HDm3HNpBBKPegtkNqhZz5XBAKLl0Y4IgJ13QUBGGt3s2vV6vVbn+IhjJu99RSpZUvVIYjNQ40u6IzRI4KmEjPsizosxmWrputZm9xYe3SxYWVlULEXeUKdzHHYCraWszHBGdbBDCyWljE4jnFcwGSMhFjde3anTHdN0kcBVTEPE7jbq+vNVrDYrk5t7B67uLsUNZMwi3GKQxJEw4jjAjMfMRCyw65FwrhU5MJ06aWo1pM5gx46nMwdCJEuQ0h1RzCBF2o+sBEtrADysRGqXTr7V/77Oe+cMtXbr31ttt/+OO7p6aOdXp9CEl0ItX8mm4QFw5jzqBlfOoj73vq4fetLrzv3Il3PfiLDzz/9COVpszCcPz1v2oHguOY6A9HFy9Nf+nmf9nzwQ9/6zt3nDx9ZjCSmLAhanhLs9rOY8sJNdM9eXzqFz/4H1P735tbff8rU+/6zjffN306q6n4Cstf7wolhBFMMabtVueVV47/8Ic/vuWWr9785X/55898/pbPfKNaqGMcuSkdgYWPaQCdHMoptoTwYf1hxzMdYjDd4mCQoRwCeRHxDSugIiSCMSeK/sLcspgJLg6bC0/VkB+E9UZ3Y6MOEU4DoztEzY5cLDfzhfJgqHhuAGqCzcHOIDaN/dy2bYyxqmq6Bj23Tqe/vLR68eLcyvJGudwZDA3VIIZFTMotzi0eDW3fXMkHhrObhJmEmlEAcuQvGLu7Xrez9SFL6B9sr+6r97fUCajo6JsY6bg8el/pptyl8NogRDUNy4o5HBqttrRRaiwuZS9Oz3d6IwLEg6AzCMPkTDCBqeCex3zHDmxYORkG4vmuCJnwTE6ET/zQdLgejXkPIfou6hq6EDbuU2ZDZLvjlsrV227/+he/fDMI3a99/ZFHH6tU6+D5iYI6HDeMFp2nNthUA8ohcIgzr10zDz594kuf+79yCx+Vax+orrz7qQfefvddnz1xcsXgIbhBGBZRf5AxGHbPHNcUxOI4Gmfgy4qyd+/eD//jTfft3VtvNG2IiPdsD/wXjDqwmIgQ1EKebTvcQTScm+089Iu7nrn/z6tLfy2V31tYfP8Pv///3HPHzzfWRwgzYpvM5RQo6MLCDg4VthdpESDWGBMbG6WHf/3Il2/+l1u+8tUvfOHLt37pW/VSi2AsXO4GgXBDygPhhLYIPAJR8pxZHkT9O4RCZ8XzwBLHXN8NQwiV92zmIDeEEd8YM0JAD4ysMR5Ey2C7UmkVi41Wa9QboN4ItbpKsdIqFKsjSXWixVlZFCsJ3GWMEkJt26GUapqm6wZCZq/XX15avnD+8tJSoVLpDkaGrJsKMhGliFODWQam0ZIBAqx7lFmMWpxgQbBNQDGAAIMEXCVItv97rbi9NiWBuxhUpSi+AvRvWP096qVKEup05MJGfXkle+nS/EaxCoHSilau1HK5fC6Xy2azmUwmm83mc/n19fVC9FuPfvltv9zWb71QyuULufX8ejGfXc9k82vlahlZuFiq3nrr7V/44pduu/3rt3/tGy/uO6AZiHEbEwYjGZwAVvAWiNshoSGmzHEJ0uiJw0tf/8IXD+7/D0r9g8bGB9X8B2ZPvPMXd7//4YcfbI+6js2JpbsOFgICvYnweRBYHiEuDoLA8zxCyNTU1Ic+9KGHHnpoOBy6rstsTmyBqY1N4dtBYHNhGS6hPvMbzeFDex/9+fc/uHTyPWhjj5b9h87a+y6d/dOvf+n9x6emh7KO///23vMrjitrH50/4K71W3etd96JDuMwThoHOcmyrJwllEWmiSIJIToBDShnY0uykpUlKwBd3U1QToAIApocOudc1RW6qvPXu3YVtLAkZHvG9773w3vWWcXp6q7Arufs2uecvZ8d9JAhCqejqJehAl6Sdvv9EZygmECQIMGAMZosZ89dyMrZVLi5KDsnd0uRYGRYYzRYh4fG+voG+/r6lWyZEBX8nSTCcfEODg4ODAz09YHwYz/gHkRf/6BGZ3B5MLfHq1IZlL1Dg4Nqo9FpsWFmu1dndA6wTsA2uwtCzYC5lAmFgn+gWCd1CqLXAyTJeDGS9SnzmU22zs6eBw8eP+kaHB4xGE0uK+uS7MEIDCM9GA4p1ryQ5YLN4cNRK9AUw1B+mvSBm8EL62SwPtN+HqlP93BqjLMdQe/CAIhTvWDmg70L8wwE6fd6aQ9KuVyEzYbpdLaRUX2PcuDe/Zaunl6VWn/7zr3de/YWb90qEAgKCwuzs7MzMjJycnLy8/MLCwsLCgoKCws3b95cOKkUTJTCzUW5eQV5Bfn5hXm5+TlFxZsPVR9SabS9fUMlfGFufsGW4pKi4q3nL15yuj00E6B8dCAUJn1EMBLACBwjaJIOgX3pJUZ6Rw9U7dpZPLu/fbVpYMng3RWqtsVDbWvO/7Bw74645kfXfL4whuH+oB/1YihO4DRDQkJHSLkQDsMkEY7jMpksLi7u2LFjNpstEAh4cQKDmeYA7qVIggj66UgojKM+Go82IcjOirjLp+fqlEn69g3K+hVDbZ+r+1ZVV3393cGKwcEBnKJwGoikUALz4E4P5mToIObFGX8QyJL8AYPJfO7CxbyCws1FW7Jzcnds36sa09crbggFpdlZmzZtys3Nzc3Pz58QFfydJEIQaRFbCgsL8/LystmSl5dXVFTE5/M3FxVt5QsuXLw8ptJptMZHze2trU+UvSMGg8Nq91ocODjvPoPdoB/mGVDwzPcReNCL+T0u0uUk3C7SYfeqxyBe7eHDzo4n/QNDWoPBabdjqJvyYgyO+b0eH4YyXizg9fq9XnAIZJ0ZaMA9mLO/M3bBQOTG2j+DLwz7uHkGzhUTsIvTKEq53DA7qFKZxsYMSuXg3Xst7R3dQ8Nj5y9cWrEy7p/vvPvOO++89tprf/rTn/74xz/+5S9/eZUtr7zyymuvvfb6pPLapPLXv736X3/883/993//95//+N9/+a/X33xt2Yplff2DvX2DpeUSsHW3wkDt/IVLDqebCQR9YCKHKMYVDEU8GO3CvF5YtA/Yja6GmpqKLfHXqhc0nEpqlSWe2bus7uzsG7VLrv248GDZ7Ooq/tCIGV7EgShGwfIXEwl6aRKjKCYI2PX7/V6vt6mpac2aNadOnXI4HMFgkKaDDBP1B0I4RaC4B0btdJjxRQ0a/Mj2AwdL11w6MQ+5+qni2tfHd8Q1Xl4sP7P09M7ZVeKVSM15k9ZD+aJUkCFDGOnHIfiHDqKY10f7Sfg3QkaT5cKly0VFxUVFxVnZmw4dPKxRGw8d/O6tt979P//n//7Tn/78t7/97dVXX/373/8+SWA/kyQn1Ndee+2VV175y1/+8qc//emvf/3r66+//s4777z55lufTP+sXFI5NDw2MqqRK240t3QolcM6nc1sw1jsugaHNQNDKpvdHYDcrKEAh1210T6msw4PG5VKdXv7QEuz8sGDJ7dvP66vv19Xd6O+/t7jdmVvv0qnc7gcJI4FKCxEeIK4i8E9DOH1E3iAwAMkHqCIoI8M+6igj12eeKHSZR3QppqrZ55q2QnrNrYntuoDCJ4EX8AuKF2ItWIjqFjswgoVabWhWq1VrTErlYMPHj7ufKLU6kw/Xbm2cPGSv/3t7//4xz9ef/31f/zjH2+++eY777zz3nvvvfsuAPrdd999b6K8y5Z3Jsq770176+1333jrzdfeePWvf//TX//+569mfaXVG4ZH1BWV2wC5fKFAKL7801Wnyx0IhSmwqBk64ABPXyyEUbAMF2RCmj7VxaO7T3+beHb7/E3L/7WvbGHyunfSk6YXZnxxZM/Ca0dWVOQtKq/YaXMSOgtqw7w+WLUIUNB5Q2Eg8QzSNI3j+O3btzdu3HjmzBmHwwGheHSUJqM4QbJpnr04zXgwP+2LNige/nho0/G9X0mKp2/JXSIpXR+/9v3yomXpiz+RnvrqWPWsKlFSU909p5VBCZeHMvr8FOOLeFEv5sW54YQ/EDKYzJcuXyku4RdtKc7NK7hw/gqGUt9//8Mb/3j7j3/88xtvvPnWW2+9/fbbb7zxxoS0QJKThclJ+L333nv//fffeeedt99++8033/wHW/7291fe/+BfJQKRSq0bU+kQpPFJV+/goBqwa53A7oh2YFhld/wcuxqTQ22wj6qs/QP6J13DLa3K23faFPX3pchtKXKr6WZzW0dfb59aq7U7HATm8aEeCvP4cJRGPaTLjbs9BDtxRnlxGscDJBmCCqsSv5/NwI2gJ0brHHxjCOYGfxx2SSrADtcAu04nbrNhBqOjt2+4uaWzvaPbaLJJEVncqtV/f+XVV1555a233vrggw8+mlQ+/nmJffMhWz6Z/tmHH378wb+mvfv+O/9489W//O1PH3784ahK3dWtLJdUFm/li8Rlksqqmlqp0+0JhMJsdAkZjGA4EcSIiJehqACuHR27cuLoPlHcrZqVyvaZVUUL5k5f9sEHH381c0Fh0bxrVxcomzfeuJJWLilQqUdhZBONkpEgFSZJP+H3h4JMhILgXB9BEHfu3ElPTz979qzFYmEYJkBHaSJMkAQToelowEsHMTzY3dUtFmw+ULq47XZKQ9O6pOx33vzwz9M+e/Wz91dWFfH6uhe0P1x5qGr5pR9+MIxZYHgW8gQjbK7pQJCCGWjwcmQCQb3RdOnyFYFQvKW4JL9g86mT54wG247te15/7a3XXnvjgw+mvffee9PYwskqJrrJEv1kUvnoo4+mTZv29ttvv/rqq6+8+tpHn0wv4QvVGr1KrUdkTcreodFRvdHktNq9VidhMLuGRrSDw2q7w82+eMLBUCAUDv0B98HikMmMGUyoVuccHjV394w+eNjV2PQIkd+9cbOlo32gr08D87suzIXhDgxFKZwK+6kQg9MUTvvYysD8ElAyBrwsSffvjl3OKwDmgDj7gdXNsHAFSnc8+iiGXTbc12u2uLU6q1I52NL6pLm1XWcw1wF217z2OqjbDz744JNPPpk+ffrHH3/80UcfTZ8+/Ysvvvjyyy+/mCifs+WzifLJ9M857L7/r/feff+fb7z9+oyZM0wW65hKV1m1vYQvLK+o3Ll7D4LI7E6XPxiCRV2SAiSEooQ/hNGkE3XK6y6L8pZ/WzYdOT1znzCuIGX1tPf/+fHc/+u96f+IWz1DXPz1yb3z6k7F7d25svrgFpIgCV/UQ9Iu3EMxeARouNiZ+VDIR1E3b94sLi6+cuWK3W6HOOVwNBqKhqMhf9SPM34MD1Fe36G9xSWb59SdWXX60LySok/WxE9/618ffDr33U8//Xxz7jc7+YuRs19dOjLv2L6sezfqMNxNh8E5xmF1+7wEDU6eFIddjVZ/8dJP5ZJKvkBUVFRcVyvXakxikeSdf77/z7ffnfbBtPfff/+TTz759NNPJ6T1GSe9CVmOC/bTTz+dzpZPP/30448/njZt2j//+c+33nr78y9nlEkqOWdARf3N7p7+4RGd2ey2OXAWu27On8Hh9PwMu/4AuFED6zQRQHG/w0Pqza7+Ic2j1i5F072Ghgetj3r7lBqD2eXAvCaPY9SmGXGOaQmdw+8EczeAe4OEN0DhQZoI+olggAgGSfr317uTsRuD7zPYhbfyhD+D3Y7p9XaN1tKjHGx9/OTho8dGk02maIhbveaNN958//33P/zwQ07W06dP/+STTz7//PMZM2bMnDnza7bMnChfxcrMb2Z89fVnn3/+8fSPpn34/pv//MeMmTNUGu2YSrd9xy5Radm27Tv37j8gRWQmi5VmApxfn5+KMkE/GSG9AWZwRHX6xL5vty9pkS/rf7jgzLF5uSlLF89eO/PrhbO+WpWRkHpkT+L9urih1lUPmxIObl/5pPke5g7RYPXiXtJD+4gQLOVHgsGg2+2+cuVKWVnZ9evXOeyGgPQFaCIwH4F6GQKLjii7dpXFXTu9THk7+fbVpQe3zcpIXDNnRvzHH3+5cFacMC/19JHFD+q+6ry5/NrZ1RfPliv7lP5QlGaimBsNEjBG48RL+wNDw6Pnzl/csWt3aZmkaMvWB/daVWP6oqKSD//18Qfv/2vatGkffvghB9On0poQYEyeM2bM+OKLLz7//PPPPvvs008//eSTTz788MNp06Z98MG02XPm7dm732SxG4yWxqY7XV19IyN6FruEzUkaLO7hUd3QCDgoh4Ic3wmQZPwhHIJ4Yl8gSvkjOB1ECcbu8ar0lrYnSqThllR68+Ht7t4eldHismHYkGXsfv9DeZdCppTdH7zbOdLZreru1fUNQZCiXu+xmTG3DeYh6N9X74IjzoQ3Fqd6J+DLrbiO693J2HU4vBaLx2xxDwyOtbf3PGx+bHe4m27eXrVm7Vtv//Ojjz767LPPvvrqq6+//noWW2bPnj1nzpz58+cvmCjzJ8o8tsyeM2/W7LlffT3z8xmffTT9w3fee3vW7FkjYyq90bJrz74yScWOXbv3HzxUW4do9QZuDiQYioR8UcipHHG5KRKR3dy1reCnUyu1XXG6Jwt/+HZWAW9mRXlcevrs3E1zBPmrTu5Z8+TmYsvA4uGO1ScPLhQXpvd2qilflF3KxgIBIhwKcJMMKpWqurpaIBBcvHhRp9NRFAX8hAzQymGwIBb1eaOnq/ccrJjzULHQqFzUJpv9rfCbkqyFwq0LkjbO2F6WXMRbePX0Un3nWtvg+tvypbt3xh07dsJo9PvoKO3DGS/MWYCfkz9A+ZgeZe/ps+f2HzxUWbW9aMvW9rbuoUFVfl7Rl1/M/HT659Onf/rFF1/Mnj175syZnKwmJPdUmPPmzeMkPG/evDlz5nz99ddffPEFB+KPPv5kwaLFBw9V6/SmMZWusfFOT8+AWmO2WDw2B25zkcbJ2A1FYJYwzGI3BN6bIToEa0s4DeNMj5c22txdvUP1N+/JFLebH3Yre1QGvcfpodQO493he2cen9x/Z9veptLqG5VH7u4+0Vx9vvPkVeXF2t4r9YN1d1T1XaaWAVvPsKNP5RoxoDobZnMTKEYRuI/ykF6UIiDYhoFXko9igoGQn/aHgyFYLQFutPEKgfJArwoVKBfYBvcx9hsf87ORH+ljYMEPOAQgpNlux3R6Kxsm3v/wUZvd4bl7r3ntuvi33vrn9OnTv/zyy2+++Wb+/PmL2LJw4cIFCxYsWbJk2fLlXF26fNnSZVxdumTp0vkLFsydP3/egvmz5875/MvPp304bfbcOXqj0Wyx7ttfvWPnvgMHvzty9MS585cV9U29fYOUjwlFII0o+Of6Am2tj77dV3D00ILO+yscY3Hm3iXIj1/V/DD/1tVVR7ZNv1D9jfzUqubr61WPVjv646wDSx/IlgkLvrx4ptrucDOhKOSpIbBINIR58a7unpraun37D+zZu++HY8cV9Q1DQ8MYLLeSXpKmg1EPRkhrzu6rjEPOzR5rX2DvWzpwa6ns6Lxr1QvlZ5Z8V/bx3asJyPEl7YqV2PBGXLVmtGPFucOz90tS2m41R8ioDwO2HZJigqEoihH9AyMyeeOJk2e+P3xs775D5ZJtXV09A4PDabz0L76c8eWMGV/NnDln7pxFixfNWzB/yVKQ1YTcli1bvmxCnuPCXLJ06cJFi+bOmzfrm2+++nrmjK++mv7p5wsWLv22+rDRZOvtG757t7m3d9hgsEF4vQO3OUmd0dk/qOofHMO8JDCIAcMUy78L/J8BYM7xBaO4L4QRAY+XMdk8yv7Rm3dbGm7ef9Ta1atUGzSoy8FYPJ4n5u6flOd23hIJEJ5QmiyWZZTWb6poKtp5W7jvTln13YqjD7afat5/trX6UvsPNd3n6vtq7g03takfdes7+4zKAduA2qN1MR48QBI+imH84WDY72PCgRCQlTwNG54U+87SQMU4eCboHQDiMexyeo4dt7HOaCTA1+XGTWbH0LB6cEjd+viJ04m1tHYmJKa99940DrgLFy5cvnx5XFzcqlWr4uLiVq5cuWr1qtVr165eu2b12jWr1qxZtWY1V+NWr1q+cgWgefmyhYsXff3NrOmffTp3/jyz1WIwmQ4eOnzw4JFjx8+cPXf55KmzR4+dbGi8ieFEOBINRoMEEXGYqIM7dhRlzzr3w/yuh2sGHq/uubv8bu3nbY0LntyMqzn+6c3L8zoa4rpvr+x9sHygeVnf/aUP5Wu3i2dvLljbo1RSTMRLMqSPCAQZk8WKyBXfHT5y+MjRUz+erv7+8NFjx+/df2izWymaougwSUf7B4c2rpuzXTzvdu2a3rvLB5uXd99ZfL9u9oO6Rc3IiiuHP2pvXN51e+mT2/NHmteMPV6nvL/m+o+LywrnV2/bFsCiBBqMwG0zFBUcHdPJFTdPn7n04+mLZ85cOnzkxO49B5V9vcq+3o0J8V/M+HLW7G/mzp+3cPGiFXErV8bFrVm3lqtr16/j6rr169dtWL9uw4b1Gzeu27B+9do1K+PiWDEunrdg/px5c7+YMXPhohXV1UdNZkd3D2iZvv4Rs8Vps6MOF2FzEhq9Xdk/2jswQlIMGPbAkcbmVwMaMli1BPYRN+ZzoqTViam05s6e/lt3m+tv3L3f3NHXpzXqMIeFhkh51HhXffv4w+oqWaEYSRPJeAKEV1LHE0qzKuQF22WFVXV55dJNZUhepbxwR33x3kbxtzcrj9zedfzu/pP3Dp1vPVHb9dOD0dvD9kEn6YR1bRoYVBk6+J9gd9ynZNz3D+CLeUmX2+tyew1G25hK39XVh2FUR6cyPX3Tx598Nnfu3MWLF8fFxa1bty4hISGJLYmJickpySlpqVxNTk3halJKclJK8saE+LXr18WtXr10+bJ5C+bPnPX13PnzjCaTzmA4dvzMjz9eun5dhiCNl3+6fvLU2fqGG24UA//dgJthgnqVKz8jf93yGZWCRYd2LDgg+eaAZO7+HV8e3DX78IFlO8vm7K9aXL176cFd8w7s/Lp619ffVc7ZX748P2Px8mVzb92978LIADDs+WmGVGt0UkR+6vTZK1ev10mRk6dOHzt+8tbtu2aLCbwnghE3Rre2d3/yybSCzOXV29ZVS+Z+v2f2t3u+2bftm0M7F3+7c3ml4OuDOxdU75t/YNdX3+5YeGjH/F0Vs8oE8xM3zMni5bhdAYIJoIydIBkUJTs7ldeuIxcuXqutkyNIw/kLV78/fHx4dLSto33N2rVffjVjwaKFS5YtXb5ixZp1azcmxMekl8pLm6i8tHQeLz09PTMjjcdLSknZmBC/Zt26uFVxy1esWLJs6ew581asWHP48AmT2dHXP9Le3jM0rLHZUY+HcHl8L8Ou04E6HKjF5tYZbVqDRaO3DI1onnT33X/4WNF4G6m/cefh4/4BrUmP2YwU6vGjPnLEPtzQjXzbKBFL08QIT4SklUhTttYkiqW8cmlm6dU0AZLGb+DxFTy+PI2PpPKlKfzaFP71FP61ZH5Nuvh67j5EgnReGXUMoz4MhxXvKAUuRWyI+zhD1K/Wu08d/yY7y45jF8VIs9mp1hj7B0a9OPOkq3dT7uZZs+YCateuS0xM4qXxsrKycqBsys7Oyc3Lyy8szC8ozCsoGK/5+blszcrO5mVkJKemrtuwYWVc3MLFixcsXKjV6w0mE4I01jfcefiw/XFb1917j+SKxpbWdgzDQ5GI12f0ByjUSR///pxEIN63XbCzPL9KkLdXIty1o3xbRfmubTv3bN+/s3Lvjspd2yQVFeXCnRWCQ1X8fZWibRVlZZKKJ8o+NwYhteGwn6F9Wp3x7r1H9Q037z1oftT8WK5oqqlFHjY/tlqtrKNGCMWpEbVhy1bBnh079laU7hFv2V0l2lFVvqOyate23Tsr92yX7Nomqdq1vaqqQrijSiQpLywty6nYtqVMUvbdkbMeIuSL+s34GMUEMIzq6Rloarp74+a9R83tj5o7GhrvXL0m1RuNDx4+Wr1mzazZs+NWrVq/cePG+Pjk1FReevqm3FyoeXmb8vI4ueXm5+fl5+cVgBdaXn5+9qZN6ZmZKWlpCUlJG+Lj123YsHTZyrVrE44ePcVqGcPgkNpgtLk9OIb53Cj9MuyqRo2jo/rBYVW3cqBHOdijHGx5/OT23Uf1jbdqpPJaRHHnYStQkugwm5HEXEGajrgwT7+m98LDIxIkW1THE8t4YkXaVmm8QJpYjvDKpTyRgido5Aka0wQNqYKGFEF9skCeIJAnCOXx/BuJRdJ44dUAS2StAAAgAElEQVTs883Hhp39mN+L+5hAKIqTYR8QnsSozX4VdoEueGKyjHN1mGQ8gE8FQfptdtRotGu0Zpzw9ygHyyXbk5PTweOruEQoEJeWlksklRWSqgpJlaS8UlJRJamsklRUlVdUQpVUlkkquFpeUVUuqRSXSUr4QtbBPDcpOVVvMFltjo4OZWdnn7J3eHBI1dc/0t3TNzqmIUifH7KBgQOI3xfF3EEYyToxHKMwF0S+eX2oE3M6UTdJMy4UcwHVGIYBnxiGu/weJ2myuJwYRgb9dCgIzHbAROS32ly9fUM9yn6lckCpHOh8omx93KnsHXQ50FAgEgiEgYne77e5MbvDa9a7vc4AThBAaURiqNfrQr0oTrgx1IN7UMLl9tBulHFhhM2FWuyYGwv6AlHCT/iiLtIHvvwajUmpHOztGx4cVPX2Dnd0KltaO612Z8vjtrz8wsSklPzCohK+kC8UC8VlQnEZCJCrlVUVldugVm2vrNpeuW175bYdFVXbyyuqSssrROIyvlC8lS8s3srPys7blLv5x9MXNVqT3gCcaB4PwS4XADvMy7A7NKgZGlQPDo529/QqQSL9ra0d9x+03Ln7QFHfhCga7zxqVfaN6XRuq5nEnEGaiJIE7XQ5743UV9+XlNVl82uTxfWpfNlGARJfJksrk6YJpGl8BGwJIRgVaaXy1FJFall9qqQ+VdKcJrqVsr2xCFFeNOBqMuAjfBC/StD/EXafInjCJ531zgHsut2404U5HBhNh01mZ2PjnUuXrtXVItI6GYIoZEi9DKlHoCoQqRy2iEIKVS5F5HVSWazK5I2IrEGKKGrrZLV1yJWrNcdP/IhiOIoRY2OGoWHt0LBmZFQ3MqodGVXrDWacBHfLcIi22awuJ8YwUZIER61AKOqDCOGoD9J2MJgXXMyAPICAPhwIRUg6QFCQhIn0M74Ig/lgzR4DlkOGpsJuDz6mMsCFRrSDQ+qBQdXA4JhWa0bdFENFfb4ginsdmMsXDtKhMMVECCpK0kEgsvWH2EyG4FcNPF+kjw4EcAKcJChfmCCDNB0libDH5TWbTOGQDwMOJJ/R5FCpuYBw0yjLQTim0rs9mFqjv3K15szZi1eu1tTUIrV1Mk4ydVI5V1kBgiRZkU5IeFy2MfHCj6/XIFKkob2jh2WG9HpQggDWEsbrpd0vx67V4rBZnQ6Hx2S02qxOq8WhUes1ar1arVf29N2733LnfltXz4ha47BaCdTNEHiAAj4EYhTrrx05t6uhhH8doCmuTypVJJcreIKapFJphkS2SYJsKkeyy5BMcV2GqI4nqk0T1aZsUawvkSUdvl/1WH/bQ9spyod7GX8oyoSjwO/0W/WuH1g2Yb5sYhl5wtEMJhy8XpogA16cgbePh5OI3+X2ut1eIH+FSnkxCnQdiqMer4elT2RJFyHqiWVWBHJFruIE7UGhGwAZI3AzUiazjaXRjVgsbr3ertNbNVozsESOaXR6E2szwDwDmw8MAtaZQJhiAgTNeGmfL+inGSAmoigqHA4TQF9LwUp9wO/FvSjpJfwkHaaoAEEHff4QhN+wKW6iXi+tUhs1WrPR5NBoTCPAS2mwOzDaFw0w4IUcjkLsOkHjgWgoEA2DOse9sTznLEMoHQyGCMLL8t1Cbkgvy7YQoEMRfwRC8ELRMFwbgkktVherDq0Go12nt+gNVqPJ4aODoTBMQXhQrwsUvMfhgiBdTj5OF8ZVlxtzuUFcbo/X7YE2+9HrQaHDczLEcIpkvV8INv4POO9Qkn1ksFLrwZiX6V12jRHcNHGcZJiAj6I9HowkgPzDYDA9bn1y+05rZ9fgmNpmsUO2H/Cyg5EQNoIOIqNX99+QlCE55Q3p4vqksqa0yhtZgtpUQU2auC69VJpRimSWIdnl8k0ViryKhvyKxoLSxsydN4pk/RfMpAq8Oskggwf9/pAvFPg3xmpAahZbK/45fGkmGAwBYkLhKOULohhps6NWm5vTwRaz02xymI0Ok9FuNNig6m0GvVWrNQEjp9qogmqAqjKMqfQwjWuya7VmTglpdeYY76dabbTaULsdVLvdgZotTr3Rojda7E6XD2JfA4w/gpME5kVpPwPAAs1K4STO+KKRUNRHhcEzmA7TVAiCC+goRQUDEb/P7wOG3RAE3lAk7cUJnABqegyjdXqbBVgZvUaTU6+3G41Ol4sA0kuS8XhwHxUMh6IYitOMH84QDTNMhPbBmYOBKHAvM5FQIOojIxQBEfuAYH8oHIgwPpokcIogoqEojgZ9PjjQ7sAMRpvF6rLbUbPFZTI79AabRmsyGu0ms8NscbKxZXq1xmg02Q1Gm1pj4irH3TGJvsMMba1ZBzweVmDwYEk8jEaW1hIlbHYUqs3jcnsxL41hFEEGUK//5dglSZLAMK/HjRIEhWG4w+6EnD8EpVZr799ruXmjpbNzcERtNjlQD0GTwYCXxm1uS/PowxMPjm5HxBKkQNKYtVW6QSBLqmjM5temltQk8+uSBdIUgTRNAMZDpgDJEsqyBfLsUtmm3XJ+U1+NkzBHmGAYD0eZaCAY8oXp/xC7E6sVbIwNOBBDSDPNsE+ODvv9URxnXC6v04XZbB6jYRyyBr2Vw67JaAccG+EBjFeWlVZvsOoNVp3eYgCj2aTVgfRHRoHB12J16XQWJxitEN3pcuEcKbTLjZnMNq3eYLHZ9XrgmjZajA6X3WS2aNRGncaiAVoWjd5kMtsso5oxrVGjM2nVepXOpDfZrFqDQaVWm0xWi9Fl1jr1aptRbzVZzBaH0e5y2GyYyezyeCh29trGdRurFTVaLFaHxe3G7FbMqHE5TIRe41CN6jUavd5o0hr0OqPeaDUarHqtUa016owWk0qn1ei0Or3JYOD+cZPRYrA5bWar0+1mLFa320NYrC6TyQH/HUSwArYsVpfXS1usbr3BptdbtTqzWmPU6ixGk11vsGlZgMJWZwGYsowzer0VWGlYYpoYAQ3HR6PVWUxmp92B2u0oipKULxgIRH00mEYelHSjL51ngKgjkiAwzGWz4RhG4rjT6fCg4H+u1mpbmlvuNN1qb+0eGbWY3YyNYkYw3T3VrUttxw7dKqtQ5Jci2WIkQyzjCZEUIZIqlqcLkTQhksrWNCGSzkfStiIpAnmaqCFd0JAmkeacfVTdbWhDCSzoi4SpcID1XKLCfo7DHhaOfl3hfs+tVjy3hUm3ABEOEGGGDNNkiKJCOJeLk6A9GOp2WYFXyeWwO112J+p0YR4Xhrowm8XFzix6LBaXwWhzujDujenxEE6XF3i9QbliNhtwfLtcuAP4u2HdZVIlYRDkAh3scGJGo8tsdhlNoKXgtauzsRXohTQsn5BaYwQVpTNpOAjrLRqtWa0x6XRW+KUWql7PcTtbrTa320263SSwK3hI4N/1kB4PxfrNeUxmh8XiNplcBr3DZHTrdXat1qrTWbVAZWRSj1/FpGbBy17FqNEASbBWa4UK5EZmvcGq1VnB5ZXtjU4nDozCbsLjoaCiFHtF0un0gijsmM0+Lg2uYbV6nqso0PfaUBAaKzf4pR2O5SpMKeAkMHESPtY1BeKaWE9a2oNRFodXpbP0DoyMafQseQqkX2Bzskb+QILaJUgUddttPpzw0zTmQT0ej8vlUam0bY87Hj1oedLVPzBmGDZZOg39in7kxKP9uxsKy5B0EZL2sirjCWU8PpJaAthNFdanChTJu2SbpV1nRxyDGEX5fREIuIFJLpIKQTKAf6PE1iyeaUBmASbs9wVhnZSk2QSxFEpCBdMSJyCXkcNlc2EulILE4RiNuSknoBN1g38c7gSqZNztxlGM5Fza3R6Sq9xTBBJP1IeiPswLtjXm9bEUxTCk96Ckx0OwestjsUA1W9xms9tkdplMv62azXCg2eK2WDwOB+S6eWF1OGENfPxa7CGxCxmNzimryRn72TMNl4vg+gnXPeDfnLg09BZOFGxHcrkJqC6oDqf3hdXpxLkfcD+GM7Nn8HgojOUpYn1ZJ8gigGkOVkxZ7MJqQ+/AiEZvBIsLElJAjirIJ8xhF8cwj9MFxiztx1Av5vZ6XJhOY+zoVN5r6XjU1fWwr/2G8ual1tPVt6p2KPLKZMliJHkq4ILqlbGzvEgqH0kVIKkCWSofSeEjKdU3ym8PIXpMT0BCiEiIDgfBGchHwpjh3ynPQDb2EQJ+GYqkKYImcajg8uaFSvuYME1FMczvglBAP0oEPRiNojSO+Qncj3lhPRknwCXD7kA5IhUYXrAx0hjQzXKVZiHLeL0Qn8xWmBHAvOzgD+BLeFDC4QQ7mDWFOS0VUz+glX+xOp1eJ9g5XpcLsjN4PBCn/cLq9hDcheBarEob13OsLc69Lp7fwiFT3Iab7XseD4kC7zKw5AJ2oYtynWf8Np6+cFAK3vLsUc9vx8/DnmribONn8OJcpPezwP1l7BJcwUkP6G7I2OJxYZjHi6GExeToUCrrHty4/kB6/v7po7d2760vrpBliJEkoSxBKHsJdkHjCgC4yQIkRSSDWbOS2hQRknHuUXWn4ZGTdvtgcBAJMuFwKEgHaJLNIvBvgDcG1mcaTBB0ri/goyDvhI+koRI+HwF9OuyjowQbuery+TR2a79qbEyvc6Eo6WMwjLDaXR4UZ/xht8dLsNHzMO3g9UFsCARCj7MBcdyp7Cwy50cx7koB8GUTT2Aw9GZ18IQadnsAgqzfM6jzX6wYgIarXMfgOskLthgG0GEr6Hu3h+AuNOFjDR3p+coZ6C+5jUlXh4tyceAsUexTuliW6oB78zwNHWe7MXfPsS132ywfDStG7jwsD/lzwGWXnH5B7+KQqImgSB+KYiiKeVDU4XK6UJfD49QadXd77p24fby6Ye8u2dZKJL1MliiWJwplySUIqNWp9C7M7MrSBbI0PpIkRJJL5TxhbZrgOq+qfrNceXnMNYQD4R9Eigf8wXA46A8wFPM7691gKBRlwxID/gDwn0J6Gh+YCwSFUz63j7CRbh1m6DH1KNpll5rOyR/WdY22jWhH+vqHOp/09PUP2ewugs1+g4/Tl0AgE0dVzfKncHzrQRqi0CBqgx0dAnzBGYigvDhXYzibeIQxOALEX1Lh9yz5EFAIcIQYwB/AcbY+t4UJ0XH1PwGg2IVe0njZDXD3Np4cZeLSEBc4IYTnWbunvL2J24bD4QxPJQkUYePR45ypwKKWm/T0YD6LY2qbwev1AuUu5IfBPJjHgTnMqFHrGus1dN/rvXn+wfE9jYJt8rxSJEmErBXJ14sUSQJZ+lZpNh/JnAq7fMBuplDOE8BRSWUynrAmrbRm07d3K1tVd+y4zReKgJ+eD8IG2dhBCHH+N5QuxLo8TRz0szbkcWKiEX8k7A8HGeC+8PlgTOr1esyYvtfR9UhzS6a8fO5h9YG6sqqzRft/Ep9u+vYycv7KtWtXr9dIEaS5pRXz4oEQLFZz81MT+TUgq8VEeilItgMR7RCMBAnYSEg55oNkY8D1QkHYKcCaRTarwnGShkrQLwUu4IZFP8fkMk7mAjHD3Amn2sYuBNdiLwTza6wl88sw/VlHgm4D/RBudZxQme2irBDYYHo27xWLY67rjuOSQ+dUW66fT0gSUi5AunA2chZsXGBZHqcH8DH+X8YuhmGoB9SuE7cbUPWAveuR5kbNk7NHbuzeVrdZiCSLZIkiRYJIsUEgjxfIkwWyTKEsTyTLngq7JdJ0oSJL3JAhlCWJkcRyJE14NW0bUnT2yeFha6/XR9CBKLil+sJALACp0BigFPi3ylTYZRg/Q/qB2DgS8IcpMoTaSf2Yo7dH33pnCLncefTInard8s3bkOwqJLP8WkbphYzSszl7j28/c+7s9dqaK9euXq+tVWk0DLwaQm7UAx6bE1nKJoAbHE8UFQiwbpkQoOZjgFsBqLjZGjuEgvQtHI7Z+TuK8YJ6/oU6DnTg26MJNsFH7IQvacTeA1zoP9tV4G3wwjrVPeAEENU8TSzC/e8TnTZ2de5av3UbOxxy28TI/yYBl5u2R70v1bsYW1C3G8WceqeqU/NQprx8CmYSioW1vKJr8cV18SVIkkCWLJAl85FEPpIsUqSWN2aU1k85z7BVyhPVZ5c3ZYsVyWIkoRxJFV3h7VEIkdFLJtTAPsUoTkQJKkSD5w0J1ISRKJsE9Tfjd0rsBhkySGB+1EYZx9C+NuNd+cDls4+rv7+zbV8DfxuSV1bHE0kTShsSq26lb2vKKa/LFlzK+uH6d/ce3O9RKh82P7py7RoiQ0bGRlEMs9rtGI6PB+XHRAxULrCqB7N1kIiU8zx+imCgs3/Rmh8E6EOer1+usEwYe4ey2j22FvN8IxbJ9xQN7Ao5p89ip5rceNk9sE55LJkaqw7BuxpSrTJ+QNszlxh/6bPxV+NSGqciGHewnuRnMj6HENOycD+TNe6EVGkm8Kuwi2OYG7UN6J7UtZ4/JCsXXc0ourahSLquRJEkUoB5UFzL23I9tbgmuQRJEMrXi+vXiuQJL9K7PBHC2ypNF9XnSG4CdkVIQrk0RXyFd6hJctuIOAkHTUcIIop5IwQVpIOMz08wzH+A3efMBs7BF2MwLTbWpX8s77r2w83926VbRbVZMOlRnyJAUkV1aeUNPMnNFNGN+K3ydXwwbHK31/Ov3L3Yo1SqNOqOJ50nfzy1uajo2InjrW2PB4eH3B7g0oLsiNxTmYRgLhvhZPiCkxCbEia2YhILDmUPh/M8D75n9sRCRWK5FplJ8SOxb7kGmwKDfds+ByyO7umZ38eOeuaisY/jkOJQFQMuyxg7LoEJ1xGObXKCXOsFjEcssp8SeXFAH+8VMYhPyDN2A7+MXY/H4/a4bG6ryWNvH3ty8mZ1+dV0Yc0akTxeAHMF2WJFlhBGXYkCJEGAJLJmQIoYSRPWZQjrMstkGRJFSrk8oRRJqJRl7b8pPvJoX1XDVr5s4xbZ0qK6OGHdJvH1PMk13jXl0X50xAujMvAzpdkeHCPdBgoZoBMK0UyQzV3MxQ5GA+EIHQz4wH3Fz0QZIkB4fV6KoSA/ddDP+BgfFg5Q7Fp/NOSL4g7GMOpWdhnuKwYvVreV7b2/taJhE78utehawpbriXwkRaxIL1VklMrToUI7XSznieFjRqk889Td/S19t/Rmldlovn/v4a59u6qPVz9qfURhFGQQZguXVHs8BzT7ngCjZ4oyZZYXCA95mifmZ232VLEDn3kTxfY/03jJPUzKCPbsFSflXIolX/rlxtO7ZSDUiO2obEA/yyZKv6j4INPMpPo01xNLQhpzZZkQC3djHi9htrtH1LregSGjxcYl7GblD3F7f3C5XE6n0+awmV0Opa7/SsuZ3bLCUukGoWyjUMETynPEstxS+abS+szS+nSxIk0kTxPCKlqmsD5T2MATwExZyo763B8eVNYqTz1QN3aZW3/qPr3rVoFAvqqoblVxXUYpkl9Vl3l77KqJdJBsZrdxHTA57XAwFIpAglVWezFs+A8TCAa4FOJ+CPKI+oNBgqS8OOHz0aEQBC6Fw5DF2hv0WkjTkEPZrLkl77188fHhY/d2HbwtqrqVJ2nKESvSufURPpIqkqez/8gEdjkET9p+11R5uxvRWkaddsdA/9D5ny4cPXO0vbMN92Bh4PSES7J++xDlx5ILAbSmwC3sfgZ5sY+QVnQq7IJL0tMSO+TlDf/U/ef/Rew+8y9MjV1IazIJr5Pb4Asw7rQNHrCcWLgfoDhpcXhGNfr+IWBQjkShcPIH7DocDrvNbjPbrTbXqElzu7/+xP2dVfIMAZLAV6QIFTlipECMbBIhmUJZuliRLq7PFCmyhPKcLfLkzfL1fDlv103+ufajD1U3Va4hF27DcbRL//hM64FtjenFsvVFSHJ5U/7+xmKl7SEOuYifchUCgifBlw5Q/pAvGGbY0RvN+CjG54PRkD9Ie8MhBphGQ8FoMBgOhoNMiMYZr52w9ONd7Y77DaM15zuOVN+p2NlQJAGvCZ6QWxaRpYnk6WJFRllDZllDFldL66fE7l4ZH2m/NGrud7tddpujua3l3JVzPb09LHbZML8XYfcp0J5rvQRwoCmnqLHTcIdz/WRyb3n+tLFDnm9MdRWGU3ITupPToL9q+wxkYx+n7sQvO+3U2MUIyurCxrSGoVG1y4Nx2I1Go0C4Ho3+wWq1Ws02q85uNti0Jn23pq2u68zBmwIRklosSxTI00uRXGFdBr8Owh9E8jRxfYZAllEsTd9SmySSZxx6UHm976dOc5cJd+A+H/BVYpTJobvZW/vd3TJxI69IkSC5nfvj4/0GbDRIRoEWlPP8Ytk2J8OX8OGQ8oxNPwQTZgxwGIboUJgBhwTwgYpG/dEgHvLaKMuoa7DL8Pj2sOJ8z3cn2vcevFtW1VAgQnglSCK/Pl54I4Ffn7ClJqFEmiySp5c1ZEmaciRN2eWNWaB3YzbDJI3LWRHbZZsvtvygNHR4MBeBk2qdFmlE+gf6aMI3nmj+d8TuJGUzWfHEtO7zwI1p+t+M3Smu9RLd/+99NTV6nzVXJp9/8r8/We9ihM/mwlQ646hahxG+GHZZ/Rv9g9lsNhstZrVVrzJotZphfd/9ocbTj6q3KQqLpYnFSKII4YmRFBGsMiQKpIkCaQq/jieozTjQVHql48Sd0cZB56jdR+L+KOmLkDhDYrDA3Kt9crntxI5bRcWKpPKmTfLhKx7KHfFG/b6QjxkfnnNksRx8YRTCBBkm5GfCfn8kEADP1yAkUQKnQSpKYUHUQpmG3f1txgeNw3VXun481VL93b0dOxuKquoLymU5YnBYS+bLEwUNCcIbCYKGxK11yWAnKNJB6TZmlTVkltZniOTpIjlv3N59DrsSxaaj93c1j91yE06aZtwo2tze0tev9FNMNALd/YU2w/NIiu2ZrDInt4HNd1Lk8+T25LXxyYfE7OzJO2Pt2BWfb0wOsZ58IWhPRGXHQq9/ReNlKHxe63N7XnIheC1M6lo/wy7pY/WuUa0z+iDD2M8KYNdkNBs1Zu2YRqMaVemGu1VP5N21393ZKUYyims3CJGEUnlSmTxJWBvP/2lj2fX0vQ0lxx7tvjek0NlUdtSBUTTJRAkGwoy9Ph9Ge2masjotdwZuHr6/u1yRtU2xud3aQjL+CAGZ4GCGZXy6hwXxxMxLOACkLkF/NBCMBsJRJhIhgoyHxm2EU+0b6HE+vq2WXe358YdHe/feElU1FkqaciVNmyRITjmSXY5klXHubLJUmMuDNwZoXDByFBliRbpIAZBlvSxShRDKwY7VntuK69N33dgqU16xeS1+f8BHMyPqUaWyG8e8YXCl/d2wGwwGp5rdeyF2gUGOLTGwPtN4HrKxPdwU3gsvNxk0v749WWU+054Ku2COTwLoS9o/wy5BWRzoqEavNZgCYfDGjhkMYDMAdk1mg9Go16t12lGtVjWiVT8e6bjScW5Pw1aBNEkoTxLLU0qlKaXX0iqvbjrcuF2mvNxla3ESjgAVYcgQRbL0/HQQ9we8DI0xJOOncZLqN47Wdl6uvll25OaOMVRNM9EIHWJYtpXY2slk+yHki4ZY/2gmFMRDpI22DbuH2nSPbw01XVOePPO4+vu72/be4FfW54tk6Xx5krApufQmT1yXUSrNLEWgipEMEWjfNL40VYCklYKiHde1rH9FGh9JKZEmw1fPoZbbU9KQLJJnnn10WGUfDgRh/OhwOZTKHrPByND0/zfYDUysMHLonADtL2D3JeZEYIqlR25S7yUwmuqrZ/A6+ePvi10UJ40217AKnJ1DkKAlzI3Vxm0Gi8VitpoNdoPFobNY1AatTq+3DRt0dwZvHru3u0KeI1RkCJGMcmnufkXphUdHHwzdUrvUmJ/y0VHKGya8DIFDGm0fTVF+P+kLeckI6/gSsHi8bWOPax+fUHRetBEoSUcZhvDR4KM5vvQXMx5YCzhE+gMwH445vMYRu/KR6kZt99kTDw4caJSILmTyz6UJL/PK67Iq5FllijSRIlHUkCBuTOIMA6GMJ5KlixQZQkWGQJYO0XIQAcoq3foMsSJDpEhnZ/pSttYlC5DUqbC7tSmhWJFc3bS9fbiFgfXqqJcgBgf7B3r7cK93Kuw+owInf3wGeZM/BljeiRdsJx8P/QcKa2aPT3FMPkms/fODfvYpEAy+4Crs1VkT4tdqxBiUJ4P1mfaU2P11SveZeQaPl9BbHAMjarXOGIwA7zxHaTU+VrPZbFa71eQ2OTGz02mwGEwWk8dodXdpumraTx9sKi1FCiXIlgON2651XOwyPrERTpwK4FgY9QTcqA+iWgkM9wELOqRFJqM0LJjBsAujwjqHoWPktlLb6gZS/wjuQylw6WJn+LkpdNpPMQHIvUOSfsaLE3aDfbBj9DbScfb47d27kS2lNZklV5Izv12Zun9J3rE1witp5UhGKZIqqIvn127kS+OLZYlb5Un8+hRBfZqgHgLrtyKpRXVJW+qSWS94YJAQs1MNInm6AMLxX4Zd/o2kkoaUXTJhfYcUI7FwOEpRtGps7HFLq8vp5AAUszu5RuzV/MIGEGa9qICanLrGoDf50NjVJ++c3I4d9UzjJRcCQyLwm+szeI19fIk/FZvkY4pOMjG5Ox5MwM5+cOvqLhTTGi0Dw2MavTEYjjJ+YN9lICgPFPAfPBPFxU70uthis9l0Ot3Q0FD9Q+Rgzfbj8sM195EWZc+Y3uZweFEn5rG7MDfh9YYwbxDFGDfGuDDa5WVcOO0iGIwCr1mCJjGCdKFeqwO1OTAU85O+KBMOjke9En6KCnkpv5uk9KjriXqo295yX1tf03X62O3de2X8qrq80pp0wbXErVc25p9YtUT8adL3cSVIlrAxU9SUWtqYxhoJ2UXIhsK69fnX1uZfXlN4eUPR5fjNF+LzT6/ffH6jqC6Ffz2p5HqioBbcNUH7ysEXXgBtzhR+bitLL0Uyt9dvPtNaPeTsiUbCETKqHtRdr5UOj4xQFMXBws9Sx6TBf/gAAA74SURBVIMajkS49F4vmo+HfVPqoZd+8cJuEAB3euCOfmFh4zRffNxLL/V7fvkSUUBiiCkKpFtiJ8KBPoV1/aNp2uv1ut1uo9E4MjIyPDzM5SXgpE0QBJseMPIHjC0oirrZgrLF5XKZzWa1Wt3e16LovFbfhjQ9vvWws0PZP6pSQfJpi9Fgt9lsDqfeZFbp9BqWp8DmgvSRFqcb4hEcTgipcaJuD6TJ8aCk3YGZze5RtWFMa7Q6UIzwoYRX59R3aTpv9jZcbb3w491vDzft3IeItl0vklzPk9RtkiDZZbIMsTRty5mNqypnrd+7JP9CMh/JECkgrEhwPV1wJXPrldSiiwmbz23MP70+80hc4v5FG3bNS9yzKP37FQXnVm+9Ei9G0iSKzDJFhkjGE8o5QwLGbS+sbFA+r6I+93jznh5rcygaiNDRsSHtlZoaZW+v0+nkxOV2u1EU5Z4FiqKcH+m4J/Tv8Qefoni9Xu4Gnt+CP+AU5fe4o191DjYf9fO3Nr7H+9ISu3cURZ1Op8ViMRgMw8PDAwMDGo3G4/FwuvZn9i4b8kPELsg9Bi/mdblcVqtVbRhWqh639zbfa7l/4869m7ce3L374OHD+y0td5tb795vvnvnwe07928/eHTvcVtrR0dHe1t7a3NLR0d315PeJ53Kjvbux60drS3tbY87urqUvb19T3r7uweHu4cG23o7b3feqH108dSNg9/Wl+5vKtlWW1h5La/8ak7Z9ZyyuhyJbFO5PKdUni1CMkXnU1L2Ll9TtTj7WGJpXa5EniOq5fEv84rP8gqOJPD2xSXuWJywY9G6qnmrymetrZrD+3Zl/ql1+edWFQN2eb8Bu3KYphDK0vbdFDQN1rgoazQSdbo8D9talH29Go1Gq9WOjY31s4VTCUqlcmRkZHSKMvLby/Dw8OAUhcs10veiMjAwMMVBg8PDw7/9Ln7/I4anKENDQwMTpY/NpKJUKru7u588edLT0zM6OupwOGh2oBydKOP2Luh5H01wHugUBcmrwNUVmLXBNxJ1ggo26cZGR/uUg11dyo7OjvaOlrbOB60dD5rbHrW0tzxua21ra+tob+9qf9Ld0dXT0f24paOlpaO9o+tJV093T0+3sgv2Kju6le2Peh7daL95UXH+wOndkqMlpSfzhWcz+D8lVygyKmXZlbKsCll2hTxHosgpU+SIZVl8JLOkNr3sQnr+9wnrypfyDmzgX8gWXOYVnFqfc3RtxrerU7YvWy2avVIwc33VvNSDy7KOrCo8Ey+qyShHsgU1SfzriSU1ScK6FJilZqfJIAAJSXuh0oWdijRBfTJfnlJZn3+h7eiwvTccBQdgtUVnMBttNpvFYtHpdBxqx9gyNDQ0OjrKtZ/fDg8PD/32MhUKBwcHpzrZv3HIVKf6t/cPDw+rpihjY2NT9O7RWF/lADw4CJ1tdHRUpVLpdDqHw+Hz+TiwTkA36vf7w+HwHzg7ibM5ODOOm23h1sf9Ph9LA+2jcYoEViDMBbG1RotDa3NZHW7U5nRbbU6LxW612J12NwqcQV4X5ja5zCqTalA7MKzvGzMPjJp6laOPW5S3zjUdPnSlSvBdLq98TVLZiqz96/KOxReci+dLeWWytHI5r1yeXipLFyPpEGMsTS+BJb0MyeXMkpMZa8VL14qXpu9fyzu4Mn73vPU75q3bPj9xz6LEPQt51csLTm8Q1PDK5LAGIW7IAA8baaqgJmnr9QR+TZJwkr3LR1LBJeOFFWJCU4QNKeUNOUfu7W4Zu0cGiWA07AKCEYwkSRzHuZeaywWsHdxLnDO0XrjlRhHO31K4IccLt5yt8sILud3uFx7C7fwt1//3f+tyuTjL84Vbz0tLTFAeSE8JouayE3AwnTytG4lAekDI88NZx34/JP3hjGXO1yHEFeDmDcBSQSgaDUfDQNzCgJ+7H4dsdGFYR2D8kEOdCQbpkB+ncTfu0mMqpan9llJx7e65izdOXL518qc7J84oqo9e31NyNCXnQFxy1aK1gjkbShfw9sRlf79+08n4zRdTWe2YKkLShNI0QV0qvzZNUJcuQrLKZDnlV3j8H9PXipcuLvgmjj93feXcjTvnJuxbmFK9PP/s+i0/JYml6WWKLLEiowRJKby+PvvSypwLK7dc3lByLUFYl1KKwEIat6I2AVmIBn2+iuRpIgX4SYrkGXsU4vquOifuCEYiNFCfjDuLQS7XieEFJzSutwdeVF6yRvqSr150pn9/30vcdF5yD7/vV/6pQ7qCbIEQGL+fe+0HgzAXFtOyEytCMLfAgZj7wR+4Dxxque847D7FcSAU4RY0opD5HRKzgXtXKMR6xoTC0WAkSkf8KOPRo6oe7eP7fU2XHx0/3Lhjb4248kJR6Y95olM5guNZRYdT8w8lpuxZvHHHnA2VczaUz4uXLEresSLj4OqcI+tzT8QLanhimP/KFEszhLXpwpp0cV2mRLapqj5PdDWl+HRqfGXcwryvlxbNTNy1OPfY6sJzG4suswTAMliVKKlJzruwNv3E8uQjixIPL0g7tmQqe5ebLBOwIXfPbEvhBtKFitRSReYehUjeWePyOoFPCdyXIClfrHDyifxSeeGcwC/u5B7E89vYU3z+DJMf9jMHvuSo58/zH+75JXm84HsQLlvCgC4onJNg7D+K3f8z/xdg95nCnYI7PsSGewWjE3RYkTAoZ4hijLJLuOCg4o/SDtLUo2uWtV041XSgWiopu5y19UKS4HKq6Eq68KeMredT845vTD24YsPORckHV8bvWbph++L4yiUJFUsSK5dk7IvLP7Iu98hq/tXMUukmCZInQXLL6nJKa7PK67KqZDnbFbnCmsSiM0npBzauKJ6/kj875/s14pp0EZLBl6YLatIKz2/IOh6XcWQFr3p56sFlvEMrc4+sLzqdsOWnqfRuGmv1ssH3YP4+raXSzDJpZkVT9r6HJafaDraq71F+CvzXmGiYzXQQEygnNO5RPCPA//zjC57wf7DrP7+fX3+GqaD/jNwmn3Dyf8YdHtsTU6mxPZMPBJth8ueYfyT3NgQew3AgAC4xkTAgFjrJ+B/I9cUQAbeJGGvX3bl47/u9V0skl3JEl3mi2hSxLLVUllYG06Xpopr0ogtJqdUrVlbMSjm0Jmnf6vWVS9dLlsRXLE2qXJK5d2XR0Q0FR9YUX0gTXc+RIPkVSL5Euqm8Llsiza6EeLJsEZJcdDEp70jyRsmKVYJ52dVrRFcztlxNyjmzOuv4qqRDi+P3LUj9dnnOkbWFxxOKf0wrvbip4vqmUmmKqC5ZUJsklKaMz+8qMtm1t3ShIk0gTxMAiUSqQJoqkvLKkEyJPOdAvfDorZ3n2r9VqC61We+aSF0oCuxdNBkOgFUFPXeyuDjpxST7fGPyj399+/nzxPZMdZLYD55vTHXI776fsz9jr6bJjZe/pp6BbOzGnhH4M1h9gd6NWRGxI7l74h5bTDShsN9NWLpMD+v6zh59sGt7TVH5lVwJkgOuMIpUUWNGaWOGWJ4mRlIlSFaFNHfzicR1lQuSdixP3blyXdmCNeJ5oHqrliZtW5ZXnbD5SErBqXj+T+nldZsk0tzyuhyJNKcC2VQuzRLV8kT1vK1XUgqPJ2TsWr2ycNZ64YLc79ZnH41bv2920qFFvO+Xbzq5ZvOFhJKraaLaDDE4NmSKkTSxNKlMllKu4EFwBLjjZJQ2Zktu5ZXdzhHfSBc38sACrssor83eLdty+HblmZZ993qRYY3SaFdjlDsA5JQR4GKJRJnguCNITKz/2/gfl8DPsDtZ4ccwziUB5QZ9HHAh87LPZ3OZ2ofunb3zfflPBUVnUsSXsncixVXygi01CcVIsqghoxQG+0+xW3gyaeP2xQnblqbuiouvXLK2dP4GySIOvjmHNhQeTs4/uXHrpbSy2hxW6XLYzSlHssR16eKGdMH1tM0nEtJ3x8UVzVq19ZvMQ3EFpzZk/LBy87mNWy4m8q+liKUZZXJYgxAreEIFEEkVX08RILxSBbicQ2SoIlWkSBHXp5bWp5YreJWK7B31mw82lZ58cBDpvdxmuT9K9Lv9FjqIBcJEKMpEoiFwe+ReNf/jD+p/b+A5CfwMu899y3qsThgVnMlMkqRKpbp///6F2tMHLm0Tny3IPrqWd3jl1gu8XbKt2+QFQIcjSxOzDlyl8rRSJE0iy5YgOZtPJyXtXbaxcjFvz6qUnSvXly9cV7ZgYwUYvul7Vxd8n5R3YsOWC6ni61nldZvKpYBdCZJdDgZoBriNy7IFF9ILvk9IqVq2Tjw342Cc4DIoY3ENT1iTyq9J2lqbsLUufisSXyKP5zck8BvTBIo8YX2esH6TUJZeUpdcUhMvrIsvRZK2y7Oqbwouth+8pb6q9DTr6TFH2IFFKQpIPsH7Mhz1h6ERfGomPS+a/93zPy0BwC5o0/GZhChno8TMuNhsAyham02pVCoUiurq6uLi4qzi1IIDafzzOUWXknNOry0+nyK5ngsLufXZYnmmWJbJRi/yymS8CnmWBNlUdD6ZVx23oXJR+t7VGfvWxFcsXiuet0GyaGPF4pSdK3Or43OPry86lyS4kl5Wm10uzSmXZrMVBk9liszK+tyK2k3iC9lFPyQl71ySdmC56KeMsrosYW2yoCappCZhS83GLXXri2XrS+o38Js2CppS+A3ZJYqsEiSzpCajtDZnp2LL9/ckZ9v3NQxe6jY9HEOV9oCeiGJMlAlEw0GYA4yCS7if9Ad8wRDDJkLiPEZZ3fs//aj+9/rPSGBc73JgDYfDnDtFKBSK/Y6maZ1O9+jRo5qammPHju3YsaO4uDg7OztjS3LhIZ7oUm7R5eSME3EFpzYKL2WKr2WVyjLEMGmVBT61soxyeUalIkuCZG+5lJJzbH3C9qW8Pasy961J3LZsjXjeutIFnOWQuX9tzg9rC07Hb72UWlqTBWaDNLusLqtcmlmOZAkRXrksWyLdVHo1p+RsWsq+pfG7FxSdTSqX5pTK08oU6WX16eUN6WWNvNKGNFF9ilCRxEeSSqQpZfKsXTeKv7+3/Xz7kYbBmg7zwxFvn422eQO0LxQAyEbC4OESDEZYDqhIOBgCknEITYtJIBKOspGdsR3/2/j/hQT+H5xkq76UbDgYAAAAAElFTkSuQmCC;" vertex="1" parent="1">
          <mxGeometry x="880" y="600" width="118.14" height="72" as="geometry" />
        </mxCell>
        <mxCell id="-GH2pdDdH-t2QKyGOY7W-8" value="" style="endArrow=none;html=1;rounded=0;" edge="1" parent="1">
          <mxGeometry width="50" height="50" relative="1" as="geometry">
            <mxPoint x="100" y="560" as="sourcePoint" />
            <mxPoint x="1060" y="550" as="targetPoint" />
          </mxGeometry>
        </mxCell>
      </root>
    </mxGraphModel>
  </diagram>
</mxfile>
